<svg width="306" height="80" viewBox="0 0 306 80" fill="none" xmlns="http://www.w3.org/2000/svg">
<path d="M84.453 51.9455L76.1056 28.2148H80.4333L86.8276 47.2345L93.2461 28.2148H97.5414L89.194 51.9455H84.453Z" fill="#8DFF33"/>
<path d="M99.8104 31.7738C98.8785 30.822 98.8785 29.3983 99.8104 28.4865C100.734 27.5348 102.25 27.5348 103.174 28.4865C104.098 29.3983 104.098 30.83 103.141 31.7738C102.217 32.6856 100.775 32.6856 99.8104 31.7738ZM99.6403 51.9452V34.9891H103.352V51.9452H99.6403Z" fill="#8DFF33"/>
<path d="M110.184 51.9452V38.5242H106.391V34.997H110.184V30.2461H113.896V34.989H117.526V38.5162H113.896V51.9452H110.184Z" fill="#8DFF33"/>
<path d="M134.254 34.9973H137.965V51.9534H134.254V49.514C132.844 51.4495 130.85 52.3933 128.24 52.3933C125.874 52.3933 123.88 51.5455 122.195 49.8179C120.509 48.0903 119.69 45.9548 119.69 43.4754C119.69 40.9639 120.517 38.8604 122.195 37.1328C123.88 35.4052 125.874 34.5574 128.24 34.5574C130.85 34.5574 132.844 35.5092 134.254 37.4047V34.9973ZM128.824 48.8981C130.372 48.8981 131.677 48.3862 132.706 47.3705C133.735 46.3227 134.254 45.035 134.254 43.4674C134.254 41.8997 133.735 40.62 132.706 39.6042C131.677 38.5565 130.372 38.0446 128.824 38.0446C127.276 38.0446 125.971 38.5565 124.942 39.6042C123.913 40.62 123.394 41.9077 123.394 43.4674C123.394 45.027 123.913 46.3147 124.942 47.3705C125.971 48.3862 127.284 48.8981 128.824 48.8981Z" fill="#8DFF33"/>
<path d="M151.686 28.2148C154.984 28.2148 157.732 29.3666 159.895 31.6381C162.092 33.9096 163.194 36.7249 163.194 40.0842C163.194 43.4034 162.092 46.2188 159.895 48.5302C157.732 50.8017 154.984 51.9535 151.686 51.9535H142.236V28.2148H151.686ZM151.686 48.2183C153.955 48.2183 155.811 47.4425 157.221 45.9148C158.664 44.3872 159.385 42.4196 159.385 40.0842C159.385 37.7087 158.664 35.7811 157.221 34.2535C155.811 32.7258 153.955 31.95 151.686 31.95H146.191V48.2263H151.686V48.2183Z" fill="#8DFF33"/>
<path d="M178.584 43.5074L174.775 32.7898L170.958 43.5074L169.653 47.1626L167.968 51.9455H163.672L172.401 28.2148H177.142L185.838 51.9455H181.575L179.889 47.1626" fill="#8DFF33"/>
<path d="M198.788 52.3851C195.319 52.3851 192.361 51.2014 189.922 48.8259C187.515 46.4184 186.315 43.4991 186.315 40.0759C186.315 36.6527 187.515 33.7333 189.922 31.3658C192.361 28.9584 195.319 27.7747 198.788 27.7747C202.256 27.7747 205.214 28.9584 207.613 31.3658C210.053 33.7413 211.252 36.6527 211.252 40.0759C211.252 43.4991 210.053 46.4184 207.613 48.8259C205.214 51.2014 202.256 52.3851 198.788 52.3851ZM198.788 48.594C201.195 48.594 203.221 47.7781 204.834 46.1865C206.479 44.5629 207.305 42.5233 207.305 40.0839C207.305 37.6444 206.479 35.6049 204.834 34.0132C203.221 32.3896 201.195 31.5738 198.788 31.5738C196.381 31.5738 194.355 32.3896 192.71 34.0132C191.097 35.6049 190.27 37.6444 190.27 40.0839C190.27 42.5233 191.097 44.5629 192.71 46.1865C194.355 47.7781 196.381 48.594 198.788 48.594Z" fill="#8DFF33"/>
<path d="M216.262 28.1027L216.416 28.2067C219.203 30.1503 222.931 30.1503 225.711 28.1907C228.013 26.5751 230.93 29.1745 229.528 31.5979L224.747 39.8601C223.102 42.7074 218.944 42.7074 217.291 39.8601L212.461 31.51C211.059 29.1025 213.96 26.4951 216.262 28.1027Z" fill="#8DFF33"/>
</svg>
