<svg width="227" height="37" viewBox="0 0 227 37" fill="none" xmlns="http://www.w3.org/2000/svg">
<g clip-path="url(#clip0_6018_572)">
<path d="M30.9781 7.17282H21.7532L25.0929 10.5122H29.5951L34.5835 15.4972V15.5003L29.5468 20.5366H21.9133L15.1977 13.8215H8.62402V15.4912V17.1609H13.8057L20.5212 23.876H30.9298L37.6394 17.17L37.6363 13.8305L30.9781 7.17282Z" fill="#D7F9C0"/>
<path d="M7.58499 23.87H16.8099L13.4702 20.5305H8.96796L3.94939 15.5123V15.5093L8.94683 10.5122H16.5804L23.3352 17.1881L29.8696 17.2273V15.5576V13.8486H24.7273L18.0117 7.13356L7.56385 7.17281L0.893555 13.8426V17.182L7.58499 23.87Z" fill="#D7F9C0"/>
<path d="M10.8789 27.2215H27.9366L34.8515 34.1389L32.4932 36.5L26.5536 30.5609H14.2186L10.8789 27.2215Z" fill="#D7F9C0"/>
<path d="M34.8369 29.4286L32.4726 27.0675L40.9486 18.5951V12.4114L32.376 3.83943H17.2568L20.5965 0.5H33.7589L44.2883 11.0286V19.978L35.8244 28.4383L35.5284 28.7342L34.8369 29.4286Z" fill="#D7F9C0"/>
<path d="M57.6769 24.3108C56.5325 23.7431 55.6296 22.9038 54.9623 21.7896C54.298 20.6755 53.9658 19.3469 53.9658 17.801C53.9658 15.3372 54.6271 13.4561 55.9467 12.1548C57.2662 10.8534 59.0901 10.2043 61.4182 10.2043C62.6894 10.2043 63.7554 10.3401 64.616 10.6149C65.4765 10.8897 66.3069 11.3275 67.1101 11.9344V14.7514H64.3834V13.1391C63.9335 12.8855 63.5047 12.7104 63.0941 12.6107C62.6834 12.5141 62.1248 12.4628 61.4212 12.4628C60.1107 12.4628 59.0508 12.8976 58.2386 13.7671C57.4263 14.6367 57.0217 15.9803 57.0217 17.801C57.0217 19.5221 57.4867 20.7993 58.4137 21.6296C59.3437 22.4599 60.5304 22.8766 61.9768 22.8766C62.8767 22.8766 63.6436 22.7981 64.2808 22.6411C64.9149 22.4841 65.5188 22.2214 66.0835 21.85L67.1675 23.6405C66.3462 24.2081 65.5098 24.6037 64.6582 24.8271C63.8067 25.0505 62.7559 25.1653 61.5058 25.1653C60.0986 25.1653 58.8213 24.8815 57.6769 24.3138V24.3108Z" fill="#D7F9C0"/>
<path d="M70.3078 23.2963C68.9671 22.0553 68.2998 20.2407 68.2998 17.8554C68.2998 15.313 68.9188 13.4018 70.1629 12.1216C71.404 10.8414 73.1704 10.2012 75.4563 10.2012C77.7421 10.2012 79.3364 10.8263 80.4718 12.0793C81.6072 13.3323 82.1719 15.0232 82.1719 17.1549V18.5045H71.407C71.407 20.0897 71.7935 21.2582 72.5665 22.01C73.3395 22.7618 74.3813 23.1393 75.6918 23.1393C76.4346 23.1393 77.0597 23.0849 77.57 22.9792C78.0773 22.8705 78.5393 22.6924 78.9499 22.4358V21.379H81.6766V23.4321C80.8553 24.0179 79.9706 24.4527 79.0224 24.7365C78.0742 25.0203 76.954 25.1622 75.6646 25.1622C73.4361 25.1622 71.6516 24.5433 70.3109 23.2993L70.3078 23.2963ZM79.1523 16.5933C79.1523 13.7369 77.9112 12.3118 75.4261 12.3118C74.1156 12.3118 73.1191 12.6922 72.4336 13.4561C71.7482 14.22 71.407 15.2647 71.407 16.5933H79.1523Z" fill="#D7F9C0"/>
<path d="M83.3076 22.5505H84.0414C84.4309 22.5505 84.7117 22.469 84.8778 22.2999C85.0439 22.1338 85.1284 21.856 85.1284 21.4635V13.897C85.1284 13.5256 85.0499 13.2508 84.8929 13.0757C84.7359 12.9006 84.4732 12.813 84.1018 12.813H83.4858V10.6421H87.5351L87.9457 12.2544C88.3353 11.6475 88.8395 11.2278 89.4555 10.9923C90.0715 10.7568 90.7992 10.6391 91.6417 10.6391H92.9915V12.81H91.3488C90.2346 12.81 89.4434 13.0606 88.9724 13.5588C88.5044 14.057 88.2688 14.8239 88.2688 15.8626V21.4635C88.2688 21.856 88.3473 22.1338 88.5044 22.2999C88.6614 22.4659 88.9241 22.5505 89.2955 22.5505H90.0292V24.7214H83.3106V22.5505H83.3076Z" fill="#D7F9C0"/>
<path d="M95.4642 23.2963C94.1235 22.0553 93.4531 20.2407 93.4531 17.8554C93.4531 15.313 94.0752 13.4018 95.3162 12.1216C96.5573 10.8414 98.3237 10.2012 100.613 10.2012C102.901 10.2012 104.493 10.8263 105.628 12.0793C106.764 13.3323 107.328 15.0232 107.328 17.1549V18.5045H96.5633C96.5633 20.0897 96.9498 21.2582 97.7228 22.01C98.4959 22.7618 99.5376 23.1393 100.848 23.1393C101.591 23.1393 102.216 23.0849 102.726 22.9792C103.234 22.8705 103.696 22.6924 104.106 22.4358V21.379H106.836V23.4321C106.015 24.0179 105.13 24.4527 104.182 24.7365C103.234 25.0203 102.113 25.1622 100.824 25.1622C98.5955 25.1622 96.8109 24.5433 95.4702 23.2993L95.4642 23.2963ZM104.309 16.5933C104.309 13.7369 103.068 12.3118 100.582 12.3118C99.2719 12.3118 98.2754 12.6922 97.59 13.4561C96.9045 14.22 96.5633 15.2647 96.5633 16.5933H104.309Z" fill="#D7F9C0"/>
<path d="M111.819 22.7256L111.583 24.7214H109.177V8.73383C109.177 8.28394 109.104 7.95785 108.956 7.75253C108.808 7.54721 108.512 7.44455 108.063 7.44455H107.504V5.30382H112.196V12.342C112.704 11.6173 113.38 11.0799 114.219 10.7296C115.059 10.3794 116.01 10.2012 117.064 10.2012C119.039 10.2012 120.54 10.8353 121.566 12.1065C122.593 13.3776 123.106 15.2345 123.106 17.6802C123.106 20.1259 122.535 21.859 121.391 23.1785C120.247 24.498 118.698 25.1592 116.741 25.1592C114.434 25.1592 112.791 24.347 111.813 22.7256H111.819ZM119.181 21.6416C119.767 20.8204 120.059 19.4798 120.059 17.6229C120.059 15.7659 119.76 14.4163 119.166 13.6343C118.568 12.8523 117.568 12.4597 116.158 12.4597C115.044 12.4597 114.12 12.8402 113.386 13.6041C112.652 14.368 112.287 15.4429 112.287 16.8318V18.5317C112.287 19.8029 112.664 20.8445 113.416 21.6567C114.168 22.469 115.14 22.8736 116.336 22.8736C117.647 22.8736 118.595 22.4629 119.181 21.6416Z" fill="#D7F9C0"/>
<path d="M124.072 22.5505H124.806C125.196 22.5505 125.476 22.469 125.642 22.2999C125.809 22.1338 125.893 21.856 125.893 21.4635V13.897C125.893 13.5256 125.815 13.2508 125.658 13.0757C125.501 12.9006 125.238 12.813 124.866 12.813H124.25V10.6421H128.3L128.71 12.2544C129.1 11.6475 129.604 11.2278 130.22 10.9923C130.836 10.7568 131.564 10.6391 132.406 10.6391H133.756V12.81H132.113C130.999 12.81 130.208 13.0606 129.737 13.5588C129.266 14.057 129.033 14.8239 129.033 15.8626V21.4635C129.033 21.856 129.112 22.1338 129.269 22.2999C129.426 22.4659 129.689 22.5505 130.06 22.5505H130.794V24.7214H124.075V22.5505H124.072Z" fill="#D7F9C0"/>
<path d="M138.472 23.9001C137.651 23.0608 137.24 21.856 137.24 20.292V13.897C137.24 13.5256 137.156 13.2508 136.99 13.0757C136.824 12.9006 136.555 12.813 136.184 12.813H135.332V10.6421H140.378V20.2618C140.378 22.158 141.296 23.1061 143.135 23.1061C144.131 23.1061 144.934 22.8132 145.541 22.2274C146.148 21.6417 146.45 20.7993 146.45 19.7062V13.9C146.45 13.5286 146.378 13.2538 146.23 13.0787C146.082 12.9036 145.834 12.816 145.481 12.816H144.66V10.6451H149.557V21.4696C149.557 21.8409 149.645 22.1097 149.82 22.2757C149.995 22.4418 150.27 22.5263 150.641 22.5263H151.227V24.7275H147.501L147.326 22.8222C146.701 23.6435 145.97 24.2413 145.14 24.6127C144.309 24.9841 143.298 25.1713 142.105 25.1713C140.502 25.1713 139.291 24.7516 138.469 23.9092L138.472 23.9001Z" fill="#D7F9C0"/>
<path d="M152.876 22.5505H153.61C153.999 22.5505 154.28 22.469 154.446 22.2999C154.612 22.1338 154.697 21.856 154.697 21.4635V13.897C154.697 13.5256 154.612 13.2569 154.446 13.0908C154.28 12.9247 154.002 12.8402 153.61 12.8402H153.024V10.6391H156.69L156.895 12.6349C157.424 11.8136 158.082 11.2037 158.876 10.8021C159.667 10.4005 160.63 10.2012 161.766 10.2012C162.626 10.2012 163.369 10.3975 163.994 10.787C164.619 11.1795 165.09 11.7351 165.401 12.4597C165.891 11.6777 166.491 11.1071 167.204 10.7447C167.917 10.3824 168.814 10.2012 169.888 10.2012C171.492 10.2012 172.651 10.6028 173.364 11.403C174.077 12.2061 174.436 13.4078 174.436 15.0111V21.4635C174.436 21.8349 174.524 22.1097 174.699 22.2848C174.874 22.4599 175.149 22.5475 175.52 22.5475H176.341V24.7184H171.356V15.0111C171.356 14.0328 171.169 13.3384 170.797 12.9277C170.426 12.5171 169.801 12.3118 168.919 12.3118C168.037 12.3118 167.31 12.5654 166.793 13.0757C166.274 13.5829 166.017 14.3287 166.017 15.304V21.4635C166.017 21.856 166.09 22.1338 166.238 22.2999C166.386 22.4659 166.642 22.5505 167.014 22.5505H167.805V24.7214H163.113V15.1017C163.113 14.1446 162.925 13.441 162.554 12.9911C162.182 12.5413 161.597 12.3178 160.793 12.3178C159.815 12.3178 159.063 12.5926 158.535 13.1391C158.006 13.6856 157.744 14.4888 157.744 15.5455V21.4696C157.744 21.8621 157.816 22.1399 157.964 22.3059C158.112 22.472 158.369 22.5565 158.74 22.5565H159.531V24.7275H152.873V22.5565L152.876 22.5505Z" fill="#D7F9C0"/>
<path d="M182.254 23.2842C181.17 22.0342 180.626 20.2437 180.626 17.9157C180.626 15.4731 181.163 13.5739 182.238 12.2242C183.313 10.8746 184.869 10.2012 186.904 10.2012C188.096 10.2012 189.051 10.3492 189.763 10.6421C190.476 10.935 191.068 11.4241 191.539 12.1095V8.73685C191.539 8.26884 191.46 7.93671 191.303 7.74045C191.146 7.54419 190.844 7.44757 190.394 7.44757H189.896V5.30684H194.561V21.5843C194.561 22.0161 194.631 22.312 194.767 22.478C194.903 22.6441 195.156 22.7286 195.531 22.7286H196.117V24.7244H192.185L191.922 22.6713C191.337 23.5499 190.642 24.187 189.839 24.5765C189.036 24.966 188.021 25.1622 186.789 25.1622C184.853 25.1622 183.344 24.5372 182.257 23.2842H182.254ZM190.422 21.6567C191.125 20.8445 191.478 19.7545 191.478 18.3868V16.8922C191.478 15.464 191.14 14.371 190.467 13.6071C189.793 12.8432 188.839 12.4628 187.607 12.4628C186.218 12.4628 185.216 12.8915 184.6 13.752C183.984 14.6125 183.676 15.9924 183.676 17.8886C183.676 19.7847 183.969 20.9683 184.554 21.7322C185.14 22.4961 186.119 22.8766 187.487 22.8766C188.737 22.8766 189.715 22.472 190.419 21.6598L190.422 21.6567Z" fill="#D7F9C0"/>
<path d="M198.737 24.1326C197.925 23.4472 197.521 22.481 197.521 21.228C197.521 19.821 197.964 18.7883 198.855 18.1331C199.746 17.4779 201.029 17.0915 202.711 16.9737L206.818 16.711V14.9205C206.818 14.0026 206.622 13.3354 206.232 12.9247C205.84 12.5141 205.175 12.3088 204.236 12.3088C203.59 12.3088 203.058 12.3631 202.639 12.4688C202.219 12.5775 201.833 12.7466 201.479 12.9821V14.0389H198.749V11.723C200.392 10.7055 202.24 10.1982 204.293 10.1982C208.05 10.1982 209.925 11.8619 209.925 15.1832V21.6054C209.925 21.9979 209.997 22.2787 210.145 22.4569C210.293 22.635 210.532 22.7196 210.864 22.7196H211.51V24.7154H208.137L207.757 22.8675C207.132 23.6707 206.404 24.2504 205.571 24.6127C204.74 24.975 203.65 25.1562 202.301 25.1562C200.736 25.1562 199.547 24.815 198.737 24.1296V24.1326ZM205.791 22.2848C206.477 21.7775 206.818 21.0046 206.818 19.9689V18.5619L202.947 18.8548C201.99 18.9121 201.322 19.1144 200.951 19.4556C200.579 19.7968 200.392 20.3403 200.392 21.0831C200.392 21.7292 200.597 22.2184 201.008 22.5505C201.419 22.8826 202.083 23.0487 203.001 23.0487C204.176 23.0487 205.103 22.7951 205.788 22.2848H205.791Z" fill="#D7F9C0"/>
<path d="M214.241 23.1936C213.027 21.8832 212.423 20.0565 212.423 17.7074C212.423 15.3583 213.024 13.4984 214.226 12.1789C215.427 10.8595 217.233 10.1982 219.637 10.1982C222.04 10.1982 223.846 10.8595 225.048 12.1789C226.25 13.4984 226.85 15.3432 226.85 17.7074C226.85 20.0716 226.244 21.8832 225.033 23.1936C223.819 24.504 222.022 25.1592 219.637 25.1592C217.251 25.1592 215.451 24.504 214.241 23.1936ZM222.777 21.6688C223.463 20.8083 223.804 19.4888 223.804 17.7104C223.804 15.932 223.463 14.5763 222.777 13.7067C222.092 12.8372 221.047 12.4024 219.64 12.4024C218.233 12.4024 217.191 12.8372 216.514 13.7067C215.841 14.5763 215.503 15.9109 215.503 17.7104C215.503 19.51 215.841 20.8113 216.514 21.6688C217.188 22.5294 218.23 22.9581 219.64 22.9581C221.05 22.9581 222.095 22.5294 222.777 21.6688Z" fill="#D7F9C0"/>
</g>
<defs>
<clipPath id="clip0_6018_572">
<rect width="225.96" height="36" fill="white" transform="translate(0.893555 0.5)"/>
</clipPath>
</defs>
</svg>
