<svg width="156" height="36" viewBox="0 0 156 36" fill="none" xmlns="http://www.w3.org/2000/svg">
<g clip-path="url(#clip0_5852_12143)">
<path d="M61.2573 10.1333L57.6604 21.336L54.0634 10.1333H50.5693L55.8108 25.4452H59.5107L64.7514 10.1333H61.2573Z" fill="#8DFF33"/>
<path d="M71.8662 14.4909C71.1399 14.1486 70.3042 13.9771 69.359 13.9771C68.5641 13.9771 67.8313 14.1004 67.1598 14.3471C66.4883 14.5938 65.9131 14.9435 65.4336 15.3953C64.954 15.847 64.6044 16.3887 64.3855 17.0193L66.8518 18.1908C67.0438 17.6974 67.3485 17.3004 67.7668 16.9989C68.185 16.6975 68.6678 16.5463 69.216 16.5463C69.7911 16.5463 70.247 16.6901 70.5827 16.9777C70.9185 17.2652 71.086 17.6222 71.086 18.0462V18.346L67.9824 18.8476C67.092 18.9849 66.3486 19.2177 65.7522 19.5461C65.1558 19.8753 64.7139 20.283 64.4263 20.7691C64.1387 21.2551 63.9941 21.8139 63.9941 22.4438C63.9941 23.1153 64.1518 23.6945 64.4672 24.1806C64.7825 24.6675 65.2343 25.0408 65.8241 25.3006C66.4131 25.5604 67.1116 25.6911 67.9203 25.6911C68.5232 25.6911 69.0714 25.6119 69.5648 25.455C70.0583 25.2974 70.5035 25.058 70.9005 24.7353C71.0353 24.6267 71.1644 24.5041 71.291 24.375V25.4444H74.1683V18.0454C74.1683 17.2366 73.9657 16.5283 73.5621 15.9181C73.1577 15.3087 72.5924 14.8324 71.8662 14.4893V14.4909ZM70.7666 22.2085C70.5542 22.5859 70.256 22.8833 69.8728 23.1031C69.4889 23.322 69.0436 23.4315 68.5371 23.4315C68.1532 23.4315 67.8313 23.3359 67.5715 23.1439C67.3109 22.9519 67.181 22.6848 67.181 22.3425C67.181 21.9724 67.297 21.6881 67.5307 21.4896C67.7635 21.2911 68.0993 21.1506 68.5379 21.0681L71.0868 20.613V20.9651C71.0868 21.4169 70.9806 21.8319 70.7682 22.2085H70.7666Z" fill="#8DFF33"/>
<path d="M79.3068 10.1333H76.2236V25.446H79.3068V10.1333Z" fill="#8DFF33"/>
<path d="M84.4454 10.1333H81.3623V25.446H84.4454V10.1333Z" fill="#8DFF33"/>
<path d="M95.8016 15.5797C95.3286 15.0732 94.7494 14.6786 94.0648 14.3976C93.3794 14.1166 92.5918 13.9761 91.7014 13.9761C90.6328 13.9761 89.6729 14.2301 88.8241 14.7366C87.9745 15.244 87.2997 15.9359 86.7997 16.8125C86.299 17.6899 86.0498 18.6898 86.0498 19.8131C86.0498 20.9364 86.2892 21.8824 86.7695 22.7729C87.2491 23.6641 87.9271 24.3732 88.8045 24.9002C89.6811 25.4279 90.7161 25.6918 91.9081 25.6918C92.6752 25.6918 93.381 25.5782 94.0248 25.3527C94.6685 25.1265 95.2273 24.8079 95.6995 24.3969C96.1725 23.986 96.518 23.5065 96.7378 22.9583L94.2715 21.7868C94.0525 22.1708 93.7478 22.4722 93.3573 22.6912C92.9668 22.9109 92.4971 23.0204 91.9497 23.0204C91.3468 23.0204 90.833 22.8872 90.4082 22.6193C89.9834 22.3521 89.668 21.9788 89.463 21.4993C89.3568 21.2525 89.2865 20.9846 89.2497 20.6978H97.1095C97.1642 20.5475 97.2018 20.3662 97.2222 20.1529C97.2427 19.9405 97.2533 19.7249 97.2533 19.5051C97.2533 18.7241 97.1299 18.0011 96.8832 17.337C96.6365 16.6728 96.2771 16.087 95.804 15.5797H95.8016ZM90.324 16.8337C90.7072 16.5739 91.1663 16.4432 91.7014 16.4432C92.2365 16.4432 92.7119 16.5764 93.0885 16.8443C93.4652 17.1115 93.729 17.475 93.8793 17.9333C93.9316 18.0934 93.9659 18.2617 93.9831 18.4366H89.3274C89.3625 18.2773 89.4066 18.1261 89.4597 17.984C89.6517 17.4775 89.9392 17.0935 90.3232 16.8329L90.324 16.8337Z" fill="#8DFF33"/>
<path d="M103.909 21.4438L101.258 14.2229H97.9482L102.37 25.4411L102.162 25.9174C101.998 26.2874 101.785 26.6158 101.525 26.9042C101.264 27.1918 100.833 27.3356 100.23 27.3356C100.01 27.3356 99.7708 27.3151 99.5102 27.2735C99.2496 27.2326 99.0241 27.1844 98.8322 27.1297V29.6581C99.065 29.7815 99.3354 29.8705 99.6442 29.9253C99.9522 29.98 100.271 30.0078 100.6 30.0078C101.285 30.0078 101.905 29.8771 102.46 29.6173C103.015 29.3567 103.512 28.9662 103.95 28.4458C104.388 27.9246 104.758 27.2743 105.06 26.4933L109.87 14.2229H106.56L103.909 21.4438Z" fill="#8DFF33"/>
<path d="M123.394 13.8325C122.723 12.6814 121.777 11.7771 120.558 11.1194C119.338 10.4618 117.899 10.1326 116.242 10.1326H111.247V25.4452H116.242C117.899 25.4452 119.338 25.116 120.558 24.4584C121.777 23.8008 122.723 22.8931 123.394 21.7347C124.066 20.5771 124.401 19.2578 124.401 17.7783C124.401 16.2988 124.066 14.9827 123.394 13.8317V13.8325ZM120.609 20.3582C120.205 21.091 119.639 21.6604 118.913 22.0639C118.187 22.4683 117.323 22.6701 116.324 22.6701H114.432V12.9069H116.324C117.323 12.9069 118.187 13.1054 118.913 13.5033C119.639 13.9011 120.205 14.4623 120.609 15.1886C121.014 15.9149 121.215 16.7784 121.215 17.7783C121.215 18.7782 121.014 19.6246 120.609 20.3582Z" fill="#8DFF33"/>
<path d="M129.448 10.1333L124.269 25.446H127.722L128.749 22.322H134.361L135.389 25.446H138.862L133.683 10.1333H129.449H129.448ZM129.633 19.5469L131.563 13.6388L133.476 19.5469H129.633Z" fill="#8DFF33"/>
<path d="M154.493 14.6549C154.088 13.6959 153.52 12.8601 152.787 12.1478C152.053 11.4354 151.194 10.8807 150.207 10.4828C149.22 10.0858 148.144 9.88647 146.98 9.88647C145.816 9.88647 144.74 10.085 143.753 10.4828C142.766 10.8807 141.907 11.4354 141.174 12.1478C140.441 12.8601 139.872 13.6967 139.468 14.6549C139.064 15.614 138.862 16.6556 138.862 17.7789C138.862 18.9022 139.067 19.9438 139.479 20.9029C139.89 21.862 140.462 22.7018 141.195 23.4207C141.928 24.1404 142.789 24.6984 143.775 25.0954C144.761 25.4924 145.83 25.6918 146.981 25.6918C148.132 25.6918 149.201 25.4933 150.188 25.0954C151.174 24.6984 152.034 24.1396 152.767 23.4207C153.5 22.701 154.073 21.862 154.484 20.9029C154.895 19.9438 155.101 18.9022 155.101 17.7789C155.101 16.6556 154.898 15.614 154.494 14.6549H154.493ZM151.543 19.8139C151.296 20.4307 150.946 20.9617 150.495 21.4069C150.043 21.8522 149.518 22.1985 148.922 22.4444C148.326 22.6912 147.679 22.8145 146.979 22.8145C146.28 22.8145 145.633 22.6912 145.038 22.4444C144.441 22.1977 143.918 21.8522 143.465 21.4069C143.013 20.9617 142.664 20.4307 142.417 19.8139C142.17 19.1971 142.047 18.5191 142.047 17.7789C142.047 17.0388 142.17 16.364 142.417 15.7545C142.664 15.1451 143.013 14.6141 143.465 14.1615C143.918 13.7089 144.441 13.3634 145.038 13.1232C145.634 12.8838 146.281 12.7637 146.979 12.7637C147.678 12.7637 148.326 12.8838 148.922 13.1232C149.518 13.3634 150.042 13.7089 150.495 14.1615C150.947 14.6133 151.296 15.1451 151.543 15.7545C151.79 16.364 151.913 17.0388 151.913 17.7789C151.913 18.5191 151.79 19.1971 151.543 19.8139Z" fill="#8DFF33"/>
<path d="M42.2024 1.08342C41.8266 0.51238 41.1959 0.170083 40.5154 0.169266H40.4917C39.1772 0.169266 37.8889 0.391473 36.6619 0.828535C35.6456 1.19044 34.6914 1.69449 33.8173 2.3268C32.6932 0.861212 30.9654 0.000976562 29.0954 0.000976562C25.8113 0.000976562 23.1391 2.67318 23.1391 5.95727C23.1391 6.53566 23.2216 7.10344 23.3842 7.6516C22.2078 8.18424 21.1221 8.88109 20.154 9.72417C19.9939 9.86387 19.7603 9.88021 19.5732 9.76502C18.8143 9.29691 17.9949 8.93828 17.1379 8.69891C16.9394 8.64336 16.7907 8.47671 16.7597 8.27329C16.4116 6.03815 15.272 3.98927 13.5515 2.50326C11.8131 1.00009 9.58858 0.17335 7.28808 0.17335C5.29965 0.17335 3.39292 0.777067 1.77293 1.91833C0.984589 2.47385 0.687224 3.51789 1.06547 4.401L9.47829 24.0214L11.9275 29.7359C12.7738 31.7112 14.1495 33.3353 15.9051 34.4333C17.5439 35.4577 19.4531 35.9993 21.4268 35.9993C23.4005 35.9993 25.3105 35.4577 26.9485 34.4333C28.7041 33.3353 30.079 31.7112 30.9262 29.7359L42.3756 3.02038C42.6476 2.38562 42.5831 1.66099 42.2024 1.0826V1.08342ZM29.0954 1.01725C30.6509 1.01725 32.0879 1.73534 33.02 2.95747C33.0175 2.95993 33.0151 2.96238 33.0118 2.96483C32.9489 3.01956 32.8868 3.07511 32.8247 3.13148C32.8125 3.1421 32.8002 3.15354 32.7888 3.16498C32.7275 3.22135 32.6663 3.27853 32.6066 3.33572C32.5984 3.34389 32.5903 3.35206 32.5821 3.36023C32.5241 3.41578 32.4669 3.47215 32.4106 3.52933C32.404 3.53587 32.3967 3.5424 32.3901 3.54976C32.3313 3.60939 32.2733 3.66903 32.2161 3.72948C32.2047 3.74174 32.1932 3.75399 32.1818 3.76624C32.1254 3.8267 32.0699 3.88715 32.0143 3.94842C32.0054 3.95904 31.9964 3.96884 31.9866 3.97946C31.9326 4.03992 31.8795 4.10037 31.8273 4.16164C31.8232 4.16654 31.8183 4.17226 31.8134 4.17716C31.7586 4.24088 31.7055 4.30542 31.6524 4.37078C31.6418 4.38385 31.6312 4.39692 31.6206 4.40917C31.5691 4.4729 31.5185 4.53743 31.4678 4.60197C31.4588 4.61423 31.4498 4.62566 31.44 4.63792C31.3894 4.70409 31.3387 4.77108 31.2897 4.83807C31.2881 4.84052 31.2864 4.84215 31.2848 4.8446C31.235 4.91322 31.1851 4.98266 31.1369 5.0521C31.128 5.06517 31.119 5.07825 31.11 5.09132C31.0634 5.15912 31.0169 5.22693 30.9719 5.29555C30.9629 5.30862 30.9548 5.32169 30.9458 5.33558C30.8992 5.40665 30.8535 5.47773 30.8085 5.55044C30.8069 5.55289 30.8053 5.55534 30.8045 5.55779C30.7603 5.62886 30.717 5.69994 30.6746 5.77264C30.6672 5.7849 30.6599 5.79715 30.6525 5.8094C30.6108 5.88048 30.57 5.95237 30.5291 6.02426C30.521 6.03815 30.5136 6.05204 30.5055 6.06592C30.4646 6.13945 30.4246 6.21379 30.3854 6.28813C30.3821 6.29385 30.3796 6.29957 30.3764 6.30529C30.3388 6.37799 30.3012 6.4507 30.2653 6.52423C30.262 6.53158 30.2579 6.53893 30.2538 6.54628C30.2432 6.54547 30.2326 6.54383 30.222 6.54302C30.1958 6.54056 30.1697 6.5373 30.1435 6.53485C30.1011 6.53076 30.0594 6.52668 30.0169 6.52259C29.9908 6.52014 29.9646 6.51769 29.9377 6.51606C29.8944 6.51279 29.8519 6.5087 29.8086 6.50625C29.7833 6.50462 29.758 6.50217 29.7334 6.50053C29.6877 6.49727 29.6411 6.49482 29.5954 6.49236C29.5733 6.49073 29.5513 6.48991 29.53 6.48828C29.4728 6.48501 29.4157 6.48256 29.3585 6.48093C29.3479 6.48093 29.3372 6.48011 29.3266 6.47929C29.2572 6.47684 29.1877 6.47439 29.1183 6.47358C29.1093 6.47358 29.1003 6.47358 29.0913 6.47358C29.0317 6.47276 28.9729 6.47194 28.9132 6.47112C28.8936 6.47112 28.874 6.47112 28.8536 6.47112C28.8046 6.47112 28.7564 6.47112 28.7074 6.47112C28.6845 6.47112 28.6624 6.47112 28.6396 6.47194C28.593 6.47194 28.5473 6.47358 28.5007 6.47521C28.4778 6.47521 28.4541 6.47684 28.4312 6.47684C28.3847 6.47848 28.3373 6.48011 28.2907 6.48174C28.2687 6.48256 28.2474 6.48338 28.2254 6.4842C28.1739 6.48665 28.1224 6.4891 28.071 6.49236C28.0546 6.49318 28.0375 6.494 28.0211 6.49482C27.8839 6.5038 27.7458 6.51442 27.6086 6.52749C27.5931 6.52913 27.5784 6.53076 27.5628 6.53239C27.5106 6.5373 27.4583 6.54302 27.4052 6.54873C27.3831 6.55118 27.3619 6.55364 27.3398 6.55609C27.2941 6.56099 27.2475 6.56671 27.2018 6.57242C27.1781 6.57569 27.1544 6.57814 27.1307 6.58141C27.0858 6.58713 27.0416 6.59367 26.9975 6.59938C26.9738 6.60265 26.9501 6.60592 26.9256 6.61C26.8799 6.61654 26.8341 6.62389 26.7884 6.63124C26.7663 6.63451 26.7443 6.63778 26.723 6.64186C26.6707 6.65003 26.6176 6.65902 26.5654 6.66882C26.5507 6.67127 26.536 6.67373 26.5212 6.67618C26.4534 6.68843 26.3856 6.70068 26.3178 6.71376C26.3088 6.71539 26.299 6.71784 26.2901 6.71947C26.2329 6.73091 26.1757 6.74235 26.1185 6.7546C26.0964 6.7595 26.0744 6.76441 26.0523 6.76849C26.0074 6.77829 25.9633 6.7881 25.9183 6.7979C25.893 6.80362 25.8685 6.80934 25.8432 6.81506C25.8015 6.82486 25.7607 6.83466 25.719 6.84447C25.6929 6.851 25.6667 6.85754 25.6406 6.86407C25.5997 6.87469 25.5589 6.8845 25.518 6.89512C25.4927 6.90165 25.4674 6.90819 25.4413 6.91554C25.398 6.92698 25.3555 6.93841 25.313 6.95067C25.2901 6.9572 25.2672 6.96292 25.2444 6.96946C25.1905 6.98498 25.1374 7.0005 25.0834 7.01602C25.072 7.01929 25.0597 7.02256 25.0483 7.02664C24.9838 7.04625 24.9184 7.06586 24.8539 7.08628C24.8335 7.09281 24.813 7.09935 24.7926 7.10589C24.7485 7.12059 24.7036 7.13448 24.6594 7.14918C24.6341 7.15735 24.6088 7.16634 24.5843 7.17451C24.5443 7.1884 24.505 7.20147 24.4658 7.21535C24.4397 7.22434 24.4135 7.23415 24.3866 7.24313C24.367 7.25048 24.3474 7.25702 24.3278 7.26355C24.2118 6.83956 24.1529 6.40087 24.1529 5.95482C24.1529 3.23197 26.3685 1.01643 29.0913 1.01643L29.0954 1.01725ZM2.35868 2.74997C3.80629 1.72962 5.51124 1.19044 7.28808 1.19044C9.34431 1.19044 11.3327 1.92977 12.8866 3.272C14.4248 4.60034 15.4436 6.43191 15.7548 8.42933C15.848 9.02487 16.2834 9.51504 16.8642 9.67761C17.6297 9.89164 18.3609 10.2119 19.0397 10.6302C19.6083 10.9806 20.3248 10.9243 20.8231 10.4905C21.7757 9.66045 22.8532 8.98403 24.0247 8.47997C24.0851 8.45383 24.1456 8.42933 24.206 8.404L24.2109 8.40155C24.2698 8.37704 24.3294 8.35335 24.389 8.33048C24.4086 8.32231 24.4291 8.31495 24.4487 8.3076C24.4887 8.29208 24.5279 8.27737 24.5679 8.26185C24.5916 8.25287 24.6153 8.2447 24.639 8.23571C24.675 8.22264 24.7109 8.20957 24.7477 8.1965C24.773 8.18751 24.7983 8.17852 24.8237 8.16954C24.8588 8.15728 24.8939 8.14503 24.929 8.13359C24.9552 8.12461 24.9813 8.11644 25.0066 8.10745C25.041 8.09601 25.0761 8.08458 25.1112 8.07314C25.1374 8.06497 25.1635 8.05598 25.1905 8.04782C25.2256 8.0372 25.2607 8.02576 25.2958 8.01514C25.322 8.00697 25.3481 7.99962 25.3743 7.99145C25.4102 7.98083 25.447 7.97021 25.4829 7.95959C25.5074 7.95223 25.5328 7.94488 25.5573 7.93834C25.5973 7.92691 25.6381 7.91629 25.6782 7.90485C25.6994 7.89913 25.7198 7.89341 25.7411 7.8877C25.8015 7.87217 25.862 7.85665 25.9224 7.84113C25.9412 7.83623 25.9608 7.83214 25.9796 7.82724C26.0221 7.81662 26.0646 7.80682 26.1071 7.79702C26.1332 7.7913 26.1593 7.78558 26.1855 7.77904C26.2206 7.77087 26.2566 7.76352 26.2917 7.75535C26.3203 7.74963 26.3489 7.7431 26.3766 7.73738C26.4101 7.73084 26.4436 7.72349 26.4771 7.71695C26.5065 7.71124 26.536 7.70552 26.5654 7.6998C26.598 7.69326 26.6307 7.68755 26.6634 7.68183C26.6936 7.67611 26.723 7.67121 26.7533 7.66549C26.7859 7.65977 26.8186 7.65405 26.8513 7.64915C26.8815 7.64425 26.9109 7.63935 26.9412 7.63444C26.9738 7.62954 27.0065 7.62464 27.0392 7.61974C27.0694 7.61484 27.0988 7.61075 27.129 7.60667C27.1625 7.60177 27.196 7.59768 27.2287 7.59278C27.2581 7.5887 27.2875 7.58461 27.3169 7.58134C27.3529 7.57644 27.3897 7.57236 27.4264 7.56827C27.4624 7.56419 27.4991 7.5601 27.5351 7.55602C27.5857 7.5503 27.6355 7.5454 27.6862 7.5405C27.7156 7.53805 27.745 7.53559 27.7744 7.53233C27.8079 7.52906 27.8414 7.52661 27.8749 7.52334C27.906 7.52089 27.937 7.51844 27.9672 7.51681C27.9991 7.51435 28.0318 7.5119 28.0636 7.51027C28.0947 7.50864 28.1265 7.50619 28.1576 7.50455C28.1894 7.50292 28.2213 7.50128 28.2532 7.49965C28.2842 7.49802 28.3161 7.49638 28.3471 7.49556C28.379 7.49393 28.4108 7.49311 28.4427 7.4923C28.4737 7.49148 28.5048 7.49066 28.5366 7.48985C28.5693 7.48903 28.6012 7.48821 28.6338 7.48821C28.6649 7.48821 28.6951 7.4874 28.7262 7.48658C28.7597 7.48658 28.7932 7.48658 28.8266 7.48658C28.8561 7.48658 28.8863 7.48658 28.9157 7.48658C28.9516 7.48658 28.9876 7.48658 29.0243 7.48821C29.0513 7.48821 29.0783 7.48821 29.1052 7.48903C29.1591 7.48985 29.2139 7.49148 29.2678 7.49393C29.289 7.49393 29.3111 7.49556 29.3323 7.49638C29.3822 7.49802 29.4312 7.50047 29.481 7.50292C29.5047 7.50373 29.5276 7.50537 29.5513 7.507C29.5913 7.50945 29.6313 7.5119 29.6722 7.51435C29.6975 7.51599 29.722 7.51762 29.7473 7.52007C29.7743 7.52171 29.8013 7.52416 29.8282 7.52661C29.8209 7.5454 29.8143 7.56419 29.807 7.58298C29.7996 7.60258 29.7923 7.62301 29.7849 7.64261C29.7743 7.67202 29.7637 7.70225 29.7531 7.73166C29.7465 7.74963 29.74 7.76842 29.7334 7.78639C29.722 7.81907 29.7106 7.85093 29.7 7.88361C29.6942 7.89913 29.6893 7.91547 29.6836 7.93099C29.6673 7.97919 29.6518 8.02739 29.6362 8.07559C29.401 8.80757 28.816 9.39086 28.0734 9.63594C27.8569 9.70702 27.6429 9.78871 27.433 9.87939C27.0833 10.0305 26.7435 10.2078 26.4175 10.4096C25.5017 10.9774 24.7109 11.7371 24.1015 12.621C24.0721 12.6635 24.0435 12.7052 24.0157 12.7485C23.9593 12.8334 23.9046 12.92 23.8515 13.0074C23.6399 13.3571 23.4553 13.7231 23.3017 14.1021C22.8818 15.1388 21.8328 15.7809 20.7504 15.6633C20.3746 15.6225 19.9906 15.602 19.6108 15.602C18.4025 15.602 17.2188 15.8055 16.0906 16.2074C15.0008 16.5954 13.987 17.1591 13.0777 17.8829C13.0263 17.9246 12.9748 17.9663 12.9233 18.0087C12.907 18.0218 12.8915 18.0357 12.8751 18.0488C12.84 18.0782 12.8049 18.1084 12.7697 18.1386C12.7518 18.1542 12.7346 18.1689 12.7166 18.1844C12.6815 18.2146 12.6472 18.2457 12.6129 18.2759C12.5974 18.2898 12.5818 18.3037 12.5663 18.3175C12.5173 18.3617 12.4691 18.4066 12.4217 18.4515C12.4176 18.4556 12.4135 18.4597 12.4095 18.463C12.3653 18.5046 12.3221 18.5463 12.2788 18.5888C12.2632 18.6043 12.2469 18.6198 12.2314 18.6353C12.1995 18.6664 12.1685 18.6982 12.1374 18.7301C12.1203 18.7473 12.1031 18.7644 12.0868 18.7824C12.0557 18.8151 12.0247 18.8469 11.9936 18.8804C11.9789 18.8959 11.9642 18.9115 11.9495 18.927C11.9054 18.9744 11.8613 19.0217 11.818 19.0699C11.8106 19.0781 11.8033 19.0863 11.7959 19.0953C11.7592 19.1361 11.7232 19.177 11.6873 19.2186C11.6718 19.2366 11.6562 19.2546 11.6415 19.2725C11.6138 19.3052 11.586 19.3379 11.5582 19.3706C11.5419 19.3902 11.5255 19.409 11.51 19.4286C11.4822 19.4621 11.4545 19.4964 11.4275 19.5307C11.4136 19.5479 11.3997 19.5658 11.3858 19.583C11.3458 19.6336 11.3066 19.6835 11.2682 19.7349C11.2592 19.7464 11.2502 19.7586 11.2412 19.7701C11.2102 19.8109 11.18 19.8518 11.1497 19.8926C11.135 19.9122 11.1212 19.9326 11.1064 19.9522C11.0819 19.9865 11.0574 20.02 11.0337 20.0544C11.019 20.0756 11.0043 20.096 10.9896 20.1173C10.9643 20.1532 10.9398 20.1891 10.9153 20.2259C10.903 20.2447 10.89 20.2627 10.8777 20.2815C10.8426 20.3346 10.8074 20.3877 10.7731 20.4416C10.7642 20.4555 10.756 20.4694 10.747 20.4832C10.7209 20.5249 10.6947 20.5666 10.6686 20.6091C10.6555 20.6303 10.6432 20.6507 10.6302 20.672C10.6081 20.7079 10.5869 20.7438 10.5656 20.7806C10.5526 20.8027 10.5403 20.8239 10.5272 20.846C10.5044 20.8852 10.4823 20.9236 10.4602 20.9628C10.4496 20.9808 10.4398 20.9995 10.4292 21.0175C10.3982 21.0739 10.3671 21.1303 10.3369 21.1866C10.3295 21.2005 10.3222 21.2152 10.3148 21.2299C10.292 21.274 10.2691 21.3182 10.2462 21.3623C10.2356 21.3835 10.225 21.4047 10.2144 21.426C10.1947 21.4652 10.176 21.5036 10.1572 21.5428C10.1465 21.5641 10.1367 21.5861 10.1261 21.6073C10.1057 21.6506 10.0853 21.6931 10.0657 21.7364C10.0583 21.7528 10.0501 21.7699 10.0428 21.7863C10.0158 21.8459 9.98969 21.9055 9.96355 21.9652C9.95783 21.9782 9.95212 21.9921 9.9464 22.0052C9.92597 22.0526 9.90637 22.1008 9.88676 22.1482C9.87859 22.1686 9.87042 22.189 9.86225 22.2094C9.85327 22.2315 9.84428 22.2527 9.83611 22.2748L2.00086 3.99989C1.81051 3.55547 1.96083 3.02937 2.35868 2.74916V2.74997ZM41.4402 2.62008L29.9908 29.3356C29.2261 31.119 27.9877 32.5837 26.4093 33.5714C24.9331 34.4945 23.2102 34.9831 21.4268 34.9831C19.6434 34.9831 17.9205 34.4954 16.4443 33.5714C14.8652 32.5837 13.6267 31.119 12.8629 29.3356L10.4431 23.6897C10.4447 23.6848 10.4455 23.6791 10.4472 23.6742C10.4537 23.6489 10.4611 23.6236 10.4676 23.5982C10.4774 23.5615 10.4872 23.5247 10.4978 23.4879C10.5052 23.4626 10.5125 23.4373 10.5207 23.4111C10.5313 23.3752 10.5419 23.3384 10.5534 23.3025C10.5616 23.2772 10.5697 23.251 10.5779 23.2257C10.5893 23.1898 10.6008 23.1546 10.6122 23.1187C10.6204 23.0925 10.6294 23.0672 10.6383 23.0419C10.6506 23.0068 10.662 22.9716 10.6751 22.9365C10.6841 22.9112 10.6939 22.885 10.7029 22.8597C10.716 22.8246 10.7282 22.7903 10.7413 22.756C10.7511 22.7306 10.7609 22.7045 10.7707 22.6792C10.7838 22.6449 10.7976 22.6105 10.8115 22.5762C10.8222 22.5509 10.832 22.5256 10.8426 22.5003C10.8565 22.466 10.8704 22.4325 10.8851 22.3981C10.8957 22.3728 10.9071 22.3475 10.9177 22.3222C10.9324 22.2887 10.9471 22.2552 10.9627 22.2217C10.9741 22.1964 10.9855 22.1719 10.997 22.1465C11.0125 22.113 11.028 22.0804 11.0435 22.0469C11.0558 22.0215 11.0672 21.997 11.0795 21.9717C11.095 21.939 11.1113 21.9063 11.1277 21.8737C11.1399 21.8492 11.153 21.8238 11.1653 21.7993C11.1816 21.7667 11.1988 21.7348 11.2151 21.7021C11.2282 21.6776 11.2412 21.6531 11.2543 21.6286C11.2715 21.5967 11.2886 21.5649 11.3066 21.533C11.3205 21.5085 11.3336 21.484 11.3474 21.4595C11.3654 21.4276 11.3834 21.3966 11.4014 21.3647C11.4153 21.3402 11.4291 21.3165 11.4438 21.292C11.4626 21.261 11.4806 21.2299 11.4994 21.1989C11.5141 21.1752 11.5288 21.1507 11.5435 21.127C11.5623 21.0959 11.5819 21.0657 11.6007 21.0355C11.6154 21.0118 11.6309 20.9881 11.6464 20.9644C11.6661 20.9342 11.6857 20.904 11.7053 20.8737C11.7208 20.85 11.7363 20.8264 11.7526 20.8027C11.7731 20.7733 11.7927 20.743 11.8139 20.7136C11.8303 20.6899 11.8458 20.6671 11.8621 20.6442C11.8825 20.6148 11.9038 20.5854 11.925 20.5568C11.9414 20.5339 11.9585 20.511 11.9749 20.4873C11.9961 20.4587 12.0173 20.4301 12.0394 20.4007C12.0565 20.3779 12.0737 20.355 12.0909 20.3329C12.1129 20.3043 12.135 20.2766 12.157 20.248C12.175 20.2259 12.1922 20.203 12.2101 20.181C12.2322 20.1532 12.2551 20.1254 12.2779 20.0976C12.2959 20.0756 12.3139 20.0535 12.3327 20.0315C12.3555 20.0037 12.3784 19.9767 12.4021 19.9498C12.4209 19.9277 12.4389 19.9065 12.4577 19.8844C12.4814 19.8575 12.505 19.8305 12.5287 19.8036C12.5475 19.7823 12.5663 19.7611 12.5859 19.7398C12.6096 19.7129 12.6341 19.6867 12.6586 19.6606C12.6782 19.6393 12.697 19.6189 12.7166 19.5977C12.7411 19.5715 12.7665 19.5454 12.791 19.5193C12.8106 19.4988 12.8302 19.4784 12.8506 19.458C12.8759 19.4318 12.9013 19.4065 12.9274 19.3812C12.9478 19.3616 12.9674 19.3412 12.9879 19.3216C13.014 19.2962 13.041 19.2709 13.0671 19.2456C13.0875 19.226 13.1071 19.2072 13.1276 19.1876C13.1545 19.1623 13.1823 19.1369 13.2101 19.1116C13.2297 19.0936 13.2501 19.0748 13.2697 19.0569C13.2983 19.0307 13.3285 19.0046 13.3571 18.9793C13.3759 18.9621 13.3955 18.945 13.4143 18.9286C13.447 18.9 13.4797 18.8731 13.5131 18.8453C13.5295 18.8314 13.5458 18.8175 13.5622 18.8036C13.612 18.762 13.6618 18.7211 13.7125 18.6811C14.5335 18.0275 15.4485 17.5186 16.4321 17.1681C17.45 16.8054 18.5193 16.6216 19.6108 16.6216C19.9547 16.6216 20.3019 16.6404 20.6409 16.6771C20.7627 16.6902 20.8836 16.6967 21.0036 16.6967C22.4022 16.6967 23.702 15.8267 24.2444 14.4861C24.7779 13.1684 25.7403 12.0288 26.9526 11.2764C27.4052 10.9953 27.8888 10.7699 28.3904 10.6048C29.441 10.2584 30.2685 9.43089 30.6035 8.39011C30.7211 8.02576 30.8616 7.66059 31.0209 7.30685C31.6957 5.81186 32.7332 4.47861 34.0199 3.45172C34.9202 2.73363 35.9234 2.17403 37.0034 1.78925C38.1201 1.39059 39.2941 1.1888 40.4909 1.1888H40.5129C40.8561 1.1888 41.1616 1.35546 41.3519 1.64547C41.5439 1.93712 41.5766 2.30311 41.4393 2.62335L41.4402 2.62008Z" fill="#8DFF33"/>
<path d="M30.0236 13.6689C28.2411 13.6689 26.791 15.119 26.791 16.9016C26.791 18.6841 28.2411 20.1342 30.0236 20.1342C31.8062 20.1342 33.2563 18.6841 33.2563 16.9016C33.2563 15.119 31.8062 13.6689 30.0236 13.6689ZM30.0236 19.1155C28.8023 19.1155 27.8089 18.1221 27.8089 16.9008C27.8089 15.6794 28.8023 14.686 30.0236 14.686C31.245 14.686 32.2384 15.6794 32.2384 16.9008C32.2384 18.1221 31.245 19.1155 30.0236 19.1155Z" fill="#8DFF33"/>
<path d="M25.9658 25.5889C24.684 25.5889 23.6416 26.6313 23.6416 27.9131C23.6416 29.1948 24.684 30.2372 25.9658 30.2372C27.2476 30.2372 28.29 29.1948 28.29 27.9131C28.29 26.6313 27.2476 25.5889 25.9658 25.5889ZM25.9658 29.2202C25.2452 29.2202 24.6587 28.6336 24.6587 27.9131C24.6587 27.1925 25.2452 26.606 25.9658 26.606C26.6863 26.606 27.2729 27.1925 27.2729 27.9131C27.2729 28.6336 26.6863 29.2202 25.9658 29.2202Z" fill="#8DFF33"/>
<path d="M13.986 14.6632C15.017 14.6632 15.8568 13.8242 15.8568 12.7924C15.8568 11.7606 15.0178 10.9216 13.986 10.9216C12.9542 10.9216 12.1152 11.7606 12.1152 12.7924C12.1152 13.8242 12.9542 14.6632 13.986 14.6632ZM13.986 11.9395C14.4566 11.9395 14.8389 12.3219 14.8389 12.7924C14.8389 13.263 14.4566 13.6453 13.986 13.6453C13.5155 13.6453 13.1331 13.263 13.1331 12.7924C13.1331 12.3219 13.5155 11.9395 13.986 11.9395Z" fill="#8DFF33"/>
<path d="M11.4946 6.80508C11.4946 5.14751 10.1466 3.79956 8.48907 3.79956C7.73667 3.79956 7.02594 4.07405 6.47287 4.57647C6.43611 4.60996 6.39935 4.64427 6.36422 4.68022C5.79645 5.24799 5.48438 6.00284 5.48438 6.80508C5.48438 8.46183 6.83232 9.81059 8.48989 9.81059C9.29294 9.81059 10.047 9.4977 10.6147 8.93075C11.1825 8.36298 11.4946 7.60812 11.4946 6.80589V6.80508ZM9.89502 8.21103C9.51923 8.58682 9.02008 8.7935 8.48907 8.7935C7.39274 8.7935 6.50146 7.90141 6.50146 6.80589C6.50146 6.27488 6.70815 5.77573 7.08394 5.39994C7.45973 5.02415 7.95888 4.81747 8.48989 4.81747C9.58622 4.81747 10.4775 5.70956 10.4775 6.80508C10.4775 7.33608 10.2708 7.83523 9.89502 8.21103Z" fill="#8DFF33"/>
<path d="M22.171 19.8607C21.6327 19.6834 21.0576 19.7251 20.5511 19.9808C18.3412 21.0934 16.4794 22.7608 15.1405 24.8219C15.0522 24.9584 14.9656 25.0956 14.8823 25.2353C14.5899 25.7214 14.5049 26.2916 14.6421 26.8422C14.7794 27.3928 15.1225 27.856 15.6086 28.1485C15.6919 28.1992 15.7785 28.2433 15.8667 28.2808C16.1314 28.3944 16.4133 28.4524 16.6984 28.4524C16.6984 28.4524 16.7008 28.4524 16.7025 28.4524C16.7858 28.4524 16.8691 28.4475 16.9524 28.4369C17.0407 28.4263 17.1281 28.4099 17.2155 28.3887C17.7661 28.2514 18.2293 27.9083 18.5218 27.4222C19.4613 25.8594 20.8231 24.5973 22.4611 23.773C23.5067 23.2469 23.9291 21.9675 23.4022 20.9227C23.1473 20.4162 22.7102 20.0396 22.1719 19.8615L22.171 19.8607ZM22.0028 22.8637C20.1932 23.7754 18.6876 25.1699 17.6493 26.8978C17.4973 27.151 17.2555 27.3299 16.9696 27.401C16.8266 27.437 16.6804 27.4435 16.5391 27.4222C16.535 27.4222 16.5317 27.4206 16.5276 27.4206C16.5137 27.4182 16.4999 27.4157 16.486 27.4133C16.3626 27.3888 16.2442 27.343 16.1331 27.276C15.8798 27.1241 15.7009 26.8822 15.6298 26.5963C15.5587 26.3104 15.6029 26.013 15.7548 25.7598C17.0088 23.6733 18.8257 21.9896 21.0094 20.89C21.0273 20.881 21.0461 20.872 21.0641 20.8647C21.0698 20.8622 21.0763 20.8598 21.0829 20.8573C21.0951 20.8524 21.1082 20.8467 21.1205 20.8426C21.1278 20.8402 21.1352 20.8377 21.1425 20.8345C21.154 20.8304 21.1662 20.8263 21.1776 20.823C21.185 20.8206 21.1924 20.8181 21.2005 20.8165C21.2128 20.8132 21.225 20.81 21.2373 20.8067C21.2446 20.805 21.2512 20.8026 21.2585 20.801C21.2732 20.7977 21.2879 20.7944 21.3026 20.792C21.3075 20.7912 21.3116 20.7903 21.3165 20.7895C21.3361 20.7863 21.3549 20.783 21.3745 20.7814C21.3802 20.7814 21.3868 20.7805 21.3925 20.7797C21.4064 20.7781 21.4203 20.7773 21.4342 20.7765C21.4415 20.7765 21.4489 20.7765 21.4562 20.7756C21.4685 20.7756 21.4815 20.7748 21.4938 20.7748C21.5003 20.7748 21.5069 20.7748 21.5134 20.7748C21.5387 20.7748 21.5649 20.7756 21.5902 20.7781C21.5935 20.7781 21.5959 20.7781 21.5992 20.7789C21.6229 20.7814 21.6466 20.7838 21.6711 20.7879C21.676 20.7879 21.6801 20.7895 21.685 20.7903C21.7103 20.7944 21.7356 20.7993 21.7601 20.8059C21.765 20.8075 21.7707 20.8083 21.7756 20.8099C21.8018 20.8165 21.8271 20.8238 21.8524 20.832C22.1326 20.9243 22.3606 21.1204 22.4929 21.3843C22.7666 21.9283 22.5468 22.5941 22.0028 22.8686V22.8637Z" fill="#8DFF33"/>
</g>
<defs>
<clipPath id="clip0_5852_12143">
<rect width="154.196" height="36" fill="white" transform="translate(0.902344)"/>
</clipPath>
</defs>
</svg>
