<svg width="8166" height="154" viewBox="0 0 8166 154" fill="none" xmlns="http://www.w3.org/2000/svg">
<g clip-path="url(#clip0_5978_130)">
<path d="M63.7 85.96L93.24 133H82.04L53.34 87.22H51.94H24.08V133H14.42V26.6H51.94C74.2 26.6 88.62 38.08 88.62 56.98C88.62 72.24 79.1 82.6 63.7 85.96ZM52.22 35.28H24.08V78.54H52.22C68.32 78.54 78.68 70.84 78.68 56.98C78.68 43.12 68.32 35.28 52.22 35.28ZM122.244 82.32V124.32H180.904V133H112.584V26.6H179.644V35.28H122.244V73.64H178.664V82.32H122.244ZM203.502 26.6H239.482C264.262 26.6 280.082 37.66 280.082 59.08C280.082 80.5 264.262 91.56 239.482 91.56H213.162V133H203.502V26.6ZM213.162 82.88H239.762C258.942 82.88 270.142 75.04 270.142 59.08C270.142 43.12 258.942 35.28 239.762 35.28H213.162V82.88ZM348.759 85.96L378.299 133H367.099L338.399 87.22H336.999H309.139V133H299.479V26.6H336.999C359.259 26.6 373.679 38.08 373.679 56.98C373.679 72.24 364.159 82.6 348.759 85.96ZM337.279 35.28H309.139V78.54H337.279C353.379 78.54 363.739 70.84 363.739 56.98C363.739 43.12 353.379 35.28 337.279 35.28ZM439.949 134.54C410.689 134.54 389.969 112.42 389.969 79.8C389.969 47.18 410.689 25.06 439.949 25.06C469.349 25.06 490.069 47.18 490.069 79.8C490.069 112.42 469.349 134.54 439.949 134.54ZM439.949 126.28C463.469 126.28 479.989 107.1 479.989 79.8C479.989 52.5 463.469 33.32 439.949 33.32C416.569 33.32 399.909 52.5 399.909 79.8C399.909 107.1 416.569 126.28 439.949 126.28ZM512.213 26.6H547.353C579.133 26.6 599.853 45.78 599.853 79.8C599.853 113.82 579.133 133 547.353 133H512.213V26.6ZM521.873 124.32H547.633C573.533 124.32 589.913 108.64 589.913 79.8C589.913 51.1 573.533 35.28 547.633 35.28H521.873V124.32ZM662.172 134.54C633.192 134.54 621.152 118.02 621.152 90.58V90.3V26.6H630.672V90.86V91.14C630.672 114.38 641.172 126.28 662.172 126.28C683.032 126.28 693.392 114.24 693.392 90.86V26.6H703.052V90.3C703.052 117.88 691.152 134.54 662.172 134.54ZM772.406 134.54C745.526 134.54 724.246 112.56 724.246 79.8C724.246 47.18 745.246 25.06 773.106 25.06C797.186 25.06 813.426 40.04 819.166 60.06H809.226C803.626 44.94 792.006 33.32 773.106 33.32C750.566 33.32 734.186 52.5 734.186 79.8C734.186 107.24 751.126 126.28 772.406 126.28C791.866 126.28 804.186 115.92 810.066 99.4H820.006C812.726 122.36 796.346 134.54 772.406 134.54ZM825.16 26.6H907.62V35.28H871.22V133H861.56V35.28H825.16V26.6ZM934.353 133H924.693V26.6H934.353V133ZM999.228 133H989.008L949.808 26.6H960.308L999.228 133ZM1010.43 133H1000.21L1038.99 26.6H1049.63L1010.43 133ZM1074.63 82.32V124.32H1133.29V133H1064.97V26.6H1132.03V35.28H1074.63V73.64H1131.05V82.32H1074.63ZM1264.49 73.64V26.6H1274.01V133H1264.49V82.32H1202.19V133H1192.53V26.6H1202.19V73.64H1264.49ZM1312.65 82.32V124.32H1371.31V133H1302.99V26.6H1370.05V35.28H1312.65V73.64H1369.07V82.32H1312.65ZM1482.67 133H1472.45L1459.43 98.7H1403.57L1390.55 133H1380.19L1420.93 26.6H1431.01L1406.93 90.02H1456.07L1431.85 26.6H1441.93L1482.67 133ZM1507.62 26.6V124.32H1557.32V133H1497.96V26.6H1507.62ZM1545.12 26.6H1627.58V35.28H1591.18V133H1581.52V35.28H1545.12V26.6ZM1716.61 73.64V26.6H1726.13V133H1716.61V82.32H1654.31V133H1644.65V26.6H1654.31V73.64H1716.61Z" fill="#455D30"/>
<path d="M1768.34 123.247C1767.19 122.058 1766.3 120.645 1765.72 119.098C1765.15 117.551 1764.92 115.905 1765.03 114.262C1765.14 112.62 1765.59 111.018 1766.36 109.558C1767.14 108.099 1768.21 106.813 1769.51 105.784C1773.33 103.066 1776.18 102.939 1779.45 102.167C1785.01 100.842 1789.79 96.7067 1788.93 90.6476C1787.5 80.7065 1774.91 84.7266 1774.91 77.0203C1774.91 69.3139 1787.48 73.3343 1788.93 63.4047C1789.79 57.3917 1785.01 53.2447 1779.45 51.8855C1776.18 51.1137 1773.33 50.975 1769.52 48.2565C1768.22 47.2282 1767.14 45.9436 1766.37 44.484C1765.6 43.0244 1765.14 41.422 1765.03 39.779C1764.92 38.1361 1765.16 36.4883 1765.73 34.9413C1766.3 33.3942 1767.2 31.9819 1768.35 30.7937C1769.56 29.6555 1770.99 28.7768 1772.56 28.2142C1774.13 27.6516 1775.8 27.4174 1777.47 27.5258C1779.13 27.6341 1780.76 28.0827 1782.24 28.8436C1783.72 29.6045 1785.02 30.6611 1786.07 31.9456C1788.82 35.7124 1788.96 38.5228 1789.75 41.7482C1791.09 47.2314 1795.29 51.9431 1801.43 51.0907C1811.5 49.6854 1807.44 37.2676 1815.24 37.2676C1823.05 37.2676 1818.98 49.6738 1829.06 51.0907C1835.16 51.9431 1839.36 47.2314 1840.75 41.7482C1841.53 38.5228 1841.66 35.7124 1844.42 31.9456C1845.46 30.6611 1846.77 29.6045 1848.25 28.8436C1849.73 28.0827 1851.35 27.6341 1853.02 27.5258C1854.68 27.4174 1856.35 27.6516 1857.92 28.2142C1859.49 28.7768 1860.92 29.6555 1862.13 30.7937C1863.29 31.9819 1864.18 33.3942 1864.75 34.9413C1865.32 36.4883 1865.56 38.1361 1865.45 39.779C1865.34 41.422 1864.89 43.0244 1864.11 44.484C1863.34 45.9436 1862.27 47.2282 1860.96 48.2565C1857.14 50.975 1854.29 51.1137 1851.03 51.8855C1845.46 53.1987 1840.68 57.3456 1841.54 63.4047C1842.97 73.3343 1855.56 69.3139 1855.56 77.0203C1855.56 84.7266 1842.98 80.7065 1841.54 90.6476C1840.68 96.6607 1845.46 100.796 1851.03 102.109C1854.29 102.892 1857.14 103.019 1860.96 105.738C1862.27 106.766 1863.34 108.051 1864.11 109.51C1864.89 110.97 1865.34 112.572 1865.45 114.215C1865.56 115.858 1865.32 117.506 1864.75 119.053C1864.18 120.6 1863.29 122.013 1862.13 123.201C1860.93 124.341 1859.49 125.221 1857.92 125.784C1856.35 126.348 1854.68 126.583 1853.02 126.474C1851.35 126.366 1849.73 125.917 1848.24 125.155C1846.76 124.393 1845.46 123.335 1844.42 122.049C1841.66 118.282 1841.53 115.472 1840.75 112.246C1839.41 106.763 1835.21 102.052 1829.06 102.904C1818.98 104.31 1823.06 116.727 1815.24 116.727C1807.43 116.727 1811.5 104.321 1801.43 102.904C1795.33 102.052 1791.14 106.763 1789.75 112.257C1788.96 115.471 1788.82 118.282 1786.07 122.049C1785.02 123.335 1783.72 124.393 1782.24 125.155C1780.76 125.917 1779.13 126.366 1777.47 126.474C1775.8 126.583 1774.13 126.348 1772.56 125.784C1770.99 125.221 1769.56 124.341 1768.35 123.201" fill="#455D30"/>
<path d="M1913.56 26.6V124.32H1963.26V133H1903.9V26.6H1913.56ZM2016.34 134.54C1987.08 134.54 1966.36 112.42 1966.36 79.8C1966.36 47.18 1987.08 25.06 2016.34 25.06C2045.74 25.06 2066.46 47.18 2066.46 79.8C2066.46 112.42 2045.74 134.54 2016.34 134.54ZM2016.34 126.28C2039.86 126.28 2056.38 107.1 2056.38 79.8C2056.38 52.5 2039.86 33.32 2016.34 33.32C1992.96 33.32 1976.3 52.5 1976.3 79.8C1976.3 107.1 1992.96 126.28 2016.34 126.28ZM2098.26 133H2088.6V26.6H2098.26V133ZM2166.16 133H2155.52L2099.24 26.6H2109.74L2166.16 133ZM2176.66 133H2167V26.6H2176.66V133ZM2244.56 86.1V77.56H2295.38V133H2286.84V104.16C2282.64 118.72 2270.6 134.54 2247.36 134.54C2219.92 134.54 2198.92 112.28 2198.92 79.8C2198.92 47.18 2219.78 25.06 2247.78 25.06C2272.28 25.06 2288.1 39.06 2293.84 59.08H2283.9C2278.44 44.1 2266.82 33.32 2247.78 33.32C2225.52 33.32 2208.86 52.5 2208.86 79.8C2208.86 107.24 2225.52 126.28 2248.34 126.28C2269.62 126.28 2285.58 111.86 2285.72 86.1H2244.56ZM2330.41 82.32V124.32H2389.07V133H2320.75V26.6H2387.81V35.28H2330.41V73.64H2386.83V82.32H2330.41ZM2447.65 133H2437.43L2398.23 26.6H2408.73L2447.65 133ZM2458.85 133H2448.63L2487.41 26.6H2498.05L2458.85 133ZM2523.05 133H2513.39V26.6H2523.05V133ZM2540.18 26.6H2622.64V35.28H2586.24V133H2576.58V35.28H2540.18V26.6ZM2706.36 26.6H2717.42L2676.26 86.38V133H2666.6V86.38L2625.44 26.6H2636.36L2671.36 77.14L2706.36 26.6Z" fill="#455D30"/>
<path d="M2745.82 123.247C2744.66 122.058 2743.77 120.645 2743.2 119.098C2742.63 117.551 2742.39 115.905 2742.5 114.262C2742.61 112.62 2743.07 111.018 2743.84 109.558C2744.61 108.099 2745.68 106.813 2746.99 105.784C2750.81 103.066 2753.66 102.939 2756.93 102.167C2762.49 100.842 2767.27 96.7067 2766.41 90.6476C2764.98 80.7065 2752.38 84.7266 2752.38 77.0203C2752.38 69.3139 2764.96 73.3343 2766.41 63.4047C2767.27 57.3917 2762.49 53.2447 2756.93 51.8855C2753.66 51.1137 2750.81 50.975 2747 48.2565C2745.69 47.2282 2744.62 45.9436 2743.85 44.484C2743.07 43.0244 2742.62 41.422 2742.51 39.779C2742.4 38.1361 2742.64 36.4883 2743.21 34.9413C2743.78 33.3942 2744.67 31.9819 2745.83 30.7937C2747.04 29.6555 2748.47 28.7768 2750.04 28.2142C2751.61 27.6516 2753.28 27.4174 2754.94 27.5258C2756.61 27.6341 2758.23 28.0827 2759.71 28.8436C2761.19 29.6045 2762.5 30.6611 2763.54 31.9456C2766.3 35.7124 2766.44 38.5228 2767.22 41.7482C2768.57 47.2314 2772.76 51.9431 2778.91 51.0907C2788.98 49.6854 2784.91 37.2676 2792.72 37.2676C2800.52 37.2676 2796.46 49.6738 2806.54 51.0907C2812.64 51.9431 2816.84 47.2314 2818.23 41.7482C2819.01 38.5228 2819.14 35.7124 2821.89 31.9456C2822.94 30.6611 2824.24 29.6045 2825.72 28.8436C2827.2 28.0827 2828.83 27.6341 2830.49 27.5258C2832.16 27.4174 2833.83 27.6516 2835.4 28.2142C2836.97 28.7768 2838.4 29.6555 2839.61 30.7937C2840.76 31.9819 2841.66 33.3942 2842.23 34.9413C2842.8 36.4883 2843.04 38.1361 2842.93 39.779C2842.82 41.422 2842.36 43.0244 2841.59 44.484C2840.82 45.9436 2839.74 47.2282 2838.44 48.2565C2834.62 50.975 2831.77 51.1137 2828.51 51.8855C2822.93 53.1987 2818.16 57.3456 2819.02 63.4047C2820.45 73.3343 2833.04 69.3139 2833.04 77.0203C2833.04 84.7266 2820.46 80.7065 2819.02 90.6476C2818.16 96.6607 2822.93 100.796 2828.51 102.109C2831.77 102.892 2834.62 103.019 2838.44 105.738C2839.74 106.766 2840.82 108.051 2841.59 109.51C2842.36 110.97 2842.82 112.572 2842.93 114.215C2843.04 115.858 2842.8 117.506 2842.23 119.053C2841.66 120.6 2840.76 122.013 2839.61 123.201C2838.4 124.341 2836.97 125.221 2835.4 125.784C2833.83 126.348 2832.16 126.583 2830.49 126.474C2828.83 126.366 2827.2 125.917 2825.72 125.155C2824.24 124.393 2822.94 123.335 2821.89 122.049C2819.14 118.282 2819.01 115.472 2818.23 112.246C2816.88 106.763 2812.69 102.052 2806.54 102.904C2796.46 104.31 2800.54 116.727 2792.72 116.727C2784.9 116.727 2788.98 104.321 2778.91 102.904C2772.81 102.052 2768.61 106.763 2767.22 112.257C2766.44 115.471 2766.3 118.282 2763.54 122.049C2762.5 123.335 2761.2 124.393 2759.72 125.155C2758.24 125.917 2756.61 126.366 2754.94 126.474C2753.28 126.583 2751.61 126.348 2750.04 125.784C2748.47 125.221 2747.03 124.341 2745.83 123.201" fill="#455D30"/>
<path d="M2913.86 134.54C2892.02 134.54 2876.06 121.66 2873.12 101.5H2883.06C2885.3 117.32 2898.04 126.28 2913.86 126.28C2934.02 126.28 2945.64 116.76 2945.64 103.18C2945.64 91 2936.68 86.94 2917.36 82.6L2905.18 79.94C2889.36 76.44 2876.48 69.3 2876.48 53.2C2876.48 37.38 2892.3 25.06 2913.44 25.06C2934.72 25.06 2950.12 36.26 2952.92 53.9H2942.98C2940.04 40.18 2928.42 33.32 2913.44 33.32C2897.62 33.32 2886.28 41.16 2886.28 52.36C2886.28 63.84 2894.4 67.9 2911.76 71.68L2924.08 74.48C2946.2 79.38 2955.44 86.94 2955.44 102.2C2955.44 121.1 2939.2 134.54 2913.86 134.54ZM3041.12 26.6H3052.18L3011.02 86.38V133H3001.36V86.38L2960.2 26.6H2971.12L3006.12 77.14L3041.12 26.6ZM3076.43 133H3066.77V26.6H3076.43V133ZM3144.33 133H3133.69L3077.41 26.6H3087.91L3144.33 133ZM3154.83 133H3145.17V26.6H3154.83V133ZM3230.84 77.98C3249.88 78.96 3260.66 88.2 3260.66 104.02C3260.66 122.5 3246.38 133 3221.18 133H3183.66V26.6H3221.18C3245.12 26.6 3256.74 38.36 3256.74 53.62C3256.74 67.9 3245.96 76.02 3230.84 77.98ZM3246.8 54.46C3246.8 42 3237.14 35.28 3221.18 35.28H3193.32V73.64H3221.18C3237.14 73.64 3246.8 67.06 3246.8 54.46ZM3193.32 124.32H3221.32C3241.06 124.32 3250.58 116.62 3250.58 103.32C3250.58 90.02 3241.06 82.32 3221.32 82.32H3193.32V124.32ZM3292.3 133H3282.64V26.6H3292.3V133ZM3364.6 134.54C3335.34 134.54 3314.62 112.42 3314.62 79.8C3314.62 47.18 3335.34 25.06 3364.6 25.06C3394 25.06 3414.72 47.18 3414.72 79.8C3414.72 112.42 3394 134.54 3364.6 134.54ZM3364.6 126.28C3388.12 126.28 3404.64 107.1 3404.64 79.8C3404.64 52.5 3388.12 33.32 3364.6 33.32C3341.22 33.32 3324.56 52.5 3324.56 79.8C3324.56 107.1 3341.22 126.28 3364.6 126.28Z" fill="#455D30"/>
<path d="M3450.3 123.247C3449.14 122.058 3448.25 120.645 3447.68 119.098C3447.11 117.551 3446.87 115.905 3446.98 114.262C3447.09 112.62 3447.55 111.018 3448.32 109.558C3449.09 108.099 3450.16 106.813 3451.46 105.784C3455.29 103.066 3458.14 102.939 3461.41 102.167C3466.97 100.842 3471.75 96.7067 3470.88 90.6476C3469.46 80.7065 3456.86 84.7266 3456.86 77.0203C3456.86 69.3139 3469.43 73.3343 3470.88 63.4047C3471.75 57.3917 3466.97 53.2447 3461.41 51.8855C3458.14 51.1137 3455.29 50.975 3451.48 48.2565C3450.17 47.2282 3449.1 45.9436 3448.33 44.484C3447.55 43.0244 3447.1 41.422 3446.99 39.779C3446.88 38.1361 3447.12 36.4883 3447.69 34.9413C3448.26 33.3942 3449.15 31.9819 3450.31 30.7937C3451.51 29.6555 3452.95 28.7768 3454.52 28.2142C3456.09 27.6516 3457.76 27.4174 3459.42 27.5258C3461.09 27.6341 3462.71 28.0827 3464.19 28.8436C3465.67 29.6045 3466.98 30.6611 3468.02 31.9456C3470.78 35.7124 3470.92 38.5228 3471.7 41.7482C3473.05 47.2314 3477.24 51.9431 3483.39 51.0907C3493.46 49.6854 3489.39 37.2676 3497.2 37.2676C3505 37.2676 3500.94 49.6738 3511.02 51.0907C3517.12 51.9431 3521.31 47.2314 3522.7 41.7482C3523.49 38.5228 3523.61 35.7124 3526.37 31.9456C3527.42 30.6611 3528.72 29.6045 3530.2 28.8436C3531.68 28.0827 3533.31 27.6341 3534.97 27.5258C3536.64 27.4174 3538.31 27.6516 3539.88 28.2142C3541.45 28.7768 3542.88 29.6555 3544.09 30.7937C3545.24 31.9819 3546.13 33.3942 3546.71 34.9413C3547.28 36.4883 3547.52 38.1361 3547.41 39.779C3547.3 41.422 3546.84 43.0244 3546.07 44.484C3545.3 45.9436 3544.22 47.2282 3542.92 48.2565C3539.1 50.975 3536.25 51.1137 3532.99 51.8855C3527.41 53.1987 3522.63 57.3456 3523.5 63.4047C3524.92 73.3343 3537.52 69.3139 3537.52 77.0203C3537.52 84.7266 3524.94 80.7065 3523.5 90.6476C3522.63 96.6607 3527.41 100.796 3532.99 102.109C3536.25 102.892 3539.1 103.019 3542.92 105.738C3544.22 106.766 3545.3 108.051 3546.07 109.51C3546.84 110.97 3547.3 112.572 3547.41 114.215C3547.52 115.858 3547.28 117.506 3546.71 119.053C3546.13 120.6 3545.24 122.013 3544.09 123.201C3542.88 124.341 3541.45 125.221 3539.88 125.784C3538.31 126.348 3536.64 126.583 3534.97 126.474C3533.31 126.366 3531.68 125.917 3530.2 125.155C3528.72 124.393 3527.42 123.335 3526.37 122.049C3523.61 118.282 3523.49 115.472 3522.7 112.246C3521.36 106.763 3517.17 102.052 3511.02 102.904C3500.94 104.31 3505.01 116.727 3497.2 116.727C3489.38 116.727 3493.46 104.321 3483.39 102.904C3477.29 102.052 3473.09 106.763 3471.7 112.257C3470.92 115.471 3470.78 118.282 3468.02 122.049C3466.98 123.335 3465.68 124.393 3464.19 125.155C3462.71 125.917 3461.09 126.366 3459.42 126.474C3457.76 126.583 3456.08 126.348 3454.51 125.784C3452.95 125.221 3451.51 124.341 3450.31 123.201" fill="#455D30"/>
<path d="M3585.85 26.6H3621.83C3646.61 26.6 3662.43 37.66 3662.43 59.08C3662.43 80.5 3646.61 91.56 3621.83 91.56H3595.51V133H3585.85V26.6ZM3595.51 82.88H3622.11C3641.29 82.88 3652.49 75.04 3652.49 59.08C3652.49 43.12 3641.29 35.28 3622.11 35.28H3595.51V82.88ZM3714.31 134.54C3692.47 134.54 3676.51 121.66 3673.57 101.5H3683.51C3685.75 117.32 3698.49 126.28 3714.31 126.28C3734.47 126.28 3746.09 116.76 3746.09 103.18C3746.09 91 3737.13 86.94 3717.81 82.6L3705.63 79.94C3689.81 76.44 3676.93 69.3 3676.93 53.2C3676.93 37.38 3692.75 25.06 3713.89 25.06C3735.17 25.06 3750.57 36.26 3753.37 53.9H3743.43C3740.49 40.18 3728.87 33.32 3713.89 33.32C3698.07 33.32 3686.73 41.16 3686.73 52.36C3686.73 63.84 3694.85 67.9 3712.21 71.68L3724.53 74.48C3746.65 79.38 3755.89 86.94 3755.89 102.2C3755.89 121.1 3739.65 134.54 3714.31 134.54ZM3841.58 26.6H3852.64L3811.48 86.38V133H3801.82V86.38L3760.66 26.6H3771.58L3806.58 77.14L3841.58 26.6ZM3903.33 134.54C3876.45 134.54 3855.17 112.56 3855.17 79.8C3855.17 47.18 3876.17 25.06 3904.03 25.06C3928.11 25.06 3944.35 40.04 3950.09 60.06H3940.15C3934.55 44.94 3922.93 33.32 3904.03 33.32C3881.49 33.32 3865.11 52.5 3865.11 79.8C3865.11 107.24 3882.05 126.28 3903.33 126.28C3922.79 126.28 3935.11 115.92 3940.99 99.4H3950.93C3943.65 122.36 3927.27 134.54 3903.33 134.54ZM4042.54 73.64V26.6H4052.06V133H4042.54V82.32H3980.24V133H3970.58V26.6H3980.24V73.64H4042.54ZM4090.71 82.32V124.32H4149.37V133H4081.05V26.6H4148.11V35.28H4090.71V73.64H4147.13V82.32H4090.71ZM4171.97 26.6H4207.11C4238.89 26.6 4259.61 45.78 4259.61 79.8C4259.61 113.82 4238.89 133 4207.11 133H4171.97V26.6ZM4181.63 124.32H4207.39C4233.29 124.32 4249.67 108.64 4249.67 79.8C4249.67 51.1 4233.29 35.28 4207.39 35.28H4181.63V124.32ZM4291.69 82.32V124.32H4350.35V133H4282.03V26.6H4349.09V35.28H4291.69V73.64H4348.11V82.32H4291.69ZM4382.6 26.6V124.32H4432.3V133H4372.94V26.6H4382.6ZM4459.03 133H4449.37V26.6H4459.03V133ZM4529.5 134.54C4502.62 134.54 4481.34 112.56 4481.34 79.8C4481.34 47.18 4502.34 25.06 4530.2 25.06C4554.28 25.06 4570.52 40.04 4576.26 60.06H4566.32C4560.72 44.94 4549.1 33.32 4530.2 33.32C4507.66 33.32 4491.28 52.5 4491.28 79.8C4491.28 107.24 4508.22 126.28 4529.5 126.28C4548.96 126.28 4561.28 115.92 4567.16 99.4H4577.1C4569.82 122.36 4553.44 134.54 4529.5 134.54ZM4629.23 134.54C4607.39 134.54 4591.43 121.66 4588.49 101.5H4598.43C4600.67 117.32 4613.41 126.28 4629.23 126.28C4649.39 126.28 4661.01 116.76 4661.01 103.18C4661.01 91 4652.05 86.94 4632.73 82.6L4620.55 79.94C4604.73 76.44 4591.85 69.3 4591.85 53.2C4591.85 37.38 4607.67 25.06 4628.81 25.06C4650.09 25.06 4665.49 36.26 4668.29 53.9H4658.35C4655.41 40.18 4643.79 33.32 4628.81 33.32C4612.99 33.32 4601.65 41.16 4601.65 52.36C4601.65 63.84 4609.77 67.9 4627.13 71.68L4639.45 74.48C4661.57 79.38 4670.81 86.94 4670.81 102.2C4670.81 121.1 4654.57 134.54 4629.23 134.54Z" fill="#455D30"/>
<path d="M4705.77 123.247C4704.62 122.058 4703.73 120.645 4703.16 119.098C4702.59 117.551 4702.35 115.905 4702.46 114.262C4702.57 112.62 4703.03 111.018 4703.8 109.558C4704.57 108.099 4705.64 106.813 4706.94 105.784C4710.76 103.066 4713.61 102.939 4716.89 102.167C4722.45 100.842 4727.23 96.7067 4726.36 90.6476C4724.94 80.7065 4712.34 84.7266 4712.34 77.0203C4712.34 69.3139 4724.91 73.3343 4726.36 63.4047C4727.23 57.3917 4722.45 53.2447 4716.89 51.8855C4713.61 51.1137 4710.76 50.975 4706.95 48.2565C4705.65 47.2282 4704.58 45.9436 4703.8 44.484C4703.03 43.0244 4702.58 41.422 4702.47 39.779C4702.36 38.1361 4702.59 36.4883 4703.17 34.9413C4703.74 33.3942 4704.63 31.9819 4705.79 30.7937C4706.99 29.6555 4708.43 28.7768 4709.99 28.2142C4711.56 27.6516 4713.23 27.4174 4714.9 27.5258C4716.57 27.6341 4718.19 28.0827 4719.67 28.8436C4721.15 29.6045 4722.46 30.6611 4723.5 31.9456C4726.26 35.7124 4726.4 38.5228 4727.18 41.7482C4728.52 47.2314 4732.72 51.9431 4738.86 51.0907C4748.94 49.6854 4744.87 37.2676 4752.68 37.2676C4760.48 37.2676 4756.41 49.6738 4766.5 51.0907C4772.6 51.9431 4776.79 47.2314 4778.18 41.7482C4778.97 38.5228 4779.09 35.7124 4781.85 31.9456C4782.9 30.6611 4784.2 29.6045 4785.68 28.8436C4787.16 28.0827 4788.78 27.6341 4790.45 27.5258C4792.12 27.4174 4793.79 27.6516 4795.36 28.2142C4796.93 28.7768 4798.36 29.6555 4799.56 30.7937C4800.72 31.9819 4801.61 33.3942 4802.19 34.9413C4802.76 36.4883 4803 38.1361 4802.89 39.779C4802.78 41.422 4802.32 43.0244 4801.55 44.484C4800.77 45.9436 4799.7 47.2282 4798.4 48.2565C4794.58 50.975 4791.72 51.1137 4788.46 51.8855C4782.89 53.1987 4778.11 57.3456 4778.98 63.4047C4780.4 73.3343 4793 69.3139 4793 77.0203C4793 84.7266 4780.41 80.7065 4778.98 90.6476C4778.11 96.6607 4782.89 100.796 4788.46 102.109C4791.72 102.892 4794.58 103.019 4798.4 105.738C4799.7 106.766 4800.77 108.051 4801.55 109.51C4802.32 110.97 4802.78 112.572 4802.89 114.215C4803 115.858 4802.76 117.506 4802.19 119.053C4801.61 120.6 4800.72 122.013 4799.56 123.201C4798.36 124.341 4796.93 125.221 4795.36 125.784C4793.79 126.348 4792.12 126.583 4790.45 126.474C4788.78 126.366 4787.16 125.917 4785.68 125.155C4784.2 124.393 4782.89 123.335 4781.85 122.049C4779.09 118.282 4778.97 115.472 4778.18 112.246C4776.84 106.763 4772.64 102.052 4766.5 102.904C4756.41 104.31 4760.49 116.727 4752.68 116.727C4744.86 116.727 4748.94 104.321 4738.86 102.904C4732.77 102.052 4728.57 106.763 4727.18 112.257C4726.4 115.471 4726.26 118.282 4723.5 122.049C4722.46 123.335 4721.15 124.393 4719.67 125.155C4718.19 125.917 4716.57 126.366 4714.9 126.474C4713.23 126.583 4711.56 126.348 4709.99 125.784C4708.42 125.221 4706.99 124.341 4705.79 123.201" fill="#455D30"/>
<path d="M4882.91 134.54C4856.03 134.54 4834.75 112.56 4834.75 79.8C4834.75 47.18 4855.75 25.06 4883.61 25.06C4907.69 25.06 4923.93 40.04 4929.67 60.06H4919.73C4914.13 44.94 4902.51 33.32 4883.61 33.32C4861.07 33.32 4844.69 52.5 4844.69 79.8C4844.69 107.24 4861.63 126.28 4882.91 126.28C4902.37 126.28 4914.69 115.92 4920.57 99.4H4930.51C4923.23 122.36 4906.85 134.54 4882.91 134.54ZM4999.44 85.96L5028.98 133H5017.78L4989.08 87.22H4987.68H4959.82V133H4950.16V26.6H4987.68C5009.94 26.6 5024.36 38.08 5024.36 56.98C5024.36 72.24 5014.84 82.6 4999.44 85.96ZM4987.96 35.28H4959.82V78.54H4987.96C5004.06 78.54 5014.42 70.84 5014.42 56.98C5014.42 43.12 5004.06 35.28 4987.96 35.28ZM5112.36 26.6H5123.42L5082.26 86.38V133H5072.6V86.38L5031.44 26.6H5042.36L5077.36 77.14L5112.36 26.6ZM5175.94 134.54C5146.68 134.54 5125.96 112.42 5125.96 79.8C5125.96 47.18 5146.68 25.06 5175.94 25.06C5205.34 25.06 5226.06 47.18 5226.06 79.8C5226.06 112.42 5205.34 134.54 5175.94 134.54ZM5175.94 126.28C5199.46 126.28 5215.98 107.1 5215.98 79.8C5215.98 52.5 5199.46 33.32 5175.94 33.32C5152.56 33.32 5135.9 52.5 5135.9 79.8C5135.9 107.1 5152.56 126.28 5175.94 126.28ZM5287.27 86.1V77.56H5338.09V133H5329.55V104.16C5325.35 118.72 5313.31 134.54 5290.07 134.54C5262.63 134.54 5241.63 112.28 5241.63 79.8C5241.63 47.18 5262.49 25.06 5290.49 25.06C5314.99 25.06 5330.81 39.06 5336.55 59.08H5326.61C5321.15 44.1 5309.53 33.32 5290.49 33.32C5268.23 33.32 5251.57 52.5 5251.57 79.8C5251.57 107.24 5268.23 126.28 5291.05 126.28C5312.33 126.28 5328.29 111.86 5328.43 86.1H5287.27ZM5373.12 82.32V124.32H5431.78V133H5363.46V26.6H5430.52V35.28H5373.12V73.64H5429.54V82.32H5373.12ZM5464.04 133H5454.38V26.6H5464.04V133ZM5531.94 133H5521.3L5465.02 26.6H5475.52L5531.94 133ZM5542.44 133H5532.78V26.6H5542.44V133ZM5580.93 133H5571.27V26.6H5580.93V133ZM5651.41 134.54C5624.53 134.54 5603.25 112.56 5603.25 79.8C5603.25 47.18 5624.25 25.06 5652.11 25.06C5676.19 25.06 5692.43 40.04 5698.17 60.06H5688.23C5682.63 44.94 5671.01 33.32 5652.11 33.32C5629.57 33.32 5613.19 52.5 5613.19 79.8C5613.19 107.24 5630.13 126.28 5651.41 126.28C5670.87 126.28 5683.19 115.92 5689.07 99.4H5699.01C5691.73 122.36 5675.35 134.54 5651.41 134.54ZM5751.13 134.54C5729.29 134.54 5713.33 121.66 5710.39 101.5H5720.33C5722.57 117.32 5735.31 126.28 5751.13 126.28C5771.29 126.28 5782.91 116.76 5782.91 103.18C5782.91 91 5773.95 86.94 5754.63 82.6L5742.45 79.94C5726.63 76.44 5713.75 69.3 5713.75 53.2C5713.75 37.38 5729.57 25.06 5750.71 25.06C5771.99 25.06 5787.39 36.26 5790.19 53.9H5780.25C5777.31 40.18 5765.69 33.32 5750.71 33.32C5734.89 33.32 5723.55 41.16 5723.55 52.36C5723.55 63.84 5731.67 67.9 5749.03 71.68L5761.35 74.48C5783.47 79.38 5792.71 86.94 5792.71 102.2C5792.71 121.1 5776.47 134.54 5751.13 134.54Z" fill="#455D30"/>
<path d="M5827.25 123.247C5826.1 122.058 5825.21 120.645 5824.64 119.098C5824.06 117.551 5823.83 115.905 5823.94 114.262C5824.05 112.62 5824.5 111.018 5825.27 109.558C5826.05 108.099 5827.12 106.813 5828.42 105.784C5832.24 103.066 5835.09 102.939 5838.36 102.167C5843.92 100.842 5848.7 96.7067 5847.84 90.6476C5846.41 80.7065 5833.82 84.7266 5833.82 77.0203C5833.82 69.3139 5846.39 73.3343 5847.84 63.4047C5848.7 57.3917 5843.92 53.2447 5838.36 51.8855C5835.09 51.1137 5832.24 50.975 5828.43 48.2565C5827.13 47.2282 5826.05 45.9436 5825.28 44.484C5824.51 43.0244 5824.05 41.422 5823.94 39.779C5823.83 38.1361 5824.07 36.4883 5824.64 34.9413C5825.21 33.3942 5826.11 31.9819 5827.26 30.7937C5828.47 29.6555 5829.9 28.7768 5831.47 28.2142C5833.04 27.6516 5834.71 27.4174 5836.38 27.5258C5838.04 27.6341 5839.67 28.0827 5841.15 28.8436C5842.63 29.6045 5843.93 30.6611 5844.98 31.9456C5847.73 35.7124 5847.87 38.5228 5848.66 41.7482C5850 47.2314 5854.2 51.9431 5860.34 51.0907C5870.41 49.6854 5866.35 37.2676 5874.15 37.2676C5881.96 37.2676 5877.89 49.6738 5887.97 51.0907C5894.07 51.9431 5898.27 47.2314 5899.66 41.7482C5900.44 38.5228 5900.57 35.7124 5903.33 31.9456C5904.37 30.6611 5905.68 29.6045 5907.16 28.8436C5908.64 28.0827 5910.26 27.6341 5911.93 27.5258C5913.59 27.4174 5915.26 27.6516 5916.83 28.2142C5918.4 28.7768 5919.84 29.6555 5921.04 30.7937C5922.2 31.9819 5923.09 33.3942 5923.66 34.9413C5924.23 36.4883 5924.47 38.1361 5924.36 39.779C5924.25 41.422 5923.8 43.0244 5923.02 44.484C5922.25 45.9436 5921.18 47.2282 5919.87 48.2565C5916.05 50.975 5913.2 51.1137 5909.94 51.8855C5904.37 53.1987 5899.59 57.3456 5900.45 63.4047C5901.88 73.3343 5914.47 69.3139 5914.47 77.0203C5914.47 84.7266 5901.89 80.7065 5900.45 90.6476C5899.59 96.6607 5904.37 100.796 5909.94 102.109C5913.2 102.892 5916.05 103.019 5919.87 105.738C5921.18 106.766 5922.25 108.051 5923.02 109.51C5923.8 110.97 5924.25 112.572 5924.36 114.215C5924.47 115.858 5924.23 117.506 5923.66 119.053C5923.09 120.6 5922.2 122.013 5921.04 123.201C5919.84 124.341 5918.4 125.221 5916.83 125.784C5915.26 126.348 5913.59 126.583 5911.93 126.474C5910.26 126.366 5908.64 125.917 5907.15 125.155C5905.67 124.393 5904.37 123.335 5903.33 122.049C5900.57 118.282 5900.44 115.472 5899.66 112.246C5898.32 106.763 5894.12 102.052 5887.97 102.904C5877.89 104.31 5881.97 116.727 5874.15 116.727C5866.34 116.727 5870.41 104.321 5860.34 102.904C5854.24 102.052 5850.05 106.763 5848.66 112.257C5847.87 115.471 5847.73 118.282 5844.98 122.049C5843.93 123.335 5842.63 124.393 5841.15 125.155C5839.67 125.917 5838.04 126.366 5836.38 126.474C5834.71 126.583 5833.04 126.348 5831.47 125.784C5829.9 125.221 5828.47 124.341 5827.26 123.201" fill="#455D30"/>
<path d="M6034.77 73.64V26.6H6044.29V133H6034.77V82.32H5972.47V133H5962.81V26.6H5972.47V73.64H6034.77ZM6162.04 133H6151.82L6138.8 98.7H6082.94L6069.92 133H6059.56L6100.3 26.6H6110.38L6086.3 90.02H6135.44L6111.22 26.6H6121.3L6162.04 133ZM6186.98 133H6177.32V26.6H6186.98V133ZM6265.15 85.96L6294.69 133H6283.49L6254.79 87.22H6253.39H6225.53V133H6215.87V26.6H6253.39C6275.65 26.6 6290.07 38.08 6290.07 56.98C6290.07 72.24 6280.55 82.6 6265.15 85.96ZM6253.67 35.28H6225.53V78.54H6253.67C6269.77 78.54 6280.13 70.84 6280.13 56.98C6280.13 43.12 6269.77 35.28 6253.67 35.28ZM6360.34 26.6V124.32H6410.04V133H6350.68V26.6H6360.34ZM6463.12 134.54C6433.86 134.54 6413.14 112.42 6413.14 79.8C6413.14 47.18 6433.86 25.06 6463.12 25.06C6492.52 25.06 6513.24 47.18 6513.24 79.8C6513.24 112.42 6492.52 134.54 6463.12 134.54ZM6463.12 126.28C6486.64 126.28 6503.16 107.1 6503.16 79.8C6503.16 52.5 6486.64 33.32 6463.12 33.32C6439.74 33.32 6423.08 52.5 6423.08 79.8C6423.08 107.1 6439.74 126.28 6463.12 126.28ZM6567.86 134.54C6546.02 134.54 6530.06 121.66 6527.12 101.5H6537.06C6539.3 117.32 6552.04 126.28 6567.86 126.28C6588.02 126.28 6599.64 116.76 6599.64 103.18C6599.64 91 6590.68 86.94 6571.36 82.6L6559.18 79.94C6543.36 76.44 6530.48 69.3 6530.48 53.2C6530.48 37.38 6546.3 25.06 6567.44 25.06C6588.72 25.06 6604.12 36.26 6606.92 53.9H6596.98C6594.04 40.18 6582.42 33.32 6567.44 33.32C6551.62 33.32 6540.28 41.16 6540.28 52.36C6540.28 63.84 6548.4 67.9 6565.76 71.68L6578.08 74.48C6600.2 79.38 6609.44 86.94 6609.44 102.2C6609.44 121.1 6593.2 134.54 6567.86 134.54ZM6663.29 134.54C6641.45 134.54 6625.49 121.66 6622.55 101.5H6632.49C6634.73 117.32 6647.47 126.28 6663.29 126.28C6683.45 126.28 6695.07 116.76 6695.07 103.18C6695.07 91 6686.11 86.94 6666.79 82.6L6654.61 79.94C6638.79 76.44 6625.91 69.3 6625.91 53.2C6625.91 37.38 6641.73 25.06 6662.87 25.06C6684.15 25.06 6699.55 36.26 6702.35 53.9H6692.41C6689.47 40.18 6677.85 33.32 6662.87 33.32C6647.05 33.32 6635.71 41.16 6635.71 52.36C6635.71 63.84 6643.83 67.9 6661.19 71.68L6673.51 74.48C6695.63 79.38 6704.87 86.94 6704.87 102.2C6704.87 121.1 6688.63 134.54 6663.29 134.54Z" fill="#455D30"/>
<path d="M6739.73 123.247C6738.57 122.058 6737.68 120.645 6737.11 119.098C6736.54 117.551 6736.3 115.905 6736.41 114.262C6736.52 112.62 6736.98 111.018 6737.75 109.558C6738.52 108.099 6739.59 106.813 6740.9 105.784C6744.72 103.066 6747.57 102.939 6750.84 102.167C6756.4 100.842 6761.18 96.7067 6760.32 90.6476C6758.89 80.7065 6746.29 84.7266 6746.29 77.0203C6746.29 69.3139 6758.87 73.3343 6760.32 63.4047C6761.18 57.3917 6756.4 53.2447 6750.84 51.8855C6747.57 51.1137 6744.72 50.975 6740.91 48.2565C6739.6 47.2282 6738.53 45.9436 6737.76 44.484C6736.98 43.0244 6736.53 41.422 6736.42 39.779C6736.31 38.1361 6736.55 36.4883 6737.12 34.9413C6737.69 33.3942 6738.58 31.9819 6739.74 30.7937C6740.95 29.6555 6742.38 28.7768 6743.95 28.2142C6745.52 27.6516 6747.19 27.4174 6748.85 27.5258C6750.52 27.6341 6752.14 28.0827 6753.62 28.8436C6755.1 29.6045 6756.41 30.6611 6757.45 31.9456C6760.21 35.7124 6760.35 38.5228 6761.13 41.7482C6762.48 47.2314 6766.67 51.9431 6772.82 51.0907C6782.89 49.6854 6778.82 37.2676 6786.63 37.2676C6794.43 37.2676 6790.37 49.6738 6800.45 51.0907C6806.55 51.9431 6810.75 47.2314 6812.14 41.7482C6812.92 38.5228 6813.05 35.7124 6815.8 31.9456C6816.85 30.6611 6818.15 29.6045 6819.63 28.8436C6821.11 28.0827 6822.74 27.6341 6824.4 27.5258C6826.07 27.4174 6827.74 27.6516 6829.31 28.2142C6830.88 28.7768 6832.31 29.6555 6833.52 30.7937C6834.67 31.9819 6835.57 33.3942 6836.14 34.9413C6836.71 36.4883 6836.95 38.1361 6836.84 39.779C6836.73 41.422 6836.27 43.0244 6835.5 44.484C6834.73 45.9436 6833.65 47.2282 6832.35 48.2565C6828.53 50.975 6825.68 51.1137 6822.42 51.8855C6816.84 53.1987 6812.07 57.3456 6812.93 63.4047C6814.36 73.3343 6826.95 69.3139 6826.95 77.0203C6826.95 84.7266 6814.37 80.7065 6812.93 90.6476C6812.07 96.6607 6816.84 100.796 6822.42 102.109C6825.68 102.892 6828.53 103.019 6832.35 105.738C6833.65 106.766 6834.73 108.051 6835.5 109.51C6836.27 110.97 6836.73 112.572 6836.84 114.215C6836.95 115.858 6836.71 117.506 6836.14 119.053C6835.57 120.6 6834.67 122.013 6833.52 123.201C6832.31 124.341 6830.88 125.221 6829.31 125.784C6827.74 126.348 6826.07 126.583 6824.4 126.474C6822.74 126.366 6821.11 125.917 6819.63 125.155C6818.15 124.393 6816.85 123.335 6815.8 122.049C6813.05 118.282 6812.92 115.472 6812.14 112.246C6810.79 106.763 6806.6 102.052 6800.45 102.904C6790.37 104.31 6794.45 116.727 6786.63 116.727C6778.81 116.727 6782.89 104.321 6772.82 102.904C6766.72 102.052 6762.52 106.763 6761.13 112.257C6760.35 115.471 6760.21 118.282 6757.45 122.049C6756.41 123.335 6755.11 124.393 6753.63 125.155C6752.15 125.917 6750.52 126.366 6748.85 126.474C6747.19 126.583 6745.52 126.348 6743.95 125.784C6742.38 125.221 6740.94 124.341 6739.74 123.201" fill="#455D30"/>
<path d="M6884.95 133H6875.29V26.6H6884.95V133ZM6952.85 133H6942.21L6885.93 26.6H6896.43L6952.85 133ZM6963.35 133H6953.69V26.6H6963.35V133ZM7001.84 82.32V124.32H7060.5V133H6992.18V26.6H7059.24V35.28H7001.84V73.64H7058.26V82.32H7001.84ZM7123 134.54C7094.02 134.54 7081.98 118.02 7081.98 90.58V90.3V26.6H7091.5V90.86V91.14C7091.5 114.38 7102 126.28 7123 126.28C7143.86 126.28 7154.22 114.24 7154.22 90.86V26.6H7163.88V90.3C7163.88 117.88 7151.98 134.54 7123 134.54ZM7240.93 85.96L7270.47 133H7259.27L7230.57 87.22H7229.17H7201.31V133H7191.65V26.6H7229.17C7251.43 26.6 7265.85 38.08 7265.85 56.98C7265.85 72.24 7256.33 82.6 7240.93 85.96ZM7229.45 35.28H7201.31V78.54H7229.45C7245.55 78.54 7255.91 70.84 7255.91 56.98C7255.91 43.12 7245.55 35.28 7229.45 35.28ZM7332.12 134.54C7302.86 134.54 7282.14 112.42 7282.14 79.8C7282.14 47.18 7302.86 25.06 7332.12 25.06C7361.52 25.06 7382.24 47.18 7382.24 79.8C7382.24 112.42 7361.52 134.54 7332.12 134.54ZM7332.12 126.28C7355.64 126.28 7372.16 107.1 7372.16 79.8C7372.16 52.5 7355.64 33.32 7332.12 33.32C7308.74 33.32 7292.08 52.5 7292.08 79.8C7292.08 107.1 7308.74 126.28 7332.12 126.28ZM7436.87 134.54C7415.03 134.54 7399.07 121.66 7396.13 101.5H7406.07C7408.31 117.32 7421.05 126.28 7436.87 126.28C7457.03 126.28 7468.65 116.76 7468.65 103.18C7468.65 91 7459.69 86.94 7440.37 82.6L7428.19 79.94C7412.37 76.44 7399.49 69.3 7399.49 53.2C7399.49 37.38 7415.31 25.06 7436.45 25.06C7457.73 25.06 7473.13 36.26 7475.93 53.9H7465.99C7463.05 40.18 7451.43 33.32 7436.45 33.32C7420.63 33.32 7409.29 41.16 7409.29 52.36C7409.29 63.84 7417.41 67.9 7434.77 71.68L7447.09 74.48C7469.21 79.38 7478.45 86.94 7478.45 102.2C7478.45 121.1 7462.21 134.54 7436.87 134.54ZM7541.4 134.54C7514.52 134.54 7493.24 112.56 7493.24 79.8C7493.24 47.18 7514.24 25.06 7542.1 25.06C7566.18 25.06 7582.42 40.04 7588.16 60.06H7578.22C7572.62 44.94 7561 33.32 7542.1 33.32C7519.56 33.32 7503.18 52.5 7503.18 79.8C7503.18 107.24 7520.12 126.28 7541.4 126.28C7560.86 126.28 7573.18 115.92 7579.06 99.4H7589C7581.72 122.36 7565.34 134.54 7541.4 134.54ZM7618.3 133H7608.64V26.6H7618.3V133ZM7656.86 82.32V124.32H7715.52V133H7647.2V26.6H7714.26V35.28H7656.86V73.64H7713.28V82.32H7656.86ZM7747.78 133H7738.12V26.6H7747.78V133ZM7815.68 133H7805.04L7748.76 26.6H7759.26L7815.68 133ZM7826.18 133H7816.52V26.6H7826.18V133ZM7896.59 134.54C7869.71 134.54 7848.43 112.56 7848.43 79.8C7848.43 47.18 7869.43 25.06 7897.29 25.06C7921.37 25.06 7937.61 40.04 7943.35 60.06H7933.41C7927.81 44.94 7916.19 33.32 7897.29 33.32C7874.75 33.32 7858.37 52.5 7858.37 79.8C7858.37 107.24 7875.31 126.28 7896.59 126.28C7916.05 126.28 7928.37 115.92 7934.25 99.4H7944.19C7936.91 122.36 7920.53 134.54 7896.59 134.54ZM7973.5 82.32V124.32H8032.16V133H7963.84V26.6H8030.9V35.28H7973.5V73.64H8029.92V82.32H7973.5Z" fill="#455D30"/>
<path d="M8068.21 123.247C8067.05 122.058 8066.16 120.645 8065.59 119.098C8065.02 117.551 8064.78 115.905 8064.89 114.262C8065 112.62 8065.46 111.018 8066.23 109.558C8067 108.099 8068.07 106.813 8069.37 105.784C8073.2 103.066 8076.05 102.939 8079.32 102.167C8084.88 100.842 8089.66 96.7067 8088.79 90.6476C8087.37 80.7065 8074.77 84.7266 8074.77 77.0203C8074.77 69.3139 8087.35 73.3343 8088.79 63.4047C8089.66 57.3917 8084.88 53.2447 8079.32 51.8855C8076.05 51.1137 8073.2 50.975 8069.39 48.2565C8068.08 47.2282 8067.01 45.9436 8066.24 44.484C8065.46 43.0244 8065.01 41.422 8064.9 39.779C8064.79 38.1361 8065.03 36.4883 8065.6 34.9413C8066.17 33.3942 8067.06 31.9819 8068.22 30.7937C8069.42 29.6555 8070.86 28.7768 8072.43 28.2142C8074 27.6516 8075.67 27.4174 8077.33 27.5258C8079 27.6341 8080.62 28.0827 8082.1 28.8436C8083.58 29.6045 8084.89 30.6611 8085.93 31.9456C8088.69 35.7124 8088.83 38.5228 8089.61 41.7482C8090.96 47.2314 8095.15 51.9431 8101.3 51.0907C8111.37 49.6854 8107.3 37.2676 8115.11 37.2676C8122.91 37.2676 8118.85 49.6738 8128.93 51.0907C8135.03 51.9431 8139.22 47.2314 8140.61 41.7482C8141.4 38.5228 8141.53 35.7124 8144.28 31.9456C8145.33 30.6611 8146.63 29.6045 8148.11 28.8436C8149.59 28.0827 8151.22 27.6341 8152.88 27.5258C8154.55 27.4174 8156.22 27.6516 8157.79 28.2142C8159.36 28.7768 8160.79 29.6555 8162 30.7937C8163.15 31.9819 8164.05 33.3942 8164.62 34.9413C8165.19 36.4883 8165.43 38.1361 8165.32 39.779C8165.21 41.422 8164.75 43.0244 8163.98 44.484C8163.21 45.9436 8162.13 47.2282 8160.83 48.2565C8157.01 50.975 8154.16 51.1137 8150.9 51.8855C8145.32 53.1987 8140.54 57.3456 8141.41 63.4047C8142.83 73.3343 8155.43 69.3139 8155.43 77.0203C8155.43 84.7266 8142.85 80.7065 8141.41 90.6476C8140.54 96.6607 8145.32 100.796 8150.9 102.109C8154.16 102.892 8157.01 103.019 8160.83 105.738C8162.13 106.766 8163.21 108.051 8163.98 109.51C8164.75 110.97 8165.21 112.572 8165.32 114.215C8165.43 115.858 8165.19 117.506 8164.62 119.053C8164.05 120.6 8163.15 122.013 8162 123.201C8160.79 124.341 8159.36 125.221 8157.79 125.784C8156.22 126.348 8154.55 126.583 8152.88 126.474C8151.22 126.366 8149.59 125.917 8148.11 125.155C8146.63 124.393 8145.33 123.335 8144.28 122.049C8141.53 118.282 8141.4 115.472 8140.61 112.246C8139.27 106.763 8135.08 102.052 8128.93 102.904C8118.85 104.31 8122.92 116.727 8115.11 116.727C8107.29 116.727 8111.37 104.321 8101.3 102.904C8095.2 102.052 8091 106.763 8089.61 112.257C8088.83 115.471 8088.69 118.282 8085.93 122.049C8084.89 123.335 8083.59 124.393 8082.1 125.155C8080.62 125.917 8079 126.366 8077.33 126.474C8075.67 126.583 8073.99 126.348 8072.43 125.784C8070.86 125.221 8069.42 124.341 8068.22 123.201" fill="#455D30"/>
</g>
<defs>
<clipPath id="clip0_5978_130">
<rect width="8165.34" height="154" fill="white"/>
</clipPath>
</defs>
</svg>
