<svg width="306" height="80" viewBox="0 0 306 80" fill="none" xmlns="http://www.w3.org/2000/svg">
<g clip-path="url(#clip0_7727_5274)">
<g clip-path="url(#clip1_7727_5274)">
<path d="M202.34 48.3196V53.2295H199.256V53.0168C199.256 46.783 199.256 41.6903 199.256 35.4565C199.256 34.1201 199.822 33.1116 200.914 32.4059C201.443 32.0631 202.043 31.9504 202.665 31.9504C204.779 31.9554 206.892 31.9379 209.005 31.978C210.161 32.0005 211.249 32.3308 212.186 33.0616C213.276 33.9099 213.817 35.1036 214.023 36.4976C214.087 36.933 214.106 37.3734 214.104 37.8139C214.094 39.5432 214.116 41.2724 214.087 42.9992C214.07 43.9777 213.857 44.9211 213.381 45.7895C212.892 46.6879 212.184 47.3336 211.275 47.7615C210.352 48.1969 209.37 48.3146 208.366 48.3146C206.446 48.3146 204.524 48.3146 202.604 48.3146C202.528 48.3146 202.45 48.3146 202.342 48.3146L202.34 48.3196ZM202.342 45.279C202.425 45.284 202.477 45.2865 202.528 45.2865C204.482 45.2865 206.434 45.2915 208.388 45.284C208.783 45.284 209.179 45.2615 209.569 45.2014C210.257 45.0988 210.8 44.5382 210.908 43.835C210.964 43.4596 211.004 43.0767 211.006 42.6989C211.018 41.1097 211.023 39.5231 211.009 37.934C211.004 37.4035 210.962 36.8704 210.889 36.3474C210.798 35.6867 210.433 35.2438 209.767 35.1137C209.498 35.0611 209.221 35.0085 208.947 35.006C206.877 34.991 204.808 34.9885 202.739 34.981C202.403 34.981 202.337 35.0511 202.337 35.4014C202.337 38.6172 202.337 41.833 202.337 45.0487C202.337 45.1188 202.337 45.1889 202.337 45.279H202.342Z" fill="#8DFF33"/>
<path d="M220.468 34.9835V31.9529C220.554 31.9529 220.63 31.9529 220.706 31.9529C223.449 31.9529 226.191 31.9529 228.937 31.9529C229.762 31.9529 230.58 32.0179 231.373 32.2707C233.227 32.8588 234.415 34.1001 234.824 36.052C234.941 36.6101 234.988 37.1957 234.993 37.7688C235.01 40.1237 234.998 42.4786 235 44.836C235 46.31 234.322 47.356 233.063 48.0267C232.622 48.2619 232.135 48.322 231.64 48.322C229.174 48.322 226.706 48.3145 224.24 48.3245C222.369 48.332 220.789 47.0257 220.314 45.324C220.006 44.2178 220.138 43.1367 220.721 42.1232C221.21 41.2723 221.992 40.6392 222.895 40.2888C225.822 39.1502 228.746 38.0015 231.67 36.8629C231.824 36.8028 231.873 36.7402 231.838 36.5651C231.753 36.1371 231.672 35.7167 231.314 35.4164C231.028 35.1762 230.688 35.0861 230.335 35.051C229.901 35.0085 229.463 34.986 229.027 34.986C226.265 34.981 223.503 34.9835 220.74 34.9835H220.468ZM231.914 40.1412C231.814 40.1787 231.748 40.2013 231.682 40.2263C230.286 40.7743 228.888 41.3199 227.492 41.8705C226.24 42.3635 224.987 42.8565 223.735 43.3495C223.503 43.442 223.297 43.5747 223.282 43.855C223.265 44.1553 223.26 44.4581 223.285 44.7559C223.312 45.0637 223.444 45.1938 223.745 45.2464C223.921 45.2764 224.103 45.2889 224.281 45.2889C226.698 45.2914 229.113 45.2889 231.53 45.2889C231.743 45.2889 231.914 45.1137 231.914 44.896C231.914 43.387 231.914 41.878 231.914 40.3689V40.1412Z" fill="#8DFF33"/>
<path d="M170.548 45.289V48.3045C170.497 48.3095 170.453 48.3195 170.411 48.3195C167.412 48.317 164.409 48.3346 161.409 48.2995C160.266 48.287 159.174 47.9892 158.204 47.3235C157.161 46.6103 156.494 45.6243 156.23 44.3805C156.1 43.7699 156.029 43.1343 156.022 42.5111C156 40.7343 155.995 38.955 156.037 37.1757C156.068 35.7918 156.482 34.528 157.437 33.502C157.974 32.9264 158.637 32.541 159.374 32.2908C160.349 31.9604 161.365 31.9254 162.389 31.9654C163.704 32.0155 165.024 32.0455 166.336 31.9629C168.06 31.8528 169.378 32.5335 170.252 33.95C170.825 34.8809 171.004 36.0246 170.72 37.0856C170.333 38.5321 169.439 39.4681 168.149 39.9711C165.215 41.1172 162.284 42.2684 159.35 43.4121C159.198 43.4721 159.152 43.5347 159.176 43.7074C159.242 44.1528 159.352 44.5707 159.71 44.871C160.033 45.1413 160.435 45.2089 160.834 45.2389C161.194 45.2664 161.551 45.284 161.911 45.284C164.698 45.289 167.485 45.284 170.269 45.284H170.541L170.548 45.289ZM159.098 40.1387C159.188 40.1062 159.247 40.0837 159.306 40.0612C160.773 39.4856 162.242 38.91 163.709 38.3319C164.894 37.8664 166.079 37.3985 167.267 36.933C167.576 36.8129 167.754 36.6051 167.749 36.2548C167.749 36.0771 167.757 35.9019 167.749 35.7243C167.722 35.1887 167.563 35.0285 167.047 34.9935C167.022 34.9935 166.995 34.991 166.971 34.991C165.19 34.991 163.413 34.986 161.632 34.991C161.324 34.991 161.018 35.0185 160.709 35.0461C159.778 35.1236 159.296 35.5891 159.193 36.5351C159.144 36.9905 159.112 37.4485 159.103 37.9065C159.088 38.6397 159.098 39.373 159.098 40.1362V40.1387Z" fill="#8DFF33"/>
<path d="M197.755 40.1236C197.755 41.1347 197.785 42.1457 197.748 43.1542C197.701 44.4881 197.307 45.7068 196.406 46.7128C195.899 47.2784 195.277 47.6613 194.584 47.9216C193.842 48.1993 193.053 48.3195 192.262 48.317C190.943 48.317 189.623 48.342 188.305 48.2994C187.154 48.2619 186.057 47.9716 185.085 47.2984C184.225 46.7028 183.638 45.8995 183.292 44.9035C183.035 44.1577 182.937 43.387 182.937 42.6012C182.937 40.8819 182.932 39.1627 182.945 37.4434C182.949 36.6101 183.099 35.8017 183.425 35.031C183.924 33.8473 184.771 33.0239 185.92 32.5084C186.875 32.0805 187.884 31.9553 188.91 31.9528C190.169 31.9503 191.43 31.9303 192.686 31.9779C193.996 32.0254 195.206 32.4183 196.19 33.3468C196.781 33.9048 197.185 34.593 197.439 35.3738C197.697 36.1621 197.77 36.9754 197.775 37.7988C197.78 38.5721 197.775 39.3478 197.775 40.1211C197.768 40.1211 197.76 40.1211 197.75 40.1211L197.755 40.1236ZM194.665 40.1437C194.665 40.1437 194.684 40.1437 194.694 40.1437C194.694 39.4404 194.702 38.7397 194.694 38.0365C194.684 37.3483 194.689 36.6551 194.479 35.9869C194.349 35.5715 194.004 35.2587 193.585 35.1611C193.205 35.071 192.809 35.0084 192.419 35.0009C191.168 34.9759 189.914 34.9809 188.663 34.9859C188.31 34.9859 187.957 35.0159 187.605 35.046C186.731 35.1236 186.263 35.5565 186.126 36.4449C186.067 36.8328 186.03 37.2282 186.028 37.6186C186.018 39.2903 186.015 40.9645 186.028 42.6362C186.03 43.0666 186.072 43.5021 186.14 43.9275C186.248 44.5907 186.608 45.0436 187.286 45.1613C187.622 45.2188 187.96 45.2714 188.298 45.2739C189.564 45.2889 190.827 45.2889 192.094 45.2789C192.478 45.2764 192.865 45.2538 193.244 45.1963C194.033 45.0737 194.4 44.7183 194.56 43.95C194.613 43.6873 194.653 43.417 194.655 43.1517C194.667 42.1482 194.66 41.1447 194.66 40.1412L194.665 40.1437Z" fill="#8DFF33"/>
<path d="M143.917 48.3096C143.856 48.3146 143.812 48.3196 143.768 48.3196C140.599 48.3171 137.433 48.3321 134.264 48.3021C133.13 48.2921 132.055 47.9843 131.112 47.2986C130.287 46.698 129.753 45.8847 129.427 44.9162C129.158 44.1179 129.087 43.2895 129.087 42.4537C129.087 39.0352 129.087 35.6167 129.087 32.1957V31.968H132.17C132.17 32.0531 132.17 32.1357 132.17 32.2183C132.17 35.5266 132.165 38.8325 132.175 42.1408C132.175 42.6914 132.209 43.242 132.278 43.7875C132.403 44.8086 132.927 45.1339 133.835 45.234C134.161 45.269 134.489 45.284 134.817 45.284C136.764 45.289 138.711 45.284 140.658 45.284C140.709 45.284 140.761 45.284 140.834 45.284V31.968H143.92V48.3096H143.917Z" fill="#8DFF33"/>
<path d="M127.598 31.9528V34.9834H127.324C124.471 34.9834 121.618 34.9759 118.765 34.9884C118.214 34.9884 117.661 35.0335 117.117 35.1135C116.456 35.2136 116.069 35.6541 115.978 36.3223C115.905 36.8603 115.861 37.4059 115.856 37.9464C115.841 39.548 115.851 41.1497 115.856 42.7513C115.858 43.2969 115.89 43.8424 116.091 44.3579C116.235 44.7283 116.492 45.0011 116.87 45.0862C117.293 45.1838 117.729 45.2714 118.16 45.2739C121.219 45.2914 124.277 45.2864 127.336 45.2864C127.419 45.2864 127.5 45.2864 127.596 45.2864V48.2994C127.547 48.3044 127.498 48.317 127.449 48.317C124.365 48.317 121.28 48.327 118.197 48.2994C117.207 48.2894 116.25 48.0617 115.366 47.5737C114.1 46.873 113.297 45.8019 112.978 44.378C112.849 43.8024 112.785 43.1993 112.778 42.6062C112.753 40.8218 112.753 39.035 112.782 37.2507C112.8 36.2697 113.03 35.3288 113.529 34.4729C114.058 33.5695 114.808 32.9263 115.746 32.5059C116.718 32.0705 117.746 31.9503 118.794 31.9503C121.655 31.9478 124.512 31.9503 127.373 31.9503C127.441 31.9503 127.512 31.9503 127.596 31.9503L127.598 31.9528Z" fill="#8DFF33"/>
<path d="M181.434 34.9837H175.424C175.424 35.0813 175.424 35.1513 175.424 35.2239C175.424 37.5538 175.417 39.8836 175.429 42.2135C175.432 42.7616 175.466 43.3171 175.542 43.8602C175.637 44.5484 176.156 45.0939 176.827 45.1965C177.266 45.2641 177.711 45.2816 178.155 45.2866C179.168 45.2991 180.185 45.2891 181.201 45.2891C181.277 45.2891 181.35 45.2891 181.436 45.2891V48.3072C181.385 48.3122 181.341 48.3197 181.299 48.3197C180.111 48.3172 178.921 48.3422 177.733 48.3022C176.656 48.2671 175.62 48.0194 174.69 47.4288C173.492 46.6705 172.77 45.5694 172.51 44.1655C172.407 43.6149 172.351 43.0468 172.348 42.4863C172.336 37.0407 172.341 32.7339 172.341 27.2883C172.341 27.2183 172.341 27.1482 172.341 27.0681H175.419V31.9556H181.434V34.9862V34.9837Z" fill="#8DFF33"/>
<path d="M148.506 48.3121H145.44C145.435 48.262 145.423 48.212 145.423 48.1619C145.423 44.5082 145.413 40.852 145.44 37.1983C145.45 36.0496 145.783 34.9761 146.469 34.0376C146.978 33.3419 147.639 32.8514 148.411 32.506C149.346 32.0856 150.336 31.963 151.345 31.9555C152.354 31.948 153.362 31.9555 154.371 31.9555C154.415 31.9555 154.46 31.963 154.513 31.9705V34.9861C154.425 34.9861 154.344 34.9861 154.264 34.9861C153.108 34.9886 151.952 34.9861 150.794 35.0011C150.461 35.0061 150.127 35.0461 149.799 35.1037C149.123 35.2213 148.719 35.6492 148.631 36.3349C148.555 36.9255 148.511 37.5236 148.509 38.1167C148.497 41.4226 148.504 44.731 148.504 48.0368C148.504 48.1219 148.504 48.2045 148.504 48.3121H148.506Z" fill="#8DFF33"/>
<path d="M218.666 31.9705H215.61V48.3121H218.666V31.9705Z" fill="#8DFF33"/>
<path d="M218.666 27.043H215.605V30.1586H218.666V27.043Z" fill="#8DFF33"/>
<path d="M92.4765 24.6233C92.3393 24.5707 92.1875 24.6383 92.1336 24.7784C92.0798 24.9161 92.1459 25.0737 92.2806 25.1288C97.6901 27.3961 101.185 32.7115 101.185 38.6725C101.185 42.8518 99.4606 46.6281 96.7008 49.2983C94.5629 51.3654 91.181 51.2703 89.1803 49.0606C89.1681 49.0456 89.1534 49.033 89.1411 49.018C88.5485 48.3649 88.4799 47.3814 88.9746 46.6506C90.6154 44.2257 91.6757 41.5204 90.1966 38.3597C89.8464 37.6089 89.4105 36.8982 88.9869 36.2125C88.0783 34.736 87.2188 33.3396 87.1796 31.6003C87.1747 31.4277 87.0351 31.2875 86.8661 31.2875C86.6947 31.2875 86.5576 31.4277 86.5502 31.6003C86.489 33.2045 87.0351 34.5583 87.6767 35.8396C87.7257 35.9372 87.831 36.1425 87.9559 36.3827C88.2547 36.9608 87.8457 37.6565 87.2065 37.6565H86.6947C86.4841 37.6565 86.2735 37.8292 86.2515 38.0419C86.227 38.2996 86.4229 38.5149 86.6702 38.5149H87.7379C88.5534 38.5149 89.2709 39.0879 89.4399 39.9038C89.5428 40.4018 89.5868 40.9198 89.5403 41.4629C89.533 41.5379 89.5158 41.6656 89.4889 41.8182C89.3811 42.4188 88.8669 42.8518 88.2693 42.8518H87.0988C86.8882 42.8518 86.6776 43.0244 86.6555 43.2372C86.6311 43.4949 86.827 43.7101 87.0743 43.7101H87.5788C88.1396 43.7101 88.4775 44.3558 88.1591 44.8263C88.0269 45.0215 87.8873 45.2142 87.7428 45.4069C87.2996 45.995 86.4303 45.9925 85.9797 45.4069C85.1617 44.3508 84.9169 43.8628 84.5814 43.037C84.2263 42.1711 84.8507 41.2151 85.7691 41.2151H87.9216C88.1322 41.2151 88.3428 41.0424 88.3649 40.8297C88.3893 40.572 88.1934 40.3567 87.9461 40.3567H85.7666C84.885 40.3567 84.2532 39.4658 84.552 38.6175C84.7601 38.0269 85.0393 37.4288 85.3699 36.7931C86.2637 35.0864 86.1927 34.9713 86.1046 34.8286C86.0458 34.7335 85.9405 34.6735 85.8303 34.676C85.6123 34.681 85.5242 34.8361 85.2915 35.2966C84.9879 35.8972 84.7258 36.3026 84.4736 36.693C84.1822 37.1435 83.8785 37.6089 83.5308 38.3547C82.0517 41.5129 83.1121 44.2207 84.7528 46.6456C85.2475 47.3789 85.1789 48.3599 84.5863 49.013C84.574 49.028 84.5593 49.0406 84.5471 49.0556C82.5464 51.2628 79.1669 51.3579 77.0266 49.2908C74.2668 46.6231 72.5428 42.8468 72.5428 38.665C72.5428 32.7115 76.0324 27.3986 81.4321 25.1288C81.5546 25.0787 81.6329 24.9461 81.606 24.8159C81.5717 24.6483 81.4003 24.5607 81.2509 24.6182C75.1214 27.0007 71 33.0944 71 39.7862C71 48.7252 78.1164 56.0001 86.8661 56.0001C95.6159 56.0001 102.732 48.7277 102.732 39.7862C102.732 33.0919 98.6109 26.9982 92.4765 24.6208V24.6233ZM84.8091 51.9986C85.2254 51.3879 85.6417 50.8474 85.9919 50.422C86.44 49.8739 87.2653 49.8814 87.6988 50.442C88.0318 50.8699 88.431 51.408 88.835 52.0111C89.1656 52.5016 88.8546 53.1722 88.2767 53.2298C87.8114 53.2774 87.3412 53.3024 86.8637 53.3024C86.3568 53.3024 85.8548 53.2749 85.3626 53.2198C84.7846 53.1572 84.4761 52.4866 84.8091 51.9986Z" fill="#8DFF33"/>
<path d="M86.7804 24C87.3339 24.0075 88.5877 27.0381 88.6146 28.3569C88.6269 28.9801 85.1299 29.0602 85.1177 28.437C85.0907 27.1207 86.227 23.9925 86.7804 24Z" fill="#8DFF33"/>
</g>
<rect x="233.56" y="-1" width="41.2144" height="17.12" rx="6" transform="rotate(30 233.56 -1)" fill="#C9A1DF"/>
<path d="M255.465 26.4085L261.333 19.6533L262.923 20.5713L256.783 27.5575L253.759 25.8115L256.967 17.5903L251.452 24.4795L248.428 22.7335L251.408 13.9233L252.998 14.8413L250.082 23.3005L255.669 16.3833L258.662 18.1113L255.465 26.4085Z" fill="#253119"/>
<path d="M244.073 15.7298L242.921 17.7251L246.807 19.9691L246.015 21.3409L240.487 18.1489L245.047 10.2507L250.482 13.3887L249.69 14.7605L245.897 12.5705L244.865 14.358L248.585 16.506L247.793 17.8778L244.073 15.7298Z" fill="#253119"/>
<path d="M237.264 15.9281L241.668 8.30011L243.3 9.24211L238.74 17.1403L235.57 15.3103L237.366 6.17631L232.962 13.8043L231.33 12.8623L235.89 4.96411L239.07 6.80011L237.264 15.9281Z" fill="#253119"/>
</g>
<defs>
<clipPath id="clip0_7727_5274">
<path d="M0 6C0 2.68629 2.68629 0 6 0H300C303.314 0 306 2.68629 306 6V74C306 77.3137 303.314 80 300 80H6C2.68629 80 0 77.3137 0 74V6Z" fill="white"/>
</clipPath>
<clipPath id="clip1_7727_5274">
<rect width="164" height="32" fill="white" transform="translate(71 24)"/>
</clipPath>
</defs>
</svg>
