<?xml version="1.0" encoding="UTF-8"?>
<svg id="Layer_1" xmlns="http://www.w3.org/2000/svg" version="1.1" viewBox="0 0 50 50">
  <!-- Generator: Adobe Illustrator 29.0.1, SVG Export Plug-In . SVG Version: 2.1.0 Build 192)  -->
  <defs>
    <style>
      .st0, .st1 {
        fill: none;
        stroke: #8dff33;
        stroke-linecap: round;
        stroke-linejoin: round;
      }

      .st1 {
        stroke-width: .5px;
      }
    </style>
  </defs>
  <path class="st0" d="M-25,6.8c-.8-.6-1.9-.7-3.1-.2h0c-1.3.5-36.3,15.5-37.7,16.1-.3,0-2.5.9-2.3,2.8.2,1.7,2,2.4,2.2,2.5l12.1,4.6c.6,2-.2,7.5.3,9.1,0,1.1-.4,2.5.4,2.8.8.3,2.5,0,3-.4l5.4-5,8.8,6.8h.2c.6.4,1.2.5,1.7.5s.8,0,1.2-.2c1.3-.5,1.8-1.8,1.9-1.9l6.6-34.1c.4-1.8-.2-2.7-.7-3.2ZM-56.9,31.2l24.8-17.9-17.8,20.3-2.2,10.5"/>
  <path class="st1" d="M47.7,3.8c-.9-.8-1.8-.5-2.6-.2L3,19.5c-1.6.6-2.4,2.5-1.8,4.1.4,1,1.3,1.7,2.3,1.9l10.9,2.2v13.5c0,1.7,1.4,3.1,3.1,3.1.8,0,1.6-.3,2.2-.9l6.1-6.1,9.2,8.1c.6.5,1.3.8,2.1.8.3,0,.7,0,1-.2,1.1-.3,1.9-1.2,2.1-2.3L48.3,6.3c.2-1,0-2-.6-2.5h0ZM26,37.3l-11.5-9.5L46.9,3.4"/>
</svg>