<svg width="149" height="30" viewBox="0 0 149 30" fill="none" xmlns="http://www.w3.org/2000/svg">
<path d="M21.7558 5.05807L23.0122 0.509939C20.6182 -0.150722 18.0928 -0.169761 15.6892 0.454728C13.2855 1.07922 11.0884 2.32527 9.31814 4.06783C7.54791 5.81039 6.26689 7.98818 5.60365 10.3826C4.94041 12.777 4.91828 15.3039 5.53947 17.7096L0.989258 18.8909C1.61142 21.2978 2.85581 23.4985 4.59738 25.2718C6.33896 27.0451 8.51634 28.3284 10.9107 28.9929C13.3051 29.6574 15.8321 29.6796 18.2378 29.0573C20.6434 28.4349 22.843 27.19 24.6154 25.4476L27.9276 28.8122C29.6998 27.0671 30.9815 24.8857 31.6436 22.4876C32.3057 20.0895 32.3248 17.5593 31.6992 15.1514C31.0736 12.7435 29.8252 10.543 28.0797 8.77114C26.3342 6.9993 24.153 5.71866 21.7558 5.05807ZM27.0823 21.2235C26.6458 22.8147 25.7972 24.2623 24.6223 25.42L21.3124 22.0578C20.133 23.2198 18.6689 24.0509 17.067 24.4678C15.465 24.8846 13.7817 24.8725 12.1859 24.4327C10.5901 23.9928 9.13806 23.1407 7.97548 21.9618C6.8129 20.783 5.98071 19.3189 5.56243 17.7165L10.1126 16.5329C9.69588 14.9291 9.7085 13.2437 10.1492 11.6463C10.59 10.0489 11.4433 8.59569 12.6234 7.43289C13.8034 6.27009 15.2687 5.43865 16.8718 5.02217C18.4749 4.6057 20.1594 4.61887 21.7558 5.06036L20.4993 9.60849C21.6945 9.93783 22.8131 10.4996 23.7912 11.2616C24.7693 12.0237 25.5877 12.9711 26.1997 14.0498C26.8116 15.1285 27.2052 16.3172 27.3578 17.5481C27.5105 18.779 27.4192 20.0279 27.0892 21.2235H27.0823Z" fill="#D7F9C0"/>
<path d="M41.7256 14.3956C41.6904 11.8124 42.5503 9.62686 44.3051 7.83886C46.06 6.05087 48.252 5.17449 50.8812 5.20973C52.9117 5.20973 54.652 5.70844 56.1021 6.70586C57.5021 7.63711 58.5299 9.0316 59.0054 10.645L55.5601 11.9802C54.7209 9.5809 53.1444 8.38123 50.8307 8.38123C49.2397 8.38123 47.9909 8.90982 47.0844 9.96699C46.1779 11.0242 45.7246 12.5004 45.7246 14.3956C45.7246 16.3077 46.1733 17.7923 47.0706 18.8495C47.9679 19.9067 49.2213 20.4353 50.8307 20.4353C53.1781 20.4353 54.786 19.2272 55.6542 16.811L59.0238 18.1715C58.373 19.932 57.3585 21.2848 55.9804 22.2301C54.6022 23.1755 52.8872 23.6451 50.8353 23.6389C48.1203 23.6389 45.9237 22.7748 44.2454 21.0466C42.5671 19.3183 41.7272 17.1013 41.7256 14.3956Z" fill="#D7F9C0"/>
<path d="M60.5742 23.2299V13.9406C60.5742 13.5136 60.6603 13.0909 60.8272 12.6979C60.9941 12.3048 61.2385 11.9495 61.5457 11.653C61.8529 11.3566 62.2167 11.1251 62.6153 10.9724C63.0139 10.8198 63.4392 10.7491 63.8657 10.7645L69.2268 10.9599L69.1142 14.0072L64.146 13.8073V23.2299H60.5742Z" fill="#D7F9C0"/>
<path d="M80.2175 10.645H83.9661L78.7199 25.2178C78.3524 26.2413 77.8663 26.9836 77.2614 27.4448C76.6565 27.9059 75.8266 28.1358 74.7715 28.1342H71.0229V25.2937H74.2938C74.6475 25.3188 74.9977 25.2096 75.2746 24.988C75.5717 24.6576 75.7914 24.265 75.9177 23.8389L76.1474 23.1862L70.0605 10.6519H73.8849L75.9728 15.4597C76.6083 16.9918 77.1282 18.1578 77.5324 18.9575C77.7836 18.2359 78.1939 16.9857 78.7636 15.2069L80.2175 10.645Z" fill="#D7F9C0"/>
<path d="M84.6455 16.9443C84.6455 14.9663 85.2657 13.3576 86.506 12.1181C87.7464 10.8786 89.3312 10.2658 91.2606 10.2796C93.2054 10.2796 94.7941 10.8924 96.0268 12.1181C97.2594 13.3438 97.8758 14.9525 97.8758 16.9443C97.8758 18.9575 97.2633 20.577 96.0383 21.8027C94.8132 23.0284 93.2207 23.6412 91.2606 23.6412C89.3664 23.6412 87.79 23.0077 86.5313 21.7406C85.2726 20.4736 84.644 18.8748 84.6455 16.9443ZM93.3738 19.8262C93.8868 19.1812 94.1425 18.2374 94.141 16.9949C94.1395 15.7523 93.8837 14.7917 93.3738 14.1129C93.1183 13.7946 92.7947 13.5377 92.4268 13.3612C92.0589 13.1847 91.656 13.0931 91.248 13.0931C90.84 13.0931 90.4372 13.1847 90.0693 13.3612C89.7013 13.5377 89.3777 13.7946 89.1222 14.1129C88.6123 14.7932 88.3566 15.7538 88.355 16.9949C88.3535 18.2359 88.6092 19.1797 89.1222 19.8262C89.387 20.13 89.7137 20.3735 90.0804 20.5403C90.447 20.7072 90.8452 20.7935 91.248 20.7935C91.6508 20.7935 92.049 20.7072 92.4157 20.5403C92.7823 20.3735 93.1091 20.13 93.3738 19.8262Z" fill="#D7F9C0"/>
<path d="M100.465 23.2299V5.61194H106.653C109.167 5.61194 111.208 6.41707 112.776 8.02734C114.344 9.63761 115.128 11.7435 115.128 14.3451C115.128 17.1029 114.353 19.2716 112.802 20.8512C111.25 22.4309 109.154 23.2237 106.513 23.2299H100.465ZM102.98 20.9133H106.124C110.365 20.9133 112.485 18.7323 112.487 14.3703C112.487 12.3571 111.959 10.7798 110.902 9.63837C109.845 8.49694 108.314 7.92699 106.308 7.92852H102.989L102.98 20.9133Z" fill="#D7F9C0"/>
<path d="M128.708 23.2299L127.072 18.5737H119.325L117.664 23.2299H114.949L121.564 5.61194H125.035L131.524 23.2299H128.708ZM120.156 16.2824H126.266L124.555 11.4769C124.154 10.2512 123.71 8.99258 123.223 7.701L122.97 8.3307L121.902 11.4769L120.156 16.2824Z" fill="#D7F9C0"/>
<path d="M131.225 14.4163C131.193 11.7489 132.035 9.54644 133.751 7.80901C135.468 6.07157 137.581 5.22048 140.091 5.25572C142.605 5.22048 144.705 6.07157 146.391 7.80901C148.077 9.54644 148.9 11.7489 148.858 14.4163C148.89 17.0837 148.064 19.2854 146.38 21.0213C144.695 22.7572 142.595 23.6091 140.079 23.5769C137.565 23.6121 135.452 22.7603 133.74 21.0213C132.028 19.2823 131.189 17.0807 131.225 14.4163ZM146.191 14.4163C146.191 12.4245 145.634 10.7806 144.519 9.48438C143.405 8.1882 141.914 7.54318 140.047 7.54931C138.168 7.54931 136.676 8.19127 135.57 9.4752C134.465 10.7591 133.914 12.4062 133.917 14.4163C133.917 16.4464 134.47 18.0988 135.577 19.3735C136.685 20.6482 138.177 21.2856 140.054 21.2856C141.933 21.2856 143.425 20.6482 144.531 19.3735C145.636 18.0988 146.19 16.4464 146.191 14.4163Z" fill="#D7F9C0"/>
</svg>
