<svg width="306" height="80" viewBox="0 0 306 80" fill="none" xmlns="http://www.w3.org/2000/svg">
<path d="M74.8208 28.3333L65.3644 51.7009H67.4189C67.673 50.0178 68.1065 48.1799 68.6203 46.3595H77.6008L79.8485 51.7009H85.4038L75.379 28.3333H74.8208ZM68.7608 45.8606C70.3745 40.296 72.6425 35.0423 72.6425 35.0423H72.8375L77.3882 45.8606H68.7608Z" fill="#8DFF33"/>
<path d="M206.154 28.3333L196.698 51.7009H198.748C199.001 50.0178 199.435 48.1799 199.949 46.3595H208.931L211.177 51.7009H216.734L206.713 28.3333H206.154ZM200.094 45.8652C201.708 40.3006 203.975 35.0469 203.975 35.0469H204.171L208.722 45.8652H200.094Z" fill="#8DFF33"/>
<path d="M92.9611 30.5483H92.1718L87.7763 34.9601V34.9684H84.7283V35.4683H87.7763V51.7008H92.9611V35.4683H95.925V34.9684H92.9611V30.5483Z" fill="#8DFF33"/>
<path d="M165.225 34.4814C160.929 34.3699 157.955 35.8896 157.955 35.8896V37.8927C157.955 37.8927 161.182 34.9112 164.014 34.9112C166.847 34.9112 166.964 37.2803 166.964 38.4285V41.9817C162.234 42.0638 156.393 43.0413 156.28 47.9953C156.158 53.2583 165.205 54.1298 167.278 47.9953L171.509 52.3933H172.207V41.6681C172.207 37.8512 171.25 34.6382 165.225 34.4814ZM166.964 47.2557C166.464 49.624 164.482 50.299 163.593 50.299C161.781 50.299 161.144 48.4915 161.144 47.0021C161.144 45.5128 162.235 42.8172 166.966 42.4326L166.964 47.2557Z" fill="#8DFF33"/>
<path d="M109.162 34.4814C105.734 34.4814 103.766 36.3784 103.397 38.8213V27.6064H98.129V51.7007H103.397V39.8966C103.74 38.0725 104.488 36.3563 106.687 36.3563C109.056 36.3563 109.793 38.0633 109.793 39.9021V51.7063H115.031V40.1972C115.031 36.336 112.683 34.4814 109.162 34.4814Z" fill="#8DFF33"/>
<path d="M148.083 34.4814C144.714 34.4814 142.67 36.4411 142.25 38.8277L137.832 34.3274H137.133V51.7007H142.319V40.045C142.549 38.2006 143.564 36.3498 145.762 36.3498C148.131 36.3498 148.714 38.0568 148.714 39.8956V51.6998H153.952V40.1972C153.952 36.3359 151.604 34.4814 148.083 34.4814Z" fill="#8DFF33"/>
<path d="M126.729 34.4861C120.474 34.5783 117.508 38.9818 117.508 43.4508C117.508 47.4163 120.103 52.2394 126.935 52.2394C132.046 52.2394 133.845 49.8297 133.845 49.8297V49.304C133.845 49.304 131.627 51.5357 128.522 51.5357C125.418 51.5357 123.278 49.4635 123.148 43.4517H134.294C134.294 43.4443 134.592 42.7988 134.592 41.244C134.592 39.6892 133.51 34.3828 126.729 34.4861ZM129.972 42.9528H123.148C123.089 35.1612 125.673 34.9297 126.871 34.9343C129.229 34.9537 130.396 36.6404 129.968 42.9519L129.972 42.9528Z" fill="#8DFF33"/>
<path d="M185.124 29.0027H175.876V51.7008H185.249C192.643 51.7008 197.335 47.182 197.335 40.3522C197.335 33.5224 192.67 29.0027 185.124 29.0027ZM184.669 51.2554H181.434V29.4214H184.576C186.808 29.4214 191.46 30.3657 191.46 40.3522C191.467 50.2972 186.893 51.2554 184.669 51.2554Z" fill="#8DFF33"/>
<path d="M239.891 36.287C237.624 29.993 231.084 26.8271 224.441 29.2091C217.729 31.6161 214.718 38.0419 217.037 44.4826C219.26 50.6549 225.491 54.0735 232.49 51.5605C239.275 49.1268 242.114 42.4593 239.891 36.287ZM232.344 51.1639C227.795 52.7944 224.867 48.3973 222.723 42.4436C220.486 36.2317 220.061 31.2278 224.582 29.6066C229.103 27.9854 232.018 32.257 234.204 38.3269C236.347 44.2797 236.893 49.5325 232.344 51.1639Z" fill="#8DFF33"/>
</svg>
