<svg width="177" height="25" viewBox="0 0 177 25" fill="none" xmlns="http://www.w3.org/2000/svg">
<path d="M10.2621 0.833237L0.805664 24.2008H2.86016C3.11432 22.5178 3.54777 20.6799 4.06162 18.8595H13.0421L15.2897 24.2008H20.8451L10.8203 0.833237H10.2621ZM4.2021 18.3606C5.81576 12.796 8.08375 7.54224 8.08375 7.54224H8.27875L12.8295 18.3606H4.2021Z" fill="#D7F9C0"/>
<path d="M141.596 0.833237L132.14 24.2008H134.19C134.443 22.5178 134.877 20.6799 135.391 18.8595H144.372L146.619 24.2008H152.175L142.154 0.833237H141.596ZM135.535 18.3652C137.15 12.8006 139.417 7.54685 139.417 7.54685H139.613L144.164 18.3652H135.535Z" fill="#D7F9C0"/>
<path d="M28.4027 3.04836H27.6134L23.2179 7.46016V7.46846H20.1699V7.96829H23.2179V24.2008H28.4027V7.96829H31.3666V7.46846H28.4027V3.04836Z" fill="#D7F9C0"/>
<path d="M100.666 6.98157C96.3706 6.86998 93.3965 8.38976 93.3965 8.38976V10.3928C93.3965 10.3928 96.6229 7.41131 99.4556 7.41131C102.288 7.41131 102.406 9.78044 102.406 10.9286V14.4818C97.6756 14.5639 91.8346 15.5414 91.7209 20.4955C91.599 25.7585 100.646 26.6299 102.719 20.4955L106.95 24.8934H107.649V14.1683C107.649 10.3513 106.691 7.13834 100.666 6.98157ZM102.406 19.7559C101.905 22.1241 99.9232 22.7991 99.0342 22.7991C97.2218 22.7991 96.585 20.9916 96.585 19.5023C96.585 18.0129 97.6765 15.3173 102.407 14.9328L102.406 19.7559Z" fill="#D7F9C0"/>
<path d="M44.6034 6.98155C41.1756 6.98155 39.207 8.87851 38.8383 11.3214V0.106552H33.5703V24.2009H38.8383V12.3967C39.1811 10.5726 39.9297 8.85638 42.1284 8.85638C44.4971 8.85638 45.2347 10.5634 45.2347 12.4022V24.2064H50.4721V12.6973C50.4721 8.83609 48.1246 6.98155 44.6034 6.98155Z" fill="#D7F9C0"/>
<path d="M83.5242 6.98155C80.1554 6.98155 78.1111 8.94123 77.6915 11.3279L73.2729 6.82755H72.5742V24.2009H77.7599V12.5452C77.99 10.7008 79.0048 8.84993 81.2035 8.84993C83.5722 8.84993 84.1554 10.5569 84.1554 12.3958V24.1999H89.3928V12.6973C89.3928 8.83609 87.0454 6.98155 83.5242 6.98155Z" fill="#D7F9C0"/>
<path d="M62.17 6.98615C55.9159 7.07837 52.9492 11.4819 52.9492 15.9508C52.9492 19.9163 55.5444 24.7394 62.3761 24.7394C67.4878 24.7394 69.2863 22.3297 69.2863 22.3297V21.804C69.2863 21.804 67.0682 24.0358 63.9639 24.0358C60.8595 24.0358 58.719 21.9636 58.5896 15.9518H69.7355C69.7355 15.9444 70.0331 15.2989 70.0331 13.744C70.0331 12.1892 68.9518 6.88287 62.17 6.98615ZM65.413 15.4529H58.5896C58.5305 7.6612 61.1145 7.42973 62.3123 7.43434C64.6709 7.45371 65.8372 9.14041 65.4093 15.4519L65.413 15.4529Z" fill="#D7F9C0"/>
<path d="M120.566 1.50276H111.317V24.2009H120.691C128.084 24.2009 132.776 19.6821 132.776 12.8523C132.776 6.02246 128.112 1.50276 120.566 1.50276ZM120.11 23.7554H116.876V1.92144H120.018C122.25 1.92144 126.901 2.86577 126.901 12.8523C126.909 22.7973 122.335 23.7554 120.11 23.7554V23.7554Z" fill="#D7F9C0"/>
<path d="M175.333 8.78722C173.066 2.49321 166.525 -0.672696 159.882 1.70934C153.171 4.11628 150.16 10.5422 152.478 16.9828C154.701 23.1551 160.932 26.5737 167.931 24.0607C174.717 21.627 177.556 14.9595 175.333 8.78722ZM167.786 23.6641C163.237 25.2946 160.308 20.8975 158.164 14.9438C155.928 8.73189 155.502 3.72804 160.024 2.10681C164.545 0.485586 167.46 4.75721 169.645 10.8271C171.789 16.7799 172.335 22.0328 167.786 23.6641Z" fill="#D7F9C0"/>
</svg>
