<svg width="306" height="80" viewBox="0 0 306 80" fill="none" xmlns="http://www.w3.org/2000/svg">
<path d="M157.786 25.1527C157.786 26.4602 157.488 27.5133 156.985 28.3402L158.027 29.365L156.928 30.4604L155.943 29.4992C155.12 30.1353 154.099 30.4604 153.007 30.4604C150.461 30.4604 148.228 28.6935 148.228 25.1456C148.228 21.5977 150.461 19.8308 153.007 19.8308C155.553 19.8308 157.786 21.5977 157.786 25.1456V25.1527ZM154.624 25.9937L155.744 27.1245C155.985 26.5874 156.113 25.9372 156.113 25.1527C156.113 22.5872 154.68 21.3857 153 21.3857C151.319 21.3857 149.887 22.5872 149.887 25.1527C149.887 27.7182 151.319 28.9197 153 28.9197C153.652 28.9197 154.276 28.743 154.787 28.3543L153.518 27.0892L154.617 25.9937H154.624Z" fill="#8DFF33"/>
<path d="M160.672 19.9583H162.31V26.6795C162.31 28.093 163.026 28.9199 164.423 28.9199C165.82 28.9199 166.536 28.086 166.536 26.6795V19.9583H168.174V26.6088C168.174 29.1178 166.55 30.4677 164.423 30.4677C162.296 30.4677 160.672 29.1037 160.672 26.6088V19.9583Z" fill="#8DFF33"/>
<path d="M175.307 19.9583L178.924 30.3476H177.257L176.392 27.7679H172.67L171.805 30.3476H170.138L173.755 19.9583H175.3H175.307ZM173.166 26.2201H175.903L174.535 22.022L173.166 26.2201Z" fill="#8DFF33"/>
<path d="M189.17 19.9583V30.3476H187.411L183.136 22.8984V30.3476H181.498V19.9583H183.256L187.532 27.4357V19.9583H189.17Z" fill="#8DFF33"/>
<path d="M191.779 19.9583H199.253V21.499H196.332V30.3405H194.694V21.499H191.772V19.9583H191.779Z" fill="#8DFF33"/>
<path d="M202.068 19.9583H203.706V26.6795C203.706 28.093 204.422 28.9199 205.819 28.9199C207.216 28.9199 207.932 28.086 207.932 26.6795V19.9583H209.57V26.6088C209.57 29.1178 207.946 30.4677 205.819 30.4677C203.692 30.4677 202.068 29.1037 202.068 26.6088V19.9583Z" fill="#8DFF33"/>
<path d="M212.952 19.9583H214.888L217.476 26.8703L220.064 19.9583H222V30.3476H220.362V23.3436L218.058 29.4005H216.895L214.59 23.3436V30.3476H212.952V19.9583Z" fill="#8DFF33"/>
<path d="M152.56 34.8C154.29 34.8 155.482 35.7188 155.482 37.514C155.482 38.3126 155.035 39.189 154.425 39.5141C155.411 39.9311 156.021 40.9206 156.021 42.1291C156.021 44.0727 154.801 45.1894 152.745 45.1894H148.873V34.8H152.567H152.56ZM150.504 36.3408V38.8922H152.411C153.333 38.8922 153.844 38.461 153.844 37.6129C153.844 36.7648 153.34 36.3337 152.411 36.3337H150.504V36.3408ZM150.504 40.44V43.6486H152.511C153.716 43.6486 154.34 43.0832 154.34 42.0443C154.34 41.0054 153.716 40.44 152.511 40.44H150.504Z" fill="#8DFF33"/>
<path d="M158.885 34.8H160.523V45.1894H158.885V34.8Z" fill="#8DFF33"/>
<path d="M173.06 39.9947C173.06 43.5427 170.826 45.3095 168.281 45.3095C165.735 45.3095 163.501 43.5427 163.501 39.9947C163.501 36.4468 165.735 34.6799 168.281 34.6799C170.826 34.6799 173.06 36.4468 173.06 39.9947ZM165.168 39.9947C165.168 42.5603 166.6 43.7617 168.281 43.7617C169.961 43.7617 171.393 42.5603 171.393 39.9947C171.393 37.4292 169.961 36.2277 168.281 36.2277C166.6 36.2277 165.168 37.4292 165.168 39.9947Z" fill="#8DFF33"/>
<path d="M177.513 34.8V43.6416H182.008V45.1823H175.875V34.793H177.513V34.8Z" fill="#8DFF33"/>
<path d="M193.403 39.9947C193.403 43.5427 191.169 45.3095 188.624 45.3095C186.078 45.3095 183.845 43.5427 183.845 39.9947C183.845 36.4468 186.078 34.6799 188.624 34.6799C191.169 34.6799 193.403 36.4468 193.403 39.9947ZM185.511 39.9947C185.511 42.5603 186.943 43.7617 188.624 43.7617C190.304 43.7617 191.737 42.5603 191.737 39.9947C191.737 37.4292 190.304 36.2277 188.624 36.2277C186.943 36.2277 185.511 37.4292 185.511 39.9947Z" fill="#8DFF33"/>
<path d="M203.514 43.896C203.146 44.5321 202.252 45.3095 200.777 45.3095C198.338 45.3095 196.041 43.6487 196.041 39.9947C196.041 36.3408 198.367 34.6799 200.862 34.6799C203.096 34.6799 204.599 36.0157 205.018 37.8886L203.514 38.348C203.011 36.9062 202.103 36.2277 200.862 36.2277C199.076 36.2277 197.707 37.4716 197.707 39.9947C197.707 42.5179 199.076 43.7617 200.862 43.7617C202.5 43.7617 203.288 42.6451 203.422 41.387H201.394V39.9453H205.053V45.1823H203.621L203.5 43.889L203.514 43.896Z" fill="#8DFF33"/>
<path d="M208.549 34.8L210.605 39.1183L212.662 34.8H214.406L211.428 40.7368V45.1894H209.79V40.7368L206.812 34.8H208.556H208.549Z" fill="#8DFF33"/>
<path d="M151.929 49.6418C154.432 49.6418 156.723 51.331 156.723 54.8365C156.723 58.342 154.432 60.0312 151.929 60.0312H148.859V49.6418H151.929ZM150.504 51.1826V58.4834H151.454C153.269 58.4834 155.056 57.6635 155.056 54.8294C155.056 51.9953 153.269 51.1755 151.454 51.1755H150.504V51.1826Z" fill="#8DFF33"/>
<path d="M163.544 49.6418L167.16 60.0312H165.494L164.629 57.4515H160.906L160.041 60.0312H158.375L161.991 49.6418H163.537H163.544ZM161.403 55.9037H164.14L162.771 51.7056L161.403 55.9037Z" fill="#8DFF33"/>
<path d="M178.661 54.8365C178.661 58.3845 176.428 60.1513 173.882 60.1513C171.337 60.1513 169.103 58.3845 169.103 54.8365C169.103 51.2886 171.337 49.5217 173.882 49.5217C176.428 49.5217 178.661 51.2886 178.661 54.8365ZM170.769 54.8365C170.769 57.4021 172.202 58.6035 173.882 58.6035C175.563 58.6035 176.995 57.4021 176.995 54.8365C176.995 52.271 175.563 51.0695 173.882 51.0695C172.202 51.0695 170.769 52.271 170.769 54.8365Z" fill="#8DFF33"/>
<path d="M128.317 58.1867L127.431 56.653L132.848 53.5362V47.6631H134.621V54.0451C134.621 54.3631 134.451 54.6529 134.181 54.8084L128.317 58.1796V58.1867Z" fill="#8DFF33"/>
<path d="M109.314 68.9859C109.158 68.9859 109.009 68.9435 108.874 68.8657L84.4396 54.8154C84.1631 54.6599 84 54.3631 84 54.0521V25.9373C84 25.6193 84.1702 25.3295 84.4467 25.174L108.874 11.1166C109.151 10.9611 109.484 10.9611 109.761 11.1166L134.188 25.174C134.465 25.3295 134.628 25.6263 134.628 25.9373V42.3129H132.855V26.4532L109.314 12.9047L85.7727 26.4462V53.5362L109.314 67.0847L122.829 59.3104L123.715 60.844L109.754 68.8799C109.619 68.9576 109.463 69 109.314 69V68.9859Z" fill="#8DFF33"/>
<path d="M106.378 60.1089C105.726 60.1089 105.067 59.9393 104.471 59.593L93.7852 53.4371C91.3673 52.0448 89.8711 49.4581 89.8711 46.6735V44.6026C89.8711 42.7156 90.8284 40.9841 92.438 39.9875L93.9979 39.0193C95.0828 38.3408 95.7351 37.1746 95.7351 35.9025C95.7351 33.6055 96.976 31.464 98.9685 30.312L107.485 25.4142C108.066 25.082 108.428 24.453 108.428 23.7816V23.6968C108.428 22.9547 108.045 22.2903 107.399 21.9228C106.761 21.5553 105.995 21.5553 105.357 21.9228L94.6644 28.0787C92.7925 29.1529 91.6367 31.1601 91.6367 33.3087V35.0614H89.864V33.3087C89.864 30.5311 91.3673 27.9373 93.7781 26.545L104.471 20.3892C105.662 19.7036 107.095 19.7036 108.286 20.3892C109.484 21.0818 110.2 22.3115 110.2 23.6968V23.7816C110.2 25.082 109.498 26.2977 108.371 26.9479L99.8549 31.8457C98.4084 32.6797 97.5078 34.2345 97.5078 35.9025C97.5078 37.7895 96.5506 39.5211 94.941 40.5176L93.381 41.4858C92.2961 42.1643 91.6438 43.3305 91.6438 44.6026V46.6735C91.6438 48.822 92.8067 50.8292 94.6715 51.9034L105.364 58.0593C106.003 58.4268 106.768 58.4268 107.407 58.0593C108.052 57.6918 108.435 57.0274 108.435 56.2853V56.2005C108.435 55.5291 108.073 54.9001 107.492 54.5679L102.535 51.7197L103.422 50.186L108.378 53.0413C109.505 53.6915 110.207 54.9072 110.207 56.2076V56.2924C110.207 57.6706 109.491 58.9074 108.293 59.6C107.697 59.9463 107.038 60.116 106.385 60.116L106.378 60.1089Z" fill="#8DFF33"/>
<path d="M109.314 48.7443C109.158 48.7443 109.009 48.7019 108.874 48.6242L102.039 44.6946C101.762 44.5391 101.599 44.2423 101.599 43.9313V36.0651C101.599 35.7471 101.769 35.4573 102.039 35.3018L108.874 31.3722C109.151 31.2167 109.484 31.2167 109.761 31.3722L116.596 35.3018C116.873 35.4573 117.036 35.7541 117.036 36.0651V43.9313C117.036 44.2493 116.866 44.5391 116.596 44.6946L109.761 48.6242C109.626 48.7019 109.47 48.7443 109.321 48.7443H109.314ZM103.365 43.4154L109.314 46.8361L115.263 43.4154V36.5669L109.314 33.1462L103.365 36.5669V43.4154Z" fill="#8DFF33"/>
<path d="M116.588 43.1693L115.701 44.6995L132.858 54.5729L133.745 53.0427L116.588 43.1693Z" fill="#8DFF33"/>
<path d="M97.2313 47.564C96.4726 47.564 95.8486 46.9491 95.8486 46.1858C95.8486 45.4225 96.4655 44.8076 97.2313 44.8076C97.9971 44.8076 98.614 45.4225 98.614 46.1858C98.614 46.9491 97.9971 47.564 97.2313 47.564Z" fill="#8DFF33"/>
<path d="M116.944 29.2168C115.263 29.2168 113.895 27.8527 113.895 26.1777C113.895 24.5027 115.263 23.1387 116.944 23.1387C118.624 23.1387 119.993 24.5027 119.993 26.1777C119.993 27.8527 118.624 29.2168 116.944 29.2168ZM116.944 24.9056C116.242 24.9056 115.667 25.478 115.667 26.1777C115.667 26.8774 116.242 27.4499 116.944 27.4499C117.646 27.4499 118.22 26.8774 118.22 26.1777C118.22 25.478 117.646 24.9056 116.944 24.9056Z" fill="#8DFF33"/>
<path d="M116.944 56.5399C115.079 56.5399 113.568 55.0274 113.568 53.1757C113.568 51.324 115.086 49.8115 116.944 49.8115C118.801 49.8115 120.319 51.324 120.319 53.1757C120.319 55.0274 118.801 56.5399 116.944 56.5399ZM116.944 51.5714C116.057 51.5714 115.341 52.2922 115.341 53.1686C115.341 54.045 116.064 54.7659 116.944 54.7659C117.823 54.7659 118.546 54.045 118.546 53.1686C118.546 52.2922 117.823 51.5714 116.944 51.5714Z" fill="#8DFF33"/>
<path d="M124.942 43.1893C124.417 43.1893 123.892 43.0833 123.396 42.8642C122.013 42.2564 121.12 40.8923 121.12 39.3869V34.376C121.12 33.019 121.85 31.761 123.027 31.0825C124.226 30.397 125.651 30.397 126.842 31.0825C128.041 31.7681 128.75 33.0049 128.75 34.376V39.3869C128.75 40.6803 128.097 41.8676 127.012 42.5744C126.381 42.9843 125.658 43.1893 124.935 43.1893H124.942ZM123.921 32.6091C123.29 32.9696 122.9 33.6481 122.9 34.376V39.3869C122.9 40.1926 123.375 40.9276 124.119 41.2528C124.765 41.5355 125.474 41.4789 126.062 41.0973C126.651 40.7156 126.991 40.0937 126.991 39.3869V34.376C126.991 33.641 126.608 32.9766 125.97 32.6091C125.332 32.2416 124.566 32.2416 123.928 32.6091H123.921Z" fill="#8DFF33"/>
<rect x="235.56" y="5" width="41.2144" height="17.12" rx="6" transform="rotate(30 235.56 5)" fill="#C9A1DF"/>
<path d="M257.465 32.4085L263.333 25.6533L264.923 26.5713L258.783 33.5575L255.759 31.8115L258.967 23.5903L253.452 30.4795L250.428 28.7335L253.408 19.9233L254.998 20.8413L252.082 29.3005L257.669 22.3833L260.662 24.1113L257.465 32.4085Z" fill="#253119"/>
<path d="M246.073 21.7298L244.921 23.7251L248.807 25.9691L248.015 27.3409L242.487 24.1489L247.047 16.2507L252.482 19.3887L251.69 20.7605L247.897 18.5705L246.865 20.358L250.585 22.506L249.793 23.8778L246.073 21.7298Z" fill="#253119"/>
<path d="M239.264 21.9281L243.668 14.3001L245.3 15.2421L240.74 23.1403L237.57 21.3103L239.366 12.1763L234.962 19.8043L233.33 18.8623L237.89 10.9641L241.07 12.8001L239.264 21.9281Z" fill="#253119"/>
</svg>
