<svg width="306" height="80" viewBox="0 0 306 80" fill="none" xmlns="http://www.w3.org/2000/svg">
<path d="M103.683 57.1141C94.2838 57.1141 86.6367 49.4369 86.6367 40C86.6367 30.5631 94.2838 22.8853 103.683 22.8853C113.082 22.8853 120.728 30.5631 120.728 40C120.728 49.4369 113.081 57.1148 103.683 57.1148V57.1141ZM103.683 24.1876C94.9987 24.1876 87.9338 31.2809 87.9338 40C87.9338 48.7191 94.9987 55.8124 103.683 55.8124C112.367 55.8124 119.432 48.7191 119.432 40C119.432 31.2809 112.367 24.1876 103.683 24.1876Z" fill="#8DFF33"/>
<path d="M101.45 39.9374V39.205V33.9673L102.38 32.96V32.8503H98.6052V32.96L99.5172 33.9673V45.4861L98.6052 46.4747V46.585H102.38V46.4747L101.45 45.4861V39.9374Z" fill="#8DFF33"/>
<path d="M93.4728 43.0675C93.4466 43.0655 93.4217 43.0571 93.3989 43.0398C93.3491 43.0023 93.3325 42.9349 93.329 42.8732C93.32 42.7093 93.3788 42.5511 93.4148 42.3907C93.4507 42.231 93.4611 42.0498 93.3684 41.9152C93.3373 41.87 93.2965 41.8333 93.2661 41.7874C92.9785 41.3605 93.9955 40.6323 94.2514 40.3865C94.7091 39.9471 95.1813 39.5216 95.6708 39.1176C96.392 38.5212 97.1705 37.9013 98.041 37.5403C98.7912 37.2293 99.6064 37.3848 100.118 37.9353C100.624 38.4803 100.706 39.2869 100.334 40.0401C100.113 40.4865 99.9784 40.8156 99.9334 41.019C99.9141 41.1078 99.9611 41.1543 99.9818 41.1647C100.014 41.1807 100.111 41.1432 100.23 41.0099C100.305 40.9259 100.383 40.8371 100.464 40.7441C100.874 40.2741 101.383 39.6889 101.963 39.2911C102.543 38.894 103.184 38.8302 103.679 39.121C104.021 39.3216 104.406 39.7493 104.406 40.6559C106.339 38.9294 108.48 39.0488 110.377 39.1537C111.272 39.2029 112.179 39.2578 113.07 39.1169C113.328 39.0759 113.585 39.0301 113.837 38.969C113.957 38.9398 114.101 38.9176 114.188 39.0058C114.287 39.1064 114.237 39.2814 114.15 39.3925C114.063 39.5042 113.942 39.5965 113.899 39.7319C113.858 39.8638 113.9 40.0075 113.881 40.1443C113.86 40.2998 113.758 40.4372 113.628 40.5233C113.234 40.7829 112.518 40.7246 112.066 40.7343C111.475 40.7475 110.883 40.7177 110.292 40.6844C108.41 40.5788 106.784 40.4893 105.285 41.9277C104.813 42.3789 104.19 42.4997 103.657 42.2428C103.135 41.9908 102.819 41.4258 102.871 40.8357C102.884 40.6969 102.881 40.5962 102.873 40.5261C102.858 40.5351 102.842 40.5448 102.825 40.5566C102.405 40.8447 101.985 41.3272 101.614 41.7527C101.529 41.8506 101.446 41.945 101.367 42.0332C100.785 42.6857 99.9673 42.8801 99.2849 42.5281C98.626 42.188 98.2796 41.4313 98.4434 40.6871C98.5402 40.2477 98.7891 39.7173 98.9675 39.3564C99.0512 39.1877 99.0636 39.0467 99.0014 38.9801C98.9419 38.9162 98.8016 38.8843 98.6239 38.9572C97.8744 39.2675 97.2003 39.8451 96.5828 40.3574C95.5844 41.1863 94.725 42.1644 93.7093 42.9641C93.6415 43.0176 93.5523 43.0717 93.4735 43.0662L93.4728 43.0675Z" fill="#8DFF33"/>
<path d="M108.564 32.96V32.8503H104.789V32.96L105.701 33.9673V39.205V39.9374V45.4861L104.789 46.4747V46.585H108.564V46.4747L107.652 45.4861V33.9673L108.564 32.96Z" fill="#8DFF33"/>
<path d="M135.747 50.8281H129.794V50.6545L131.232 49.0954V30.9337L129.794 29.3454V29.1719H135.747V29.3454L134.28 30.9337V39.1919H140.981V30.9337L139.543 29.3454V29.1719H145.496V29.3454L144.058 30.9337V49.0954L145.496 50.6545V50.8281H139.543V50.6545L140.981 49.0954V40.3464H134.28V49.0954L135.747 50.6545V50.8281Z" fill="#8DFF33"/>
<path d="M152.844 49.3842C151.952 50.3949 151.003 51.1169 149.536 51.1169C147.609 51.1169 146.603 49.2689 146.603 47.421C146.603 46.0062 147.063 44.9378 147.379 44.4179L152.786 42.3388V42.2811C152.786 38.8164 152.24 37.4016 150.341 37.4016H150.14L147.379 41.5016H147.235V36.8525C148.759 36.7081 150.226 36.5637 151.636 36.5637C155.346 36.5637 155.719 39.4509 155.719 43.4071V49.153L157.1 50.6546V50.8281H152.844V49.3842ZM152.786 48.7198V43.0316L149.996 44.8795C149.795 45.3127 149.594 45.9479 149.594 46.9871C149.594 48.229 150.169 49.3835 151.233 49.3835C151.923 49.3835 152.412 49.1238 152.786 48.7191V48.7198Z" fill="#8DFF33"/>
<path d="M158.02 50.828V50.6545L159.401 49.3841V38.7004L157.963 37.026V36.8524H162.363V49.3841L163.715 50.6545V50.828H158.02ZM159.113 31.8285C159.113 30.6158 159.919 29.7786 160.867 29.7786C161.816 29.7786 162.622 30.6158 162.622 31.8285C162.622 33.1281 161.816 33.8785 160.867 33.8785C159.919 33.8785 159.113 33.1281 159.113 31.8285Z" fill="#8DFF33"/>
<path d="M170.76 50.8281H164.692V50.6546L166.073 49.2974V38.7296L164.635 37.0261V36.8525H168.92V39.3648H168.949C169.668 37.6612 171.134 36.6505 172.774 36.5637V36.5929L172.803 36.5637V41.0968H172.659L170.243 38.9025C169.61 39.278 169.035 40 169.035 41.3572V49.2398L170.761 50.6546V50.8281H170.76Z" fill="#8DFF33"/>
<path d="M189.067 39.8556C189.067 46.9586 185.156 50.8281 180.382 50.8281H173.911V50.6545L175.349 49.0954V30.9337L173.911 29.3454V29.1719H179.778C185.731 29.1719 189.067 33.3301 189.067 39.8556ZM178.398 30.1535V49.8749H180.583C184.15 49.8749 185.846 46.0923 185.846 40.1728C185.846 34.2534 184.236 30.1535 179.635 30.1535H178.398Z" fill="#8DFF33"/>
<path d="M193.149 50.8281H188.087V50.6545L189.957 48.8642L194.443 31.0198L193.954 29.1719H197.06L202.41 49.1238L203.876 50.6538V50.8274H197.665V50.6538L199.131 49.1238L197.578 43.1468H192.459L191.05 48.9218L193.149 50.6545V50.8281ZM194.932 32.9546L192.689 42.1367H197.32L194.933 32.9546H194.932Z" fill="#8DFF33"/>
<path d="M203.057 40.1443C203.057 32.9837 206.997 28.8831 210.965 28.8831C215.452 28.8831 218.759 33.3301 218.759 39.884C218.759 47.0447 214.819 51.1161 210.851 51.1161C206.307 51.1161 203.057 46.6115 203.057 40.1436V40.1443ZM215.538 40.5484C215.538 34.7733 213.842 29.8938 210.736 29.8938C207.802 29.8938 206.278 33.7341 206.278 39.4224C206.278 45.1106 207.947 50.1345 211.052 50.1345C213.986 50.1345 215.539 46.2942 215.539 40.5484H215.538Z" fill="#8DFF33"/>
</svg>
