<svg width="306" height="80" viewBox="0 0 306 80" fill="none" xmlns="http://www.w3.org/2000/svg">
<path d="M129.768 48.8021V31.0688H136.981C138.784 31.0688 140.244 31.5841 141.318 32.5717C142.391 33.5592 142.906 34.8474 142.906 36.479C142.906 38.1106 142.391 39.3987 141.318 40.3863C140.244 41.3739 138.784 41.8891 136.938 41.8891H132.301V48.8021H129.768ZM132.301 39.6564H136.466C137.668 39.6564 138.57 39.3558 139.214 38.7547C139.858 38.1535 140.158 37.3807 140.158 36.436C140.158 35.4914 139.858 34.7615 139.214 34.2033C138.57 33.6451 137.668 33.3875 136.466 33.3875H132.301V39.6564Z" fill="#8DFF33"/>
<path d="M144.28 45.5389L146.556 44.8089C146.985 46.3976 148.059 47.1705 149.862 47.1705C151.665 47.1705 152.567 46.5694 152.567 45.4101C152.567 44.4654 151.794 43.8643 150.292 43.5638L148.789 43.3061C147.501 43.0485 146.513 42.6191 145.826 42.1039C145.139 41.5886 144.839 40.7728 144.839 39.6994C144.839 38.583 145.311 37.6813 146.213 36.9514C147.114 36.2214 148.231 35.8779 149.562 35.8779C150.936 35.8779 152.052 36.1785 152.911 36.7367C153.769 37.2949 154.37 38.1107 154.671 39.0553L152.567 39.8711C152.052 38.4542 151.064 37.7242 149.519 37.7242C148.746 37.7242 148.145 37.896 147.715 38.2395C147.286 38.583 147.071 38.9694 147.071 39.4417C147.071 39.8711 147.2 40.2146 147.501 40.4723C147.801 40.7299 148.359 40.9016 149.218 41.0734L150.721 41.3739C151.794 41.5886 152.782 41.9751 153.641 42.5762C154.499 43.1344 154.972 44.0361 154.972 45.2813C154.972 46.4835 154.499 47.4281 153.598 48.1151C152.696 48.8021 151.408 49.1456 149.819 49.1456C148.445 49.1456 147.243 48.8451 146.213 48.201C145.182 47.557 144.538 46.6553 144.28 45.5389Z" fill="#8DFF33"/>
<path d="M165.706 36.2214H168.196L163.301 50.5626C162.872 51.7648 162.357 52.6236 161.798 53.053C161.24 53.4823 160.424 53.74 159.308 53.74H156.689V51.5931H159.222C159.695 51.5931 160.081 51.5072 160.339 51.3355C160.596 51.1637 160.811 50.8631 160.94 50.4338L161.584 48.6733L156.045 36.2214H158.707L161.326 42.4474C161.713 43.392 161.97 44.6372 161.97 46.2688H163.044C163.044 44.9807 163.258 43.7784 163.559 42.7479L165.706 36.2214Z" fill="#8DFF33"/>
<path d="M170.901 48.8021V31.0688H177.127C179.66 31.0688 181.721 31.8847 183.31 33.5163C184.898 35.1479 185.671 37.2519 185.671 39.871C185.671 42.662 184.898 44.8089 183.31 46.4405C181.764 48.0292 179.617 48.845 176.955 48.845H170.901V48.8021ZM173.434 46.4834H176.612C180.905 46.4834 183.009 44.2936 183.009 39.914C183.009 37.8959 182.494 36.3072 181.421 35.1479C180.347 33.9886 178.801 33.4304 176.783 33.4304H173.434V46.4834Z" fill="#8DFF33"/>
<path d="M200.14 48.8021L198.509 44.1219H190.694L189.02 48.8021H186.272L192.927 31.0688H196.405L202.931 48.8021H200.14ZM191.553 41.8032H197.693L195.976 36.9513C195.46 35.3626 195.203 33.9886 195.16 32.8293H194.086C194.001 34.2033 193.743 35.5773 193.271 36.9513L191.553 41.8032Z" fill="#8DFF33"/>
<path d="M203.275 39.914C203.232 37.209 204.091 35.0191 205.808 33.2587C207.526 31.4983 209.673 30.6395 212.206 30.6824C214.739 30.6395 216.843 31.4983 218.56 33.2587C220.278 35.0191 221.094 37.209 221.051 39.914C221.094 42.6191 220.235 44.8089 218.56 46.5693C216.886 48.3298 214.739 49.1885 212.206 49.1456C209.673 49.1885 207.526 48.3298 205.808 46.5693C204.091 44.8518 203.275 42.6191 203.275 39.914ZM218.389 39.914C218.389 37.896 217.831 36.2643 216.714 34.9333C215.598 33.6451 214.095 33.0011 212.206 33.0011C210.317 33.0011 208.814 33.6451 207.698 34.9333C206.581 36.2214 206.023 37.896 206.023 39.914C206.023 41.975 206.581 43.6067 207.698 44.8948C208.814 46.1829 210.317 46.827 212.206 46.827C214.095 46.827 215.598 46.1829 216.714 44.8948C217.831 43.6496 218.389 41.975 218.389 39.914Z" fill="#8DFF33"/>
<path d="M112.31 29.908L112.206 29.856L112.154 29.752C110.49 25.5903 106.536 22.8853 102.062 22.8853C97.5885 22.8853 93.6349 25.5903 91.9703 29.752L91.9183 29.856L91.8142 29.908C87.6526 31.5727 84.9475 35.5262 84.9475 40C84.9475 44.4738 87.6526 48.4273 91.8142 50.092L91.9183 50.144L91.9703 50.2481C93.6349 54.4097 97.5885 57.1148 102.062 57.1148C106.536 57.1148 110.49 54.4097 112.154 50.2481L112.206 50.144L112.31 50.092C116.472 48.4273 119.177 44.4738 119.177 40C119.177 35.5262 116.472 31.5727 112.31 29.908ZM95.1956 27.8272C96.9122 25.8504 99.4092 24.706 102.062 24.706C104.715 24.706 107.212 25.8504 108.929 27.8272C109.137 28.0873 109.189 28.3994 109.033 28.6595C108.877 28.9196 108.617 29.1277 108.305 29.1277C106.224 29.1277 104.195 29.6999 102.478 30.7924C102.322 30.8964 102.218 30.8964 102.062 30.8964C101.906 30.8964 101.75 30.8444 101.646 30.7924C99.9294 29.6999 97.9006 29.1277 95.8198 29.1277C95.5077 29.1277 95.1956 28.9717 95.0915 28.6595C94.9355 28.3474 94.9875 28.0353 95.1956 27.8272ZM93.1147 32.2489C93.2188 31.6247 93.687 31.1565 94.3112 31.0525C94.8314 30.9484 95.3516 30.9484 95.8198 30.9484C97.9006 30.9484 99.8774 31.6247 101.49 32.9252C101.802 33.1853 102.27 33.1853 102.634 32.9252C104.247 31.6247 106.172 30.9484 108.253 30.9484C108.773 30.9484 109.293 31.0005 109.761 31.0525C110.386 31.1565 110.854 31.6247 110.958 32.2489C111.062 32.7692 111.062 33.2894 111.062 33.7575C111.062 34.7459 110.906 35.7343 110.594 36.7227C110.438 37.1389 110.073 37.503 109.657 37.6591C109.189 37.8151 108.721 37.7111 108.357 37.451C106.484 36.0985 104.299 35.4222 102.01 35.4222C99.7213 35.4222 97.5365 36.1505 95.6637 37.451C95.4036 37.6591 95.0915 37.7111 94.8314 37.7111C94.6753 37.7111 94.5193 37.7111 94.3632 37.6591C93.895 37.503 93.5829 37.1909 93.4269 36.7227C93.1147 35.7863 92.9587 34.798 92.9587 33.7575C92.9587 33.2373 93.0107 32.7171 93.1147 32.2489ZM107.889 40C107.889 40.4682 107.628 40.9364 107.264 41.1965C105.756 42.2889 103.935 42.8091 102.062 42.8091C100.19 42.8091 98.4208 42.2369 96.8602 41.1965C96.444 40.9364 96.236 40.4682 96.236 40C96.236 39.5318 96.4961 39.0636 96.8602 38.8035C98.3688 37.7111 100.19 37.1909 102.062 37.1909C103.935 37.1909 105.704 37.7631 107.264 38.8035C107.628 39.0636 107.889 39.5318 107.889 40ZM91.19 46.2425C91.19 46.5546 91.0339 46.8667 90.7218 46.9708C90.6177 47.0228 90.5137 47.0228 90.4097 47.0228C90.2016 47.0228 90.0455 46.9708 89.8895 46.8147C87.9127 45.098 86.7682 42.601 86.7682 39.948C86.7682 37.2949 87.9127 34.798 89.8895 33.0813C90.1496 32.8732 90.4617 32.8212 90.7218 32.9772C91.0339 33.1333 91.19 33.3934 91.19 33.7055C91.19 35.7863 91.7622 37.7631 92.8546 39.5318C93.0107 39.7919 93.0107 40.104 92.8546 40.3641C91.7622 42.1328 91.19 44.1616 91.19 46.2425ZM108.929 52.1728C107.212 54.1496 104.715 55.294 102.062 55.294C99.4092 55.294 96.9122 54.1496 95.1956 52.1728C94.9875 51.9127 94.9355 51.6006 95.0915 51.3405C95.2476 51.0284 95.5077 50.8723 95.8198 50.8723C97.9006 50.8723 99.9294 50.3001 101.646 49.2076C101.906 49.0516 102.218 49.0516 102.53 49.2076C104.247 50.3001 106.276 50.8723 108.357 50.8723C108.669 50.8723 108.981 51.0284 109.085 51.3405C109.137 51.6006 109.137 51.9647 108.929 52.1728ZM111.01 47.7511C110.906 48.3753 110.438 48.8435 109.813 48.9475C109.293 49.0516 108.773 49.0516 108.305 49.0516C106.224 49.0516 104.247 48.3753 102.634 47.0748C102.322 46.8147 101.854 46.8147 101.542 47.0748C99.9294 48.3753 97.9526 49.0516 95.8718 49.0516C95.3516 49.0516 94.8314 48.9996 94.3632 48.9475C93.739 48.8435 93.2708 48.3753 93.1668 47.7511C93.0627 47.2309 93.0627 46.7107 93.0627 46.2425C93.0627 45.2541 93.2188 44.2657 93.5309 43.2773C93.687 42.8611 94.0511 42.497 94.4673 42.3409C94.9355 42.1849 95.4036 42.2889 95.7678 42.549C97.6405 43.9015 99.8254 44.5778 102.114 44.5778C104.403 44.5778 106.588 43.8495 108.461 42.549C108.825 42.2889 109.293 42.1849 109.761 42.3409C110.229 42.497 110.542 42.8091 110.698 43.2773C111.01 44.2137 111.166 45.2021 111.166 46.2425C111.114 46.7627 111.114 47.2309 111.01 47.7511ZM114.235 46.8667C114.079 46.9708 113.923 47.0748 113.715 47.0748C113.611 47.0748 113.507 47.0748 113.403 47.0228C113.091 46.8667 112.935 46.6066 112.935 46.2945C112.935 44.2137 112.362 42.2369 111.27 40.4682C111.114 40.2081 111.114 39.896 111.27 39.6359C112.362 37.9192 112.935 35.8904 112.935 33.8096C112.935 33.4974 113.091 33.1853 113.403 33.0813C113.663 32.9252 114.027 32.9772 114.235 33.1853C116.212 34.902 117.356 37.399 117.356 40.052C117.356 42.601 116.212 45.098 114.235 46.8667Z" fill="#8DFF33"/>
</svg>
