<svg width="148" height="30" viewBox="0 0 148 30" fill="none" xmlns="http://www.w3.org/2000/svg">
<path d="M20.831 5.30392L22.0874 0.755789C19.6934 0.0951273 17.168 0.0760886 14.7643 0.700578C12.3607 1.32507 10.1636 2.57111 8.39333 4.31368C6.62311 6.05624 5.34209 8.23403 4.67884 10.6285C4.0156 13.0229 3.99347 15.5498 4.61466 17.9555L0.0644531 19.1367C0.686611 21.5437 1.93101 23.7444 3.67258 25.5176C5.41415 27.2909 7.59154 28.5743 9.98592 29.2388C12.3803 29.9033 14.9073 29.9254 17.313 29.3031C19.7186 28.6808 21.9182 27.4359 23.6906 25.6935L27.0028 29.058C28.775 27.3129 30.0567 25.1316 30.7188 22.7335C31.3809 20.3354 31.4 17.8051 30.7744 15.3973C30.1488 12.9894 28.9004 10.7888 27.1549 9.01699C25.4094 7.24515 23.2282 5.96451 20.831 5.30392ZM26.1575 21.4694C25.721 23.0605 24.8724 24.5081 23.6975 25.6659L20.3876 22.3036C19.2082 23.4656 17.7441 24.2968 16.1422 24.7136C14.5402 25.1305 12.8569 25.1184 11.2611 24.6785C9.66532 24.2387 8.21326 23.3865 7.05068 22.2077C5.88809 21.0288 5.0559 19.5647 4.63763 17.9623L9.18784 16.7788C8.77108 15.1749 8.7837 13.4896 9.22443 11.8921C9.66516 10.2947 10.5185 8.84154 11.6986 7.67874C12.8786 6.51594 14.3439 5.6845 15.947 5.26802C17.5501 4.85155 19.2346 4.86472 20.831 5.30621L19.5745 9.85434C20.7697 10.1837 21.8883 10.7454 22.8664 11.5075C23.8445 12.2696 24.6629 13.217 25.2749 14.2957C25.8868 15.3743 26.2804 16.5631 26.433 17.794C26.5857 19.0249 26.4944 20.2738 26.1644 21.4694H26.1575Z" fill="#8DFF33"/>
<path d="M40.8008 14.6415C40.7656 12.0583 41.6255 9.87274 43.3803 8.08474C45.1352 6.29675 47.3272 5.42037 49.9564 5.45561C51.9869 5.45561 53.7272 5.95432 55.1773 6.95174C56.5773 7.88299 57.6051 9.27748 58.0806 10.8908L54.6353 12.2261C53.7961 9.82678 52.2196 8.62711 49.9059 8.62711C48.3149 8.62711 47.0661 9.1557 46.1596 10.2129C45.2531 11.27 44.7998 12.7462 44.7998 14.6415C44.7998 16.5536 45.2485 18.0382 46.1458 19.0954C47.0431 20.1525 48.2965 20.6811 49.9059 20.6811C52.2533 20.6811 53.8612 19.473 54.7294 17.0569L58.099 18.4174C57.4482 20.1778 56.4337 21.5307 55.0556 22.476C53.6774 23.4213 51.9624 23.8909 49.9105 23.8848C47.1955 23.8848 44.9989 23.0207 43.3206 21.2924C41.6423 19.5642 40.8024 17.3472 40.8008 14.6415Z" fill="#8DFF33"/>
<path d="M59.6494 23.4758V14.1865C59.6494 13.7594 59.7355 13.3368 59.9024 12.9437C60.0693 12.5507 60.3137 12.1953 60.6209 11.8989C60.9281 11.6024 61.2919 11.371 61.6905 11.2183C62.0891 11.0657 62.5144 10.9949 62.9409 11.0104L68.3019 11.2057L68.1894 14.2531L63.2211 14.0532V23.4758H59.6494Z" fill="#8DFF33"/>
<path d="M79.2927 10.8909H83.0413L77.7951 25.4637C77.4276 26.4872 76.9415 27.2295 76.3366 27.6906C75.7317 28.1518 74.9018 28.3816 73.8467 28.3801H70.0981V25.5395H73.369C73.7227 25.5646 74.0729 25.4555 74.3498 25.2339C74.6469 24.9035 74.8666 24.5109 74.9929 24.0848L75.2226 23.4321L69.1357 10.8978H72.9601L75.048 15.7056C75.6835 17.2377 76.2034 18.4037 76.6076 19.2034C76.8588 18.4818 77.2691 17.2316 77.8388 15.4528L79.2927 10.8909Z" fill="#8DFF33"/>
<path d="M83.7207 17.1901C83.7207 15.2122 84.3409 13.6034 85.5812 12.3639C86.8216 11.1244 88.4064 10.5116 90.3358 10.5254C92.2806 10.5254 93.8693 11.1382 95.102 12.3639C96.3346 13.5896 96.951 15.1984 96.951 17.1901C96.951 19.2033 96.3385 20.8228 95.1135 22.0485C93.8884 23.2742 92.2959 23.8871 90.3358 23.8871C88.4416 23.8871 86.8652 23.2535 85.6065 21.9865C84.3478 20.7194 83.7192 19.1206 83.7207 17.1901ZM92.449 20.0721C92.962 19.427 93.2177 18.4832 93.2162 17.2407C93.2147 15.9981 92.9589 15.0375 92.449 14.3588C92.1935 14.0404 91.8699 13.7836 91.502 13.6071C91.134 13.4306 90.7312 13.3389 90.3232 13.3389C89.9152 13.3389 89.5124 13.4306 89.1444 13.6071C88.7765 13.7836 88.4529 14.0404 88.1974 14.3588C87.6875 15.039 87.4318 15.9997 87.4302 17.2407C87.4287 18.4817 87.6844 19.4255 88.1974 20.0721C88.4622 20.3758 88.7889 20.6193 89.1556 20.7862C89.5222 20.953 89.9204 21.0393 90.3232 21.0393C90.726 21.0393 91.1242 20.953 91.4909 20.7862C91.8575 20.6193 92.1843 20.3758 92.449 20.0721Z" fill="#8DFF33"/>
<path d="M99.54 23.4756V5.85767H105.728C108.242 5.85767 110.284 6.6628 111.852 8.27307C113.42 9.88333 114.204 11.9892 114.204 14.5908C114.204 17.3486 113.428 19.5174 111.877 21.097C110.326 22.6766 108.229 23.4695 105.588 23.4756H99.54ZM102.055 21.159H105.2C109.44 21.159 111.561 18.978 111.562 14.6161C111.562 12.6029 111.034 11.0255 109.977 9.8841C108.921 8.74267 107.389 8.17271 105.383 8.17425H102.064L102.055 21.159Z" fill="#8DFF33"/>
<path d="M127.783 23.4756L126.148 18.8195H118.4L116.739 23.4756H114.024L120.64 5.85767H124.11L130.599 23.4756H127.783ZM119.232 16.5282H125.341L123.63 11.7227C123.229 10.497 122.785 9.23831 122.298 7.94673L122.045 8.57643L120.977 11.7227L119.232 16.5282Z" fill="#8DFF33"/>
<path d="M130.3 14.6621C130.268 11.9947 131.11 9.79226 132.827 8.05483C134.543 6.31739 136.656 5.4663 139.166 5.50154C141.68 5.4663 143.781 6.31739 145.467 8.05483C147.152 9.79226 147.975 11.9947 147.933 14.6621C147.966 17.3296 147.139 19.5312 145.455 21.2671C143.771 23.003 141.67 23.8549 139.155 23.8227C136.64 23.858 134.527 23.0061 132.815 21.2671C131.103 19.5282 130.265 17.3265 130.3 14.6621ZM145.267 14.6621C145.267 12.6704 144.709 11.0264 143.595 9.7302C142.48 8.43402 140.989 7.789 139.122 7.79513C137.244 7.79513 135.751 8.43709 134.646 9.72102C133.54 11.0049 132.989 12.652 132.992 14.6621C132.992 16.6922 133.545 18.3446 134.653 19.6193C135.76 20.8941 137.252 21.5314 139.129 21.5314C141.008 21.5314 142.5 20.8941 143.606 19.6193C144.712 18.3446 145.265 16.6922 145.267 14.6621Z" fill="#8DFF33"/>
</svg>
