<svg width="155" height="37" viewBox="0 0 155 37" fill="none" xmlns="http://www.w3.org/2000/svg">
<g clip-path="url(#clip0_6018_534)">
<path d="M61.1587 10.6333L57.5617 21.836L53.9647 10.6333H50.4707L55.7122 25.9452H59.4121L64.6527 10.6333H61.1587Z" fill="#D7F9C0"/>
<path d="M71.7675 14.9908C71.0413 14.6485 70.2055 14.477 69.2603 14.477C68.4655 14.477 67.7327 14.6003 67.0611 14.8471C66.3896 15.0938 65.8145 15.4434 65.335 15.8952C64.8554 16.347 64.5058 16.8886 64.2868 17.5193L66.7532 18.6908C66.9451 18.1973 67.2499 17.8003 67.6681 17.4988C68.0864 17.1974 68.5692 17.0463 69.1174 17.0463C69.6925 17.0463 70.1484 17.19 70.4841 17.4776C70.8199 17.7652 70.9873 18.1222 70.9873 18.5462V18.846L67.8838 19.3476C66.9933 19.4848 66.2499 19.7176 65.6536 20.0461C65.0572 20.3753 64.6152 20.7829 64.3277 21.269C64.0401 21.7551 63.8955 22.3139 63.8955 22.9437C63.8955 23.6153 64.0532 24.1945 64.3685 24.6805C64.6839 25.1674 65.1356 25.5408 65.7255 25.8006C66.3145 26.0604 67.0129 26.1911 67.8217 26.1911C68.4246 26.1911 68.9728 26.1118 69.4662 25.955C69.9596 25.7973 70.4049 25.5579 70.8019 25.2352C70.9367 25.1266 71.0658 25.0041 71.1924 24.875V25.9443H74.0697V18.5453C74.0697 17.7366 73.8671 17.0283 73.4635 16.418C73.0591 15.8086 72.4938 15.3323 71.7675 14.9892V14.9908ZM70.6679 22.7085C70.4555 23.0859 70.1573 23.3832 69.7742 23.603C69.3902 23.8219 68.945 23.9314 68.4385 23.9314C68.0545 23.9314 67.7327 23.8358 67.4729 23.6438C67.2123 23.4519 67.0824 23.1847 67.0824 22.8424C67.0824 22.4724 67.1984 22.1881 67.432 21.9895C67.6649 21.791 68.0006 21.6505 68.4393 21.568L70.9882 21.113V21.4651C70.9882 21.9168 70.882 22.3318 70.6696 22.7085H70.6679Z" fill="#D7F9C0"/>
<path d="M79.2081 10.6333H76.125V25.946H79.2081V10.6333Z" fill="#D7F9C0"/>
<path d="M84.3468 10.6333H81.2637V25.946H84.3468V10.6333Z" fill="#D7F9C0"/>
<path d="M95.703 16.0798C95.23 15.5733 94.6507 15.1787 93.9661 14.8977C93.2807 14.6167 92.4932 14.4762 91.6027 14.4762C90.5342 14.4762 89.5743 14.7302 88.7255 15.2367C87.8759 15.7441 87.2011 16.436 86.7011 17.3126C86.2003 18.19 85.9512 19.1899 85.9512 20.3132C85.9512 21.4365 86.1905 22.3825 86.6709 23.273C87.1504 24.1642 87.8285 24.8733 88.7059 25.4003C89.5825 25.928 90.6175 26.1919 91.8094 26.1919C92.5765 26.1919 93.2824 26.0783 93.9261 25.8528C94.5699 25.6265 95.1287 25.3079 95.6008 24.897C96.0738 24.4861 96.4194 24.0066 96.6392 23.4584L94.1728 22.2869C93.9539 22.6709 93.6492 22.9723 93.2587 23.1913C92.8682 23.411 92.3984 23.5205 91.8511 23.5205C91.2482 23.5205 90.7343 23.3873 90.3095 23.1194C89.8847 22.8522 89.5694 22.4789 89.3643 21.9993C89.2581 21.7526 89.1879 21.4847 89.1511 21.1979H97.0109C97.0656 21.0476 97.1032 20.8663 97.1236 20.653C97.144 20.4406 97.1547 20.225 97.1547 20.0052C97.1547 19.2242 97.0313 18.5012 96.7846 17.837C96.5379 17.1729 96.1784 16.5871 95.7054 16.0798H95.703ZM90.2254 17.3338C90.6085 17.074 91.0676 16.9433 91.6027 16.9433C92.1378 16.9433 92.6133 17.0765 92.9899 17.3444C93.3665 17.6116 93.6304 17.9751 93.7807 18.4334C93.833 18.5935 93.8673 18.7618 93.8845 18.9366H89.2287C89.2639 18.7773 89.308 18.6262 89.3611 18.4841C89.553 17.9776 89.8406 17.5936 90.2246 17.333L90.2254 17.3338Z" fill="#D7F9C0"/>
<path d="M103.811 21.9438L101.159 14.7229H97.8496L102.271 25.9411L102.063 26.4173C101.899 26.7874 101.686 27.1158 101.426 27.4042C101.166 27.6918 100.734 27.8356 100.131 27.8356C99.9116 27.8356 99.6722 27.8151 99.4116 27.7735C99.151 27.7326 98.9255 27.6844 98.7335 27.6297V30.1581C98.9664 30.2815 99.2368 30.3705 99.5456 30.4252C99.8536 30.48 100.172 30.5078 100.501 30.5078C101.186 30.5078 101.807 30.377 102.362 30.1173C102.916 29.8567 103.413 29.4662 103.852 28.9458C104.29 28.4246 104.66 27.7743 104.962 26.9933L109.771 14.7229H106.462L103.811 21.9438Z" fill="#D7F9C0"/>
<path d="M123.295 14.3324C122.624 13.1813 121.679 12.277 120.459 11.6193C119.239 10.9617 117.801 10.6325 116.143 10.6325H111.148V25.9452H116.143C117.801 25.9452 119.239 25.6159 120.459 24.9583C121.679 24.3007 122.624 23.393 123.295 22.2346C123.967 21.077 124.303 19.7577 124.303 18.2782C124.303 16.7987 123.967 15.4826 123.295 14.3316V14.3324ZM120.511 20.8581C120.106 21.5909 119.541 22.1603 118.815 22.5639C118.088 22.9682 117.225 23.17 116.225 23.17H114.334V13.4068H116.225C117.225 13.4068 118.088 13.6053 118.815 14.0032C119.541 14.401 120.106 14.9622 120.511 15.6885C120.915 16.4148 121.117 17.2783 121.117 18.2782C121.117 19.2781 120.915 20.1245 120.511 20.8581Z" fill="#D7F9C0"/>
<path d="M129.349 10.6333L124.17 25.946H127.623L128.651 22.822H134.262L135.29 25.946H138.764L133.584 10.6333H129.35H129.349ZM129.534 20.0469L131.464 14.1388L133.378 20.0469H129.534Z" fill="#D7F9C0"/>
<path d="M154.394 15.155C153.99 14.196 153.421 13.3602 152.688 12.6479C151.955 11.9355 151.095 11.3808 150.108 10.9829C149.122 10.5859 148.046 10.3866 146.882 10.3866C145.717 10.3866 144.642 10.5851 143.655 10.9829C142.668 11.3808 141.808 11.9355 141.076 12.6479C140.343 13.3602 139.773 14.1968 139.37 15.155C138.965 16.1141 138.764 17.1557 138.764 18.279C138.764 19.4023 138.969 20.4439 139.38 21.403C139.791 22.3621 140.363 23.2019 141.097 23.9208C141.83 24.6405 142.69 25.1985 143.676 25.5955C144.663 25.9925 145.731 26.1919 146.882 26.1919C148.033 26.1919 149.102 25.9934 150.089 25.5955C151.076 25.1985 151.935 24.6397 152.669 23.9208C153.402 23.2011 153.974 22.3621 154.385 21.403C154.796 20.4439 155.002 19.4023 155.002 18.279C155.002 17.1557 154.799 16.1141 154.396 15.155H154.394ZM151.444 20.314C151.197 20.9308 150.848 21.4618 150.396 21.907C149.944 22.3523 149.42 22.6987 148.823 22.9445C148.227 23.1913 147.58 23.3146 146.881 23.3146C146.181 23.3146 145.534 23.1913 144.939 22.9445C144.343 22.6978 143.819 22.3523 143.366 21.907C142.915 21.4618 142.565 20.9308 142.318 20.314C142.071 19.6972 141.948 19.0192 141.948 18.279C141.948 17.5389 142.071 16.8641 142.318 16.2546C142.565 15.6452 142.915 15.1142 143.366 14.6616C143.819 14.209 144.343 13.8635 144.939 13.6233C145.535 13.3839 146.182 13.2638 146.881 13.2638C147.579 13.2638 148.227 13.3839 148.823 13.6233C149.42 13.8635 149.943 14.209 150.396 14.6616C150.849 15.1134 151.197 15.6452 151.444 16.2546C151.691 16.8641 151.814 17.5389 151.814 18.279C151.814 19.0192 151.691 19.6972 151.444 20.314Z" fill="#D7F9C0"/>
<path d="M42.1037 1.58333C41.7279 1.01229 41.0973 0.669991 40.4168 0.669174H40.3931C39.0786 0.669174 37.7903 0.891381 36.5633 1.32844C35.547 1.69035 34.5928 2.1944 33.7187 2.82671C32.5946 1.36112 30.8668 0.500885 28.9968 0.500885C25.7127 0.500885 23.0405 3.17309 23.0405 6.45718C23.0405 7.03557 23.123 7.60334 23.2856 8.15151C22.1092 8.68415 21.0235 9.381 20.0554 10.2241C19.8953 10.3638 19.6616 10.3801 19.4746 10.2649C18.7156 9.79682 17.8962 9.43819 17.0393 9.19882C16.8408 9.14327 16.6921 8.97662 16.661 8.7732C16.313 6.53806 15.1734 4.48918 13.4529 3.00317C11.7145 1.5 9.48994 0.673259 7.18945 0.673259C5.20102 0.673259 3.29429 1.27698 1.6743 2.41824C0.885956 2.97376 0.588591 4.0178 0.966833 4.90091L9.37966 24.5213L11.8288 30.2358C12.6752 32.2111 14.0509 33.8352 15.8065 34.9332C17.4453 35.9576 19.3545 36.4993 21.3282 36.4993C23.3019 36.4993 25.2119 35.9576 26.8499 34.9332C28.6055 33.8352 29.9804 32.2111 30.8275 30.2358L42.2769 3.52029C42.549 2.88553 42.4844 2.1609 42.1037 1.58251V1.58333ZM28.9968 1.51716C30.5522 1.51716 31.9892 2.23524 32.9214 3.45738C32.9189 3.45983 32.9165 3.46229 32.9132 3.46474C32.8503 3.51947 32.7882 3.57502 32.7261 3.63139C32.7139 3.64201 32.7016 3.65345 32.6902 3.66489C32.6289 3.72125 32.5676 3.77844 32.508 3.83563C32.4998 3.8438 32.4916 3.85196 32.4835 3.86013C32.4255 3.91569 32.3683 3.97205 32.3119 4.02924C32.3054 4.03578 32.298 4.04231 32.2915 4.04966C32.2327 4.1093 32.1747 4.16894 32.1175 4.22939C32.1061 4.24164 32.0946 4.2539 32.0832 4.26615C32.0268 4.32661 31.9713 4.38706 31.9157 4.44833C31.9067 4.45895 31.8977 4.46875 31.8879 4.47937C31.834 4.53983 31.7809 4.60028 31.7286 4.66155C31.7245 4.66645 31.7196 4.67217 31.7147 4.67707C31.66 4.74079 31.6069 4.80533 31.5538 4.87069C31.5432 4.88376 31.5326 4.89683 31.5219 4.90908C31.4705 4.9728 31.4198 5.03734 31.3692 5.10188C31.3602 5.11413 31.3512 5.12557 31.3414 5.13782C31.2907 5.204 31.2401 5.27099 31.1911 5.33797C31.1894 5.34043 31.1878 5.34206 31.1862 5.34451C31.1363 5.41313 31.0865 5.48257 31.0383 5.55201C31.0293 5.56508 31.0203 5.57815 31.0114 5.59123C30.9648 5.65903 30.9182 5.72684 30.8733 5.79546C30.8643 5.80853 30.8561 5.8216 30.8472 5.83549C30.8006 5.90656 30.7548 5.97764 30.7099 6.05034C30.7083 6.0528 30.7066 6.05525 30.7058 6.0577C30.6617 6.12877 30.6184 6.19984 30.5759 6.27255C30.5686 6.28481 30.5612 6.29706 30.5539 6.30931C30.5122 6.38039 30.4714 6.45228 30.4305 6.52417C30.4223 6.53806 30.415 6.55194 30.4068 6.56583C30.366 6.63936 30.3259 6.7137 30.2867 6.78804C30.2835 6.79376 30.281 6.79948 30.2777 6.80519C30.2402 6.8779 30.2026 6.95061 30.1666 7.02413C30.1634 7.03149 30.1593 7.03884 30.1552 7.04619C30.1446 7.04537 30.134 7.04374 30.1233 7.04292C30.0972 7.04047 30.0711 7.0372 30.0449 7.03475C30.0024 7.03067 29.9608 7.02658 29.9183 7.0225C29.8922 7.02005 29.866 7.0176 29.839 7.01596C29.7958 7.0127 29.7533 7.00861 29.71 7.00616C29.6846 7.00453 29.6593 7.00208 29.6348 7.00044C29.5891 6.99718 29.5425 6.99472 29.4968 6.99227C29.4747 6.99064 29.4526 6.98982 29.4314 6.98819C29.3742 6.98492 29.317 6.98247 29.2598 6.98084C29.2492 6.98084 29.2386 6.98002 29.228 6.9792C29.1585 6.97675 29.0891 6.9743 29.0197 6.97348C29.0107 6.97348 29.0017 6.97348 28.9927 6.97348C28.9331 6.97267 28.8742 6.97185 28.8146 6.97103C28.795 6.97103 28.7754 6.97103 28.755 6.97103C28.706 6.97103 28.6578 6.97103 28.6087 6.97103C28.5859 6.97103 28.5638 6.97103 28.5409 6.97185C28.4944 6.97185 28.4486 6.97348 28.4021 6.97512C28.3792 6.97512 28.3555 6.97675 28.3326 6.97675C28.2861 6.97839 28.2387 6.98002 28.1921 6.98165C28.17 6.98247 28.1488 6.98329 28.1267 6.9841C28.0753 6.98656 28.0238 6.98901 27.9723 6.99227C27.956 6.99309 27.9389 6.99391 27.9225 6.99472C27.7853 7.00371 27.6472 7.01433 27.51 7.0274C27.4944 7.02904 27.4797 7.03067 27.4642 7.0323C27.4119 7.0372 27.3596 7.04292 27.3065 7.04864C27.2845 7.05109 27.2632 7.05354 27.2412 7.05599C27.1954 7.0609 27.1489 7.06661 27.1031 7.07233C27.0794 7.0756 27.0557 7.07805 27.0321 7.08132C26.9871 7.08704 26.943 7.09357 26.8989 7.09929C26.8752 7.10256 26.8515 7.10583 26.827 7.10991C26.7812 7.11645 26.7355 7.1238 26.6898 7.13115C26.6677 7.13442 26.6456 7.13769 26.6244 7.14177C26.5721 7.14994 26.519 7.15893 26.4667 7.16873C26.452 7.17118 26.4373 7.17363 26.4226 7.17608C26.3548 7.18834 26.287 7.20059 26.2192 7.21366C26.2102 7.2153 26.2004 7.21775 26.1914 7.21938C26.1342 7.23082 26.0771 7.24226 26.0199 7.25451C25.9978 7.25941 25.9757 7.26431 25.9537 7.2684C25.9088 7.2782 25.8646 7.288 25.8197 7.29781C25.7944 7.30353 25.7699 7.30925 25.7446 7.31496C25.7029 7.32477 25.662 7.33457 25.6204 7.34437C25.5942 7.35091 25.5681 7.35744 25.542 7.36398C25.5011 7.3746 25.4603 7.3844 25.4194 7.39502C25.3941 7.40156 25.3688 7.40809 25.3426 7.41545C25.2993 7.42688 25.2568 7.43832 25.2144 7.45058C25.1915 7.45711 25.1686 7.46283 25.1457 7.46936C25.0918 7.48489 25.0387 7.50041 24.9848 7.51593C24.9734 7.5192 24.9611 7.52247 24.9497 7.52655C24.8851 7.54616 24.8198 7.56576 24.7552 7.58619C24.7348 7.59272 24.7144 7.59926 24.694 7.60579C24.6499 7.6205 24.6049 7.63439 24.5608 7.64909C24.5355 7.65726 24.5102 7.66625 24.4857 7.67442C24.4456 7.6883 24.4064 7.70138 24.3672 7.71526C24.3411 7.72425 24.3149 7.73405 24.288 7.74304C24.2684 7.75039 24.2487 7.75693 24.2291 7.76346C24.1131 7.33947 24.0543 6.90078 24.0543 6.45473C24.0543 3.73187 26.2698 1.51634 28.9927 1.51634L28.9968 1.51716ZM2.26005 3.24988C3.70766 2.22953 5.41261 1.69035 7.18945 1.69035C9.24568 1.69035 11.2341 2.42968 12.7879 3.7719C14.3262 5.10025 15.3449 6.93182 15.6562 8.92923C15.7493 9.52478 16.1847 10.0149 16.7656 10.1775C17.5311 10.3916 18.2622 10.7118 18.9411 11.1301C19.5097 11.4805 20.2261 11.4242 20.7245 10.9904C21.677 10.1604 22.7546 9.48393 23.9261 8.97988C23.9865 8.95374 24.047 8.92923 24.1074 8.90391L24.1123 8.90146C24.1711 8.87695 24.2308 8.85326 24.2904 8.83038C24.31 8.82221 24.3304 8.81486 24.35 8.80751C24.3901 8.79199 24.4293 8.77728 24.4693 8.76176C24.493 8.75277 24.5167 8.74461 24.5404 8.73562C24.5763 8.72255 24.6123 8.70948 24.649 8.69641C24.6744 8.68742 24.6997 8.67843 24.725 8.66945C24.7601 8.65719 24.7953 8.64494 24.8304 8.6335C24.8565 8.62452 24.8827 8.61635 24.908 8.60736C24.9423 8.59592 24.9775 8.58449 25.0126 8.57305C25.0387 8.56488 25.0649 8.55589 25.0918 8.54772C25.127 8.5371 25.1621 8.52567 25.1972 8.51505C25.2234 8.50688 25.2495 8.49952 25.2756 8.49135C25.3116 8.48073 25.3483 8.47011 25.3843 8.45949C25.4088 8.45214 25.4341 8.44479 25.4586 8.43825C25.4987 8.42682 25.5395 8.4162 25.5795 8.40476C25.6008 8.39904 25.6212 8.39332 25.6424 8.3876C25.7029 8.37208 25.7633 8.35656 25.8238 8.34104C25.8426 8.33614 25.8622 8.33205 25.881 8.32715C25.9235 8.31653 25.9659 8.30673 26.0084 8.29692C26.0346 8.2912 26.0607 8.28549 26.0869 8.27895C26.122 8.27078 26.1579 8.26343 26.1931 8.25526C26.2216 8.24954 26.2502 8.24301 26.278 8.23729C26.3115 8.23075 26.345 8.2234 26.3785 8.21686C26.4079 8.21114 26.4373 8.20543 26.4667 8.19971C26.4994 8.19317 26.5321 8.18745 26.5648 8.18173C26.595 8.17602 26.6244 8.17112 26.6546 8.1654C26.6873 8.15968 26.72 8.15396 26.7527 8.14906C26.7829 8.14416 26.8123 8.13925 26.8425 8.13435C26.8752 8.12945 26.9079 8.12455 26.9406 8.11965C26.9708 8.11475 27.0002 8.11066 27.0304 8.10658C27.0639 8.10168 27.0974 8.09759 27.1301 8.09269C27.1595 8.0886 27.1889 8.08452 27.2183 8.08125C27.2543 8.07635 27.291 8.07227 27.3278 8.06818C27.3637 8.0641 27.4005 8.06001 27.4364 8.05593C27.4871 8.05021 27.5369 8.04531 27.5876 8.04041C27.617 8.03795 27.6464 8.0355 27.6758 8.03224C27.7093 8.02897 27.7428 8.02652 27.7763 8.02325C27.8073 8.0208 27.8384 8.01835 27.8686 8.01671C27.9005 8.01426 27.9331 8.01181 27.965 8.01018C27.996 8.00854 28.0279 8.00609 28.0589 8.00446C28.0908 8.00283 28.1227 8.00119 28.1545 7.99956C28.1856 7.99792 28.2174 7.99629 28.2485 7.99547C28.2803 7.99384 28.3122 7.99302 28.3441 7.99221C28.3751 7.99139 28.4061 7.99057 28.438 7.98975C28.4707 7.98894 28.5025 7.98812 28.5352 7.98812C28.5663 7.98812 28.5965 7.9873 28.6275 7.98649C28.661 7.98649 28.6945 7.98649 28.728 7.98649C28.7574 7.98649 28.7876 7.98649 28.8171 7.98649C28.853 7.98649 28.8889 7.98649 28.9257 7.98812C28.9527 7.98812 28.9796 7.98812 29.0066 7.98894C29.0605 7.98975 29.1152 7.99139 29.1692 7.99384C29.1904 7.99384 29.2125 7.99547 29.2337 7.99629C29.2835 7.99792 29.3325 8.00037 29.3824 8.00283C29.4061 8.00364 29.4289 8.00528 29.4526 8.00691C29.4927 8.00936 29.5327 8.01181 29.5735 8.01426C29.5989 8.0159 29.6234 8.01753 29.6487 8.01998C29.6757 8.02162 29.7026 8.02407 29.7296 8.02652C29.7222 8.04531 29.7157 8.0641 29.7083 8.08289C29.701 8.10249 29.6936 8.12292 29.6863 8.14252C29.6757 8.17193 29.665 8.20216 29.6544 8.23157C29.6479 8.24954 29.6414 8.26833 29.6348 8.2863C29.6234 8.31898 29.6119 8.35084 29.6013 8.38352C29.5956 8.39904 29.5907 8.41538 29.585 8.4309C29.5686 8.4791 29.5531 8.5273 29.5376 8.5755C29.3023 9.30748 28.7174 9.89077 27.9748 10.1359C27.7583 10.2069 27.5443 10.2886 27.3343 10.3793C26.9847 10.5304 26.6448 10.7077 26.3189 10.9095C25.4031 11.4773 24.6123 12.237 24.0028 13.1209C23.9734 13.1634 23.9448 13.2051 23.9171 13.2484C23.8607 13.3333 23.806 13.4199 23.7529 13.5074C23.5413 13.857 23.3566 14.223 23.2031 14.6021C22.7832 15.6387 21.7342 16.2809 20.6518 16.1632C20.276 16.1224 19.892 16.1019 19.5121 16.1019C18.3039 16.1019 17.1201 16.3054 15.992 16.7073C14.9022 17.0953 13.8883 17.659 12.9791 18.3828C12.9276 18.4245 12.8762 18.4662 12.8247 18.5086C12.8083 18.5217 12.7928 18.5356 12.7765 18.5487C12.7414 18.5781 12.7062 18.6083 12.6711 18.6385C12.6531 18.6541 12.636 18.6688 12.618 18.6843C12.5829 18.7145 12.5486 18.7456 12.5142 18.7758C12.4987 18.7897 12.4832 18.8036 12.4677 18.8175C12.4187 18.8616 12.3705 18.9065 12.3231 18.9514C12.319 18.9555 12.3149 18.9596 12.3108 18.9629C12.2667 19.0045 12.2234 19.0462 12.1801 19.0887C12.1646 19.1042 12.1483 19.1197 12.1327 19.1352C12.1009 19.1663 12.0698 19.1981 12.0388 19.23C12.0216 19.2472 12.0045 19.2643 11.9881 19.2823C11.9571 19.315 11.9261 19.3468 11.895 19.3803C11.8803 19.3958 11.8656 19.4114 11.8509 19.4269C11.8068 19.4743 11.7627 19.5217 11.7194 19.5698C11.712 19.578 11.7047 19.5862 11.6973 19.5952C11.6605 19.636 11.6246 19.6769 11.5887 19.7185C11.5731 19.7365 11.5576 19.7545 11.5429 19.7725C11.5151 19.8051 11.4874 19.8378 11.4596 19.8705C11.4432 19.8901 11.4269 19.9089 11.4114 19.9285C11.3836 19.962 11.3558 19.9963 11.3289 20.0306C11.315 20.0478 11.3011 20.0657 11.2872 20.0829C11.2472 20.1335 11.208 20.1834 11.1696 20.2348C11.1606 20.2463 11.1516 20.2585 11.1426 20.27C11.1116 20.3108 11.0813 20.3517 11.0511 20.3925C11.0364 20.4121 11.0225 20.4325 11.0078 20.4521C10.9833 20.4865 10.9588 20.5199 10.9351 20.5543C10.9204 20.5755 10.9057 20.5959 10.891 20.6172C10.8657 20.6531 10.8412 20.6891 10.8167 20.7258C10.8044 20.7446 10.7913 20.7626 10.7791 20.7814C10.7439 20.8345 10.7088 20.8876 10.6745 20.9415C10.6655 20.9554 10.6573 20.9693 10.6484 20.9832C10.6222 21.0248 10.5961 21.0665 10.5699 21.109C10.5569 21.1302 10.5446 21.1506 10.5315 21.1719C10.5095 21.2078 10.4882 21.2438 10.467 21.2805C10.4539 21.3026 10.4417 21.3238 10.4286 21.3459C10.4057 21.3851 10.3837 21.4235 10.3616 21.4627C10.351 21.4807 10.3412 21.4995 10.3306 21.5174C10.2995 21.5738 10.2685 21.6302 10.2383 21.6865C10.2309 21.7004 10.2236 21.7151 10.2162 21.7298C10.1933 21.7739 10.1705 21.8181 10.1476 21.8622C10.137 21.8834 10.1263 21.9047 10.1157 21.9259C10.0961 21.9651 10.0773 22.0035 10.0585 22.0427C10.0479 22.064 10.0381 22.086 10.0275 22.1073C10.0071 22.1506 9.98664 22.193 9.96704 22.2363C9.95968 22.2527 9.95151 22.2698 9.94416 22.2862C9.9172 22.3458 9.89106 22.4054 9.86492 22.4651C9.8592 22.4781 9.85348 22.492 9.84776 22.5051C9.82734 22.5525 9.80773 22.6007 9.78813 22.6481C9.77996 22.6685 9.77179 22.6889 9.76362 22.7093C9.75463 22.7314 9.74565 22.7526 9.73748 22.7747L1.90223 4.4998C1.71188 4.05538 1.8622 3.52927 2.26005 3.24906V3.24988ZM41.3415 3.11999L29.8922 29.8355C29.1275 31.6189 27.889 33.0836 26.3107 34.0713C24.8345 34.9945 23.1116 35.483 21.3282 35.483C19.5448 35.483 17.8219 34.9953 16.3457 34.0713C14.7665 33.0836 13.5281 31.6189 12.7642 29.8355L10.3445 24.1896C10.3461 24.1847 10.3469 24.179 10.3485 24.1741C10.3551 24.1488 10.3624 24.1235 10.369 24.0981C10.3788 24.0614 10.3886 24.0246 10.3992 23.9878C10.4065 23.9625 10.4139 23.9372 10.4221 23.9111C10.4327 23.8751 10.4433 23.8383 10.4547 23.8024C10.4629 23.7771 10.4711 23.7509 10.4793 23.7256C10.4907 23.6897 10.5021 23.6545 10.5136 23.6186C10.5217 23.5925 10.5307 23.5671 10.5397 23.5418C10.552 23.5067 10.5634 23.4715 10.5765 23.4364C10.5855 23.4111 10.5953 23.3849 10.6042 23.3596C10.6173 23.3245 10.6296 23.2902 10.6426 23.2559C10.6524 23.2305 10.6623 23.2044 10.6721 23.1791C10.6851 23.1448 10.699 23.1105 10.7129 23.0761C10.7235 23.0508 10.7333 23.0255 10.7439 23.0002C10.7578 22.9659 10.7717 22.9324 10.7864 22.8981C10.797 22.8727 10.8085 22.8474 10.8191 22.8221C10.8338 22.7886 10.8485 22.7551 10.864 22.7216C10.8755 22.6963 10.8869 22.6718 10.8983 22.6464C10.9139 22.6129 10.9294 22.5803 10.9449 22.5468C10.9572 22.5214 10.9686 22.4969 10.9809 22.4716C10.9964 22.4389 11.0127 22.4063 11.0291 22.3736C11.0413 22.3491 11.0544 22.3237 11.0666 22.2992C11.083 22.2666 11.1001 22.2347 11.1165 22.202C11.1295 22.1775 11.1426 22.153 11.1557 22.1285C11.1728 22.0966 11.19 22.0648 11.208 22.0329C11.2219 22.0084 11.2349 21.9839 11.2488 21.9594C11.2668 21.9275 11.2848 21.8965 11.3027 21.8646C11.3166 21.8401 11.3305 21.8164 11.3452 21.7919C11.364 21.7609 11.382 21.7298 11.4008 21.6988C11.4155 21.6751 11.4302 21.6506 11.4449 21.6269C11.4637 21.5959 11.4833 21.5656 11.5021 21.5354C11.5168 21.5117 11.5323 21.488 11.5478 21.4643C11.5674 21.4341 11.587 21.4039 11.6066 21.3736C11.6222 21.35 11.6377 21.3263 11.654 21.3026C11.6744 21.2732 11.694 21.2429 11.7153 21.2135C11.7316 21.1898 11.7471 21.167 11.7635 21.1441C11.7839 21.1147 11.8051 21.0853 11.8264 21.0567C11.8427 21.0338 11.8599 21.0109 11.8762 20.9872C11.8975 20.9586 11.9187 20.9301 11.9408 20.9006C11.9579 20.8778 11.9751 20.8549 11.9922 20.8328C12.0143 20.8042 12.0363 20.7765 12.0584 20.7479C12.0764 20.7258 12.0935 20.7029 12.1115 20.6809C12.1336 20.6531 12.1564 20.6253 12.1793 20.5976C12.1973 20.5755 12.2152 20.5534 12.234 20.5314C12.2569 20.5036 12.2798 20.4767 12.3035 20.4497C12.3223 20.4276 12.3402 20.4064 12.359 20.3843C12.3827 20.3574 12.4064 20.3304 12.4301 20.3035C12.4489 20.2822 12.4677 20.261 12.4873 20.2397C12.511 20.2128 12.5355 20.1866 12.56 20.1605C12.5796 20.1393 12.5984 20.1188 12.618 20.0976C12.6425 20.0714 12.6678 20.0453 12.6923 20.0192C12.7119 19.9987 12.7316 19.9783 12.752 19.9579C12.7773 19.9318 12.8026 19.9064 12.8288 19.8811C12.8492 19.8615 12.8688 19.8411 12.8892 19.8215C12.9154 19.7961 12.9423 19.7708 12.9685 19.7455C12.9889 19.7259 13.0085 19.7071 13.0289 19.6875C13.0559 19.6622 13.0837 19.6368 13.1114 19.6115C13.131 19.5935 13.1515 19.5748 13.1711 19.5568C13.1997 19.5306 13.2299 19.5045 13.2585 19.4792C13.2773 19.462 13.2969 19.4449 13.3157 19.4285C13.3483 19.3999 13.381 19.373 13.4145 19.3452C13.4309 19.3313 13.4472 19.3174 13.4635 19.3035C13.5134 19.2619 13.5632 19.221 13.6138 19.181C14.4349 18.5274 15.3498 18.0185 16.3334 17.668C17.3513 17.3053 18.4207 17.1215 19.5121 17.1215C19.8561 17.1215 20.2033 17.1403 20.5423 17.177C20.664 17.1901 20.7849 17.1966 20.905 17.1966C22.3036 17.1966 23.6034 16.3266 24.1458 14.986C24.6793 13.6683 25.6416 12.5287 26.854 11.7763C27.3065 11.4952 27.7902 11.2698 28.2918 11.1047C29.3424 10.7584 30.1699 9.9308 30.5049 8.89002C30.6225 8.52567 30.763 8.16049 30.9223 7.80676C31.5971 6.31176 32.6346 4.97852 33.9213 3.95163C34.8216 3.23354 35.8248 2.67394 36.9047 2.28916C38.0215 1.8905 39.1954 1.68871 40.3923 1.68871H40.4143C40.7574 1.68871 41.063 1.85537 41.2533 2.14538C41.4453 2.43703 41.478 2.80302 41.3407 3.12326L41.3415 3.11999Z" fill="#D7F9C0"/>
<path d="M29.925 14.169C28.1424 14.169 26.6924 15.6191 26.6924 17.4016C26.6924 19.1842 28.1424 20.6343 29.925 20.6343C31.7076 20.6343 33.1576 19.1842 33.1576 17.4016C33.1576 15.6191 31.7076 14.169 29.925 14.169ZM29.925 19.6155C28.7037 19.6155 27.7103 18.6221 27.7103 17.4008C27.7103 16.1795 28.7037 15.1861 29.925 15.1861C31.1463 15.1861 32.1397 16.1795 32.1397 17.4008C32.1397 18.6221 31.1463 19.6155 29.925 19.6155Z" fill="#D7F9C0"/>
<path d="M25.8672 26.0889C24.5854 26.0889 23.543 27.1314 23.543 28.4131C23.543 29.6949 24.5854 30.7373 25.8672 30.7373C27.1489 30.7373 28.1913 29.6949 28.1913 28.4131C28.1913 27.1314 27.1489 26.0889 25.8672 26.0889ZM25.8672 29.7202C25.1466 29.7202 24.5601 29.1337 24.5601 28.4131C24.5601 27.6926 25.1466 27.106 25.8672 27.106C26.5877 27.106 27.1743 27.6926 27.1743 28.4131C27.1743 29.1337 26.5877 29.7202 25.8672 29.7202Z" fill="#D7F9C0"/>
<path d="M13.8874 15.1632C14.9184 15.1632 15.7582 14.3242 15.7582 13.2924C15.7582 12.2606 14.9192 11.4216 13.8874 11.4216C12.8556 11.4216 12.0166 12.2606 12.0166 13.2924C12.0166 14.3242 12.8556 15.1632 13.8874 15.1632ZM13.8874 12.4395C14.3579 12.4395 14.7403 12.8219 14.7403 13.2924C14.7403 13.763 14.3579 14.1453 13.8874 14.1453C13.4168 14.1453 13.0345 13.763 13.0345 13.2924C13.0345 12.8219 13.4168 12.4395 13.8874 12.4395Z" fill="#D7F9C0"/>
<path d="M11.396 7.30509C11.396 5.64752 10.048 4.29958 8.39044 4.29958C7.63804 4.29958 6.9273 4.57407 6.37424 5.07648C6.33747 5.10998 6.30071 5.14429 6.26558 5.18024C5.69781 5.74801 5.38574 6.50286 5.38574 7.30509C5.38574 8.96184 6.73369 10.3106 8.39126 10.3106C9.19431 10.3106 9.94834 9.99772 10.5161 9.43076C11.0839 8.86299 11.396 8.10814 11.396 7.30591V7.30509ZM9.79639 8.71104C9.4206 9.08683 8.92145 9.29352 8.39044 9.29352C7.29411 9.29352 6.40283 8.40142 6.40283 7.30591C6.40283 6.7749 6.60951 6.27575 6.98531 5.89996C7.3611 5.52417 7.86025 5.31748 8.39126 5.31748C9.48759 5.31748 10.3789 6.20958 10.3789 7.30509C10.3789 7.8361 10.1722 8.33525 9.79639 8.71104Z" fill="#D7F9C0"/>
<path d="M22.0724 20.3606C21.534 20.1833 20.9589 20.225 20.4524 20.4807C18.2426 21.5933 16.3808 23.2607 15.0418 25.3218C14.9536 25.4583 14.867 25.5955 14.7837 25.7352C14.4912 26.2213 14.4063 26.7915 14.5435 27.3421C14.6808 27.8927 15.0239 28.3559 15.5099 28.6484C15.5933 28.6991 15.6799 28.7432 15.7681 28.7808C16.0328 28.8943 16.3146 28.9523 16.5997 28.9523C16.5997 28.9523 16.6022 28.9523 16.6038 28.9523C16.6872 28.9523 16.7705 28.9474 16.8538 28.9368C16.942 28.9262 17.0295 28.9098 17.1169 28.8886C17.6675 28.7513 18.1307 28.4082 18.4231 27.9222C19.3626 26.3594 20.7245 25.0972 22.3624 24.2729C23.4081 23.7468 23.8305 22.4675 23.3035 21.4226C23.0487 20.9161 22.6116 20.5395 22.0732 20.3614L22.0724 20.3606ZM21.9041 23.3636C20.0946 24.2753 18.589 25.6699 17.5507 27.3977C17.3987 27.6509 17.1569 27.8298 16.871 27.9009C16.728 27.9369 16.5818 27.9434 16.4404 27.9222C16.4364 27.9222 16.4331 27.9205 16.429 27.9205C16.4151 27.9181 16.4012 27.9156 16.3873 27.9132C16.264 27.8887 16.1455 27.8429 16.0344 27.7759C15.7812 27.624 15.6023 27.3822 15.5312 27.0962C15.4601 26.8103 15.5042 26.5129 15.6562 26.2597C16.9102 24.1732 18.727 22.4895 20.9107 21.3899C20.9287 21.3809 20.9475 21.3719 20.9655 21.3646C20.9712 21.3621 20.9777 21.3597 20.9842 21.3572C20.9965 21.3523 21.0096 21.3466 21.0218 21.3425C21.0292 21.3401 21.0365 21.3376 21.0439 21.3344C21.0553 21.3303 21.0676 21.3262 21.079 21.3229C21.0864 21.3205 21.0937 21.318 21.1019 21.3164C21.1141 21.3131 21.1264 21.3099 21.1386 21.3066C21.146 21.305 21.1525 21.3025 21.1599 21.3009C21.1746 21.2976 21.1893 21.2943 21.204 21.2919C21.2089 21.2911 21.213 21.2903 21.2179 21.2894C21.2375 21.2862 21.2563 21.2829 21.2759 21.2813C21.2816 21.2813 21.2881 21.2804 21.2939 21.2796C21.3078 21.278 21.3216 21.2772 21.3355 21.2764C21.3429 21.2764 21.3502 21.2764 21.3576 21.2755C21.3698 21.2755 21.3829 21.2747 21.3952 21.2747C21.4017 21.2747 21.4082 21.2747 21.4148 21.2747C21.4401 21.2747 21.4662 21.2755 21.4916 21.278C21.4948 21.278 21.4973 21.278 21.5006 21.2788C21.5242 21.2813 21.5479 21.2837 21.5724 21.2878C21.5773 21.2878 21.5814 21.2894 21.5863 21.2903C21.6117 21.2943 21.637 21.2992 21.6615 21.3058C21.6664 21.3074 21.6721 21.3082 21.677 21.3099C21.7032 21.3164 21.7285 21.3237 21.7538 21.3319C22.034 21.4242 22.2619 21.6203 22.3943 21.8842C22.668 22.4282 22.4482 23.094 21.9041 23.3685V23.3636Z" fill="#D7F9C0"/>
</g>
<defs>
<clipPath id="clip0_6018_534">
<rect width="154.196" height="36" fill="white" transform="translate(0.803711 0.5)"/>
</clipPath>
</defs>
</svg>
