<svg width="202" height="32" viewBox="0 0 202 32" fill="none" xmlns="http://www.w3.org/2000/svg">
<g clip-path="url(#clip0_5852_12200)">
<path d="M27.3146 5.9314H19.1148L22.0834 8.89978H26.0853L30.5194 13.3309V13.3336L26.0424 17.8103H19.257L13.2876 11.8413H7.44434V13.3255V14.8097H12.0502L18.0196 20.7787H27.2717L33.2357 14.8177L33.2331 11.8494L27.3146 5.9314Z" fill="#8DFF33"/>
<path d="M6.52118 20.7733H14.7211L11.7525 17.8049H7.75049L3.28954 13.3443V13.3416L7.73171 8.89976H14.5171L20.5214 14.8338L26.3298 14.8687V13.3845V11.8655H21.7588L15.7893 5.89648L6.50239 5.93138L0.573242 11.8601V14.8285L6.52118 20.7733Z" fill="#8DFF33"/>
<path d="M9.44922 23.7524H24.6116L30.7582 29.9012L28.6619 32L23.3823 26.7208H12.4178L9.44922 23.7524Z" fill="#8DFF33"/>
<path d="M30.7449 25.7143L28.6433 23.6155L36.1775 16.0845V10.5879L28.5574 2.96838H15.1182L18.0868 0H29.7867L39.1461 9.35872V17.3138L31.6226 24.834L31.3596 25.097L30.7449 25.7143Z" fill="#8DFF33"/>
<path d="M51.0478 21.1651C50.0305 20.6605 49.228 19.9144 48.6348 18.9241C48.0443 17.9337 47.749 16.7528 47.749 15.3786C47.749 13.1886 48.3368 11.5165 49.5098 10.3598C50.6827 9.20301 52.3039 8.62598 54.3734 8.62598C55.5034 8.62598 56.4508 8.74675 57.2158 8.99099C57.9808 9.23522 58.7189 9.62438 59.4329 10.1638V12.6679H57.0091V11.2347C56.6092 11.0093 56.2281 10.8536 55.863 10.765C55.498 10.6792 55.0014 10.6335 54.376 10.6335C53.2111 10.6335 52.269 11.02 51.547 11.793C50.825 12.5659 50.4653 13.7603 50.4653 15.3786C50.4653 16.9085 50.8787 18.0437 51.7027 18.7818C52.5294 19.5199 53.5842 19.8903 54.8699 19.8903C55.6698 19.8903 56.3515 19.8205 56.9179 19.6809C57.4815 19.5414 58.0183 19.3079 58.5203 18.9777L59.4839 20.5693C58.7538 21.0739 58.0103 21.4254 57.2534 21.624C56.4965 21.8227 55.5624 21.9246 54.4512 21.9246C53.2004 21.9246 52.065 21.6724 51.0478 21.1678V21.1651Z" fill="#8DFF33"/>
<path d="M62.2752 20.2633C61.0834 19.1602 60.4902 17.5472 60.4902 15.4269C60.4902 13.1671 61.0405 11.4682 62.1463 10.3302C63.2495 9.19228 64.8197 8.62329 66.8515 8.62329C68.8834 8.62329 70.3006 9.17886 71.3098 10.2927C72.319 11.4065 72.8209 12.9095 72.8209 14.8043V16.004H63.2522C63.2522 17.413 63.5957 18.4517 64.2829 19.12C64.97 19.7883 65.896 20.1238 67.0609 20.1238C67.7212 20.1238 68.2768 20.0754 68.7304 19.9815C69.1813 19.8849 69.592 19.7265 69.957 19.4984V18.559H72.3807V20.3841C71.6507 20.9048 70.8642 21.2912 70.0214 21.5435C69.1786 21.7958 68.1828 21.922 67.0367 21.922C65.0559 21.922 63.4696 21.3718 62.2778 20.266L62.2752 20.2633ZM70.1369 14.3051C70.1369 11.7661 69.0337 10.4993 66.8247 10.4993C65.6598 10.4993 64.774 10.8375 64.1648 11.5165C63.5555 12.1955 63.2522 13.1242 63.2522 14.3051H70.1369Z" fill="#8DFF33"/>
<path d="M73.8301 19.6004H74.4823C74.8286 19.6004 75.0782 19.5279 75.2258 19.3776C75.3734 19.23 75.4486 18.9831 75.4486 18.6342V11.9084C75.4486 11.5782 75.3788 11.334 75.2392 11.1783C75.0997 11.0227 74.8661 10.9448 74.536 10.9448H73.9884V9.01513H77.5878L77.9528 10.4483C78.2991 9.90887 78.7473 9.53581 79.2949 9.32647C79.8424 9.11712 80.4893 9.01245 81.2382 9.01245H82.438V10.9422H80.9778C79.9874 10.9422 79.2841 11.1649 78.8654 11.6078C78.4494 12.0506 78.24 12.7323 78.24 13.6556V18.6342C78.24 18.9831 78.3098 19.23 78.4494 19.3776C78.589 19.5252 78.8225 19.6004 79.1526 19.6004H79.8049V21.5301H73.8328V19.6004H73.8301Z" fill="#8DFF33"/>
<path d="M84.6362 20.2633C83.4445 19.1602 82.8486 17.5472 82.8486 15.4269C82.8486 13.1671 83.4016 11.4682 84.5047 10.3302C85.6079 9.19228 87.1781 8.62329 89.2126 8.62329C91.2471 8.62329 92.6617 9.17886 93.6709 10.2927C94.6801 11.4065 95.182 12.9095 95.182 14.8043V16.004H85.6132C85.6132 17.413 85.9568 18.4517 86.6439 19.12C87.3311 19.7883 88.2571 20.1238 89.422 20.1238C90.0822 20.1238 90.6379 20.0754 91.0915 19.9815C91.5424 19.8849 91.9531 19.7265 92.3181 19.4984V18.559H94.7445V20.3841C94.0144 20.9048 93.228 21.2912 92.3852 21.5435C91.5424 21.7958 90.5466 21.922 89.4005 21.922C87.4196 21.922 85.8333 21.3718 84.6416 20.266L84.6362 20.2633ZM92.4979 14.3051C92.4979 11.7661 91.3948 10.4993 89.1858 10.4993C88.0209 10.4993 87.1351 10.8375 86.5258 11.5165C85.9165 12.1955 85.6132 13.1242 85.6132 14.3051H92.4979Z" fill="#8DFF33"/>
<path d="M99.1735 19.7561L98.9641 21.5301H96.8249V7.31892C96.8249 6.91902 96.7605 6.62916 96.6289 6.44665C96.4974 6.26415 96.2344 6.1729 95.8344 6.1729H95.3379V4.27002H99.509V10.5262C99.9599 9.88203 100.561 9.4043 101.307 9.09297C102.053 8.78164 102.899 8.62329 103.836 8.62329C105.591 8.62329 106.925 9.1869 107.838 10.3168C108.75 11.4467 109.207 13.0973 109.207 15.2713C109.207 17.4452 108.699 18.9858 107.682 20.1586C106.665 21.3315 105.288 21.9193 103.549 21.9193C101.498 21.9193 100.038 21.1973 99.1681 19.7561H99.1735ZM105.717 18.7925C106.238 18.0625 106.498 16.8709 106.498 15.2203C106.498 13.5697 106.233 12.37 105.704 11.6749C105.172 10.9797 104.284 10.6308 103.03 10.6308C102.04 10.6308 101.219 10.969 100.566 11.648C99.9143 12.3271 99.5895 13.2825 99.5895 14.5171V16.0281C99.5895 17.1581 99.925 18.084 100.593 18.806C101.262 19.5279 102.126 19.8876 103.189 19.8876C104.354 19.8876 105.197 19.5226 105.717 18.7925Z" fill="#8DFF33"/>
<path d="M110.065 19.6004H110.718C111.064 19.6004 111.314 19.5279 111.461 19.3776C111.609 19.23 111.684 18.9831 111.684 18.6342V11.9084C111.684 11.5782 111.614 11.334 111.475 11.1783C111.335 11.0227 111.101 10.9448 110.771 10.9448H110.224V9.01513H113.823L114.188 10.4483C114.534 9.90887 114.983 9.53581 115.53 9.32647C116.078 9.11712 116.725 9.01245 117.474 9.01245H118.673V10.9422H117.213C116.223 10.9422 115.519 11.1649 115.101 11.6078C114.682 12.0506 114.475 12.7323 114.475 13.6556V18.6342C114.475 18.9831 114.545 19.23 114.685 19.3776C114.824 19.5252 115.058 19.6004 115.388 19.6004H116.04V21.5301H110.068V19.6004H110.065Z" fill="#8DFF33"/>
<path d="M122.866 20.8001C122.136 20.054 121.771 18.9831 121.771 17.5928V11.9084C121.771 11.5782 121.695 11.334 121.548 11.1784C121.4 11.0227 121.161 10.9449 120.831 10.9449H120.074V9.01514H124.559V17.566C124.559 19.2515 125.375 20.0942 127.01 20.0942C127.896 20.0942 128.61 19.8339 129.149 19.3132C129.689 18.7925 129.957 18.0437 129.957 17.0722V11.9111C129.957 11.5809 129.893 11.3367 129.761 11.181C129.63 11.0254 129.409 10.9475 129.095 10.9475H128.365V9.01782H132.719V18.6396C132.719 18.9697 132.797 19.2085 132.952 19.3562C133.108 19.5038 133.352 19.5789 133.683 19.5789H134.203V21.5355H130.891L130.735 19.8419C130.18 20.572 129.53 21.1034 128.792 21.4335C128.054 21.7636 127.155 21.93 126.095 21.93C124.669 21.93 123.593 21.5569 122.863 20.8081L122.866 20.8001Z" fill="#8DFF33"/>
<path d="M135.669 19.6004H136.321C136.667 19.6004 136.917 19.5279 137.064 19.3776C137.212 19.23 137.287 18.9831 137.287 18.6342V11.9084C137.287 11.5783 137.212 11.3394 137.064 11.1918C136.917 11.0442 136.67 10.969 136.321 10.969H135.8V9.01246H139.059L139.241 10.7865C139.711 10.0565 140.296 9.51434 141.002 9.15738C141.705 8.80043 142.561 8.62329 143.571 8.62329C144.336 8.62329 144.996 8.79774 145.552 9.14397C146.107 9.49287 146.526 9.98671 146.802 10.6308C147.237 9.93571 147.771 9.42846 148.405 9.10639C149.038 8.78432 149.835 8.62329 150.791 8.62329C152.216 8.62329 153.247 8.98025 153.88 9.69148C154.514 10.4054 154.833 11.4736 154.833 12.8987V18.6342C154.833 18.9643 154.911 19.2085 155.067 19.3642C155.222 19.5199 155.467 19.5977 155.797 19.5977H156.527V21.5274H152.095V12.8987C152.095 12.0291 151.929 11.4119 151.599 11.0468C151.269 10.6818 150.713 10.4993 149.929 10.4993C149.146 10.4993 148.499 10.7248 148.04 11.1784C147.578 11.6292 147.35 12.2922 147.35 13.1591V18.6342C147.35 18.9831 147.414 19.23 147.546 19.3776C147.677 19.5252 147.905 19.6004 148.236 19.6004H148.939V21.5301H144.768V12.9792C144.768 12.1284 144.601 11.5031 144.271 11.1032C143.941 10.7033 143.42 10.5047 142.706 10.5047C141.837 10.5047 141.168 10.7489 140.699 11.2347C140.229 11.7205 139.995 12.4344 139.995 13.3738V18.6396C139.995 18.9885 140.06 19.2354 140.191 19.383C140.323 19.5306 140.551 19.6058 140.881 19.6058H141.584V21.5355H135.666V19.6058L135.669 19.6004Z" fill="#8DFF33"/>
<path d="M161.783 20.2526C160.819 19.1414 160.336 17.5499 160.336 15.4806C160.336 13.3094 160.814 11.6212 161.769 10.4215C162.725 9.2218 164.107 8.62329 165.916 8.62329C166.976 8.62329 167.825 8.7548 168.458 9.01514C169.091 9.27547 169.618 9.71026 170.036 10.3195V7.3216C170.036 6.9056 169.966 6.61037 169.827 6.43592C169.687 6.26147 169.419 6.17558 169.019 6.17558H168.576V4.27271H172.723V18.7415C172.723 19.1253 172.785 19.3884 172.906 19.536C173.026 19.6836 173.252 19.7587 173.585 19.7587H174.105V21.5328H170.611L170.377 19.7077C169.856 20.4888 169.239 21.0551 168.525 21.4013C167.811 21.7475 166.909 21.922 165.814 21.922C164.094 21.922 162.752 21.3664 161.785 20.2526H161.783ZM169.043 18.806C169.669 18.084 169.983 17.1151 169.983 15.8993V14.5708C169.983 13.3013 169.682 12.3297 169.083 11.6507C168.485 10.9717 167.637 10.6335 166.542 10.6335C165.307 10.6335 164.416 11.0146 163.868 11.7795C163.321 12.5444 163.047 13.771 163.047 15.4565C163.047 17.1419 163.307 18.194 163.828 18.8731C164.349 19.5521 165.218 19.8903 166.434 19.8903C167.545 19.8903 168.415 19.5306 169.04 18.8086L169.043 18.806Z" fill="#8DFF33"/>
<path d="M176.435 21.0068C175.713 20.3975 175.354 19.5387 175.354 18.4249C175.354 17.1742 175.748 16.2563 176.54 15.6739C177.332 15.0915 178.472 14.7479 179.967 14.6433L183.618 14.4098V12.8182C183.618 12.0023 183.443 11.4092 183.097 11.0442C182.748 10.6791 182.158 10.4966 181.323 10.4966C180.749 10.4966 180.276 10.545 179.903 10.6389C179.53 10.7355 179.186 10.8858 178.872 11.0952V12.0345H176.446V9.97597C177.906 9.0715 179.549 8.62061 181.374 8.62061C184.713 8.62061 186.38 10.0994 186.38 13.0517V18.7603C186.38 19.1092 186.444 19.3588 186.576 19.5172C186.707 19.6755 186.919 19.7507 187.215 19.7507H187.789V21.5247H184.791L184.453 19.8822C183.897 20.5961 183.25 21.1114 182.509 21.4335C181.771 21.7556 180.802 21.9166 179.602 21.9166C178.212 21.9166 177.155 21.6133 176.435 21.0041V21.0068ZM182.705 19.3642C183.315 18.9133 183.618 18.2262 183.618 17.3057V16.055L180.177 16.3153C179.326 16.3663 178.733 16.5461 178.403 16.8494C178.073 17.1527 177.906 17.6358 177.906 18.296C177.906 18.8704 178.089 19.3052 178.454 19.6004C178.819 19.8956 179.409 20.0432 180.225 20.0432C181.269 20.0432 182.093 19.8178 182.703 19.3642H182.705Z" fill="#8DFF33"/>
<path d="M190.214 20.1721C189.135 19.0073 188.599 17.3835 188.599 15.2954C188.599 13.2074 189.133 11.5541 190.201 10.3812C191.269 9.20838 192.874 8.62061 195.011 8.62061C197.147 8.62061 198.753 9.20838 199.821 10.3812C200.889 11.5541 201.423 13.194 201.423 15.2954C201.423 17.3969 200.884 19.0073 199.807 20.1721C198.728 21.3369 197.131 21.9193 195.011 21.9193C192.89 21.9193 191.291 21.3369 190.214 20.1721ZM197.802 18.8167C198.412 18.0518 198.715 16.8789 198.715 15.2981C198.715 13.7173 198.412 12.5122 197.802 11.7393C197.193 10.9663 196.264 10.5798 195.014 10.5798C193.763 10.5798 192.837 10.9663 192.236 11.7393C191.637 12.5122 191.336 13.6985 191.336 15.2981C191.336 16.8977 191.637 18.0545 192.236 18.8167C192.834 19.5816 193.76 19.9627 195.014 19.9627C196.267 19.9627 197.196 19.5816 197.802 18.8167Z" fill="#8DFF33"/>
</g>
<defs>
<clipPath id="clip0_5852_12200">
<rect width="200.853" height="32" fill="white" transform="translate(0.573242)"/>
</clipPath>
</defs>
</svg>
