<svg width="137" height="35" viewBox="0 0 137 35" fill="none" xmlns="http://www.w3.org/2000/svg">
<path d="M45.6094 26.3023V8.56903H52.8227C54.626 8.56903 56.0859 9.08428 57.1593 10.0718C58.2327 11.0594 58.7479 12.3475 58.7479 13.9792C58.7479 15.6108 58.2327 16.8989 57.1593 17.8865C56.0859 18.874 54.626 19.3893 52.7798 19.3893H48.1426V26.3023H45.6094ZM48.1426 17.1565H52.3075C53.5097 17.1565 54.4114 16.856 55.0554 16.2549C55.6995 15.6537 56 14.8809 56 13.9362C56 12.9916 55.6995 12.2617 55.0554 11.7035C54.4114 11.1453 53.5097 10.8877 52.3075 10.8877H48.1426V17.1565Z" fill="#D7F9C0"/>
<path d="M60.1221 23.039L62.3977 22.3091C62.8271 23.8978 63.9005 24.6706 65.7038 24.6706C67.5071 24.6706 68.4088 24.0695 68.4088 22.9102C68.4088 21.9656 67.636 21.3644 66.1332 21.0639L64.6304 20.8063C63.3423 20.5486 62.3548 20.1193 61.6678 19.604C60.9808 19.0888 60.6802 18.2729 60.6802 17.1995C60.6802 16.0831 61.1525 15.1814 62.0542 14.4515C62.9559 13.7216 64.0722 13.3781 65.4033 13.3781C66.7772 13.3781 67.8936 13.6786 68.7523 14.2368C69.611 14.795 70.2121 15.6108 70.5127 16.5554L68.4088 17.3712C67.8936 15.9543 66.906 15.2244 65.3603 15.2244C64.5875 15.2244 63.9864 15.3961 63.557 15.7396C63.1276 16.0831 62.9129 16.4696 62.9129 16.9419C62.9129 17.3712 63.0417 17.7147 63.3423 17.9724C63.6429 18.23 64.201 18.4018 65.0598 18.5735L66.5625 18.8741C67.636 19.0888 68.6235 19.4752 69.4822 20.0763C70.341 20.6345 70.8133 21.5362 70.8133 22.7814C70.8133 23.9836 70.341 24.9283 69.4393 25.6153C68.5376 26.3023 67.2495 26.6458 65.6609 26.6458C64.2869 26.6458 63.0847 26.3452 62.0542 25.7011C61.0237 25.0571 60.3797 24.1554 60.1221 23.039Z" fill="#D7F9C0"/>
<path d="M81.5474 13.7215H84.0378L79.143 28.0627C78.7136 29.2649 78.1984 30.1237 77.6402 30.5531C77.082 30.9824 76.2662 31.2401 75.1499 31.2401H72.5308V29.0932H75.064C75.5363 29.0932 75.9228 29.0073 76.1804 28.8356C76.438 28.6638 76.6527 28.3632 76.7815 27.9339L77.4255 26.1734L71.8867 13.7215H74.5488L77.1679 19.9475C77.5543 20.8921 77.812 22.1373 77.812 23.7689H78.8854C78.8854 22.4808 79.1001 21.2785 79.4006 20.248L81.5474 13.7215Z" fill="#D7F9C0"/>
<path d="M86.7432 26.3022V8.569H92.969C95.5022 8.569 97.5632 9.38481 99.1518 11.0164C100.74 12.6481 101.513 14.752 101.513 17.3712C101.513 20.1621 100.74 22.309 99.1518 23.9407C97.6061 25.5293 95.4593 26.3452 92.7972 26.3452H86.7432V26.3022ZM89.2764 23.9836H92.4537C96.7474 23.9836 98.8513 21.7938 98.8513 17.4141C98.8513 15.3961 98.336 13.8074 97.2626 12.6481C96.1892 11.4888 94.6435 10.9306 92.6255 10.9306H89.2764V23.9836Z" fill="#D7F9C0"/>
<path d="M115.982 26.3022L114.35 21.622H106.536L104.861 26.3022H102.113L108.768 8.569H112.246L118.773 26.3022H115.982ZM107.394 19.3034H113.534L111.817 14.4514C111.302 12.8628 111.044 11.4888 111.001 10.3294H109.928C109.842 11.7034 109.584 13.0774 109.112 14.4514L107.394 19.3034Z" fill="#D7F9C0"/>
<path d="M119.117 17.4141C119.074 14.7091 119.933 12.5193 121.65 10.7588C123.367 8.99838 125.514 8.13963 128.048 8.18256C130.581 8.13963 132.685 8.99838 134.402 10.7588C136.12 12.5193 136.935 14.7091 136.892 17.4141C136.935 20.1192 136.077 22.309 134.402 24.0695C132.728 25.8299 130.581 26.6887 128.048 26.6457C125.514 26.6887 123.367 25.8299 121.65 24.0695C119.933 22.352 119.117 20.1192 119.117 17.4141ZM134.23 17.4141C134.23 15.3961 133.672 13.7644 132.556 12.4334C131.44 11.1453 129.937 10.5012 128.048 10.5012C126.158 10.5012 124.656 11.1453 123.539 12.4334C122.423 13.7215 121.865 15.3961 121.865 17.4141C121.865 19.4751 122.423 21.1068 123.539 22.3949C124.656 23.683 126.158 24.3271 128.048 24.3271C129.937 24.3271 131.44 23.683 132.556 22.3949C133.672 21.1497 134.23 19.4751 134.23 17.4141Z" fill="#D7F9C0"/>
<path d="M28.1519 7.40802L28.0478 7.356L27.9958 7.25196C26.3311 3.09032 22.3776 0.385254 17.9038 0.385254C13.4301 0.385254 9.47649 3.09032 7.81183 7.25196L7.75981 7.356L7.65577 7.40802C3.49413 9.07268 0.789062 13.0262 0.789062 17.5C0.789062 21.9738 3.49413 25.9273 7.65577 27.592L7.75981 27.644L7.81183 27.748C9.47649 31.9097 13.4301 34.6148 17.9038 34.6148C22.3776 34.6148 26.3311 31.9097 27.9958 27.748L28.0478 27.644L28.1519 27.592C32.3135 25.9273 35.0186 21.9738 35.0186 17.5C35.0186 13.0262 32.3135 9.07268 28.1519 7.40802ZM11.0371 5.3272C12.7538 3.35042 15.2508 2.20597 17.9038 2.20597C20.5569 2.20597 23.0538 3.35042 24.7705 5.3272C24.9786 5.58731 25.0306 5.89943 24.8746 6.15953C24.7185 6.41964 24.4584 6.62772 24.1463 6.62772C22.0655 6.62772 20.0367 7.19994 18.32 8.29237C18.1639 8.39641 18.0599 8.39641 17.9038 8.39641C17.7478 8.39641 17.5917 8.34439 17.4877 8.29237C15.771 7.19994 13.7422 6.62772 11.6614 6.62772C11.3492 6.62772 11.0371 6.47166 10.9331 6.15953C10.777 5.84741 10.829 5.53529 11.0371 5.3272ZM8.95629 9.74895C9.06033 9.1247 9.52851 8.65652 10.1528 8.55248C10.673 8.44844 11.1932 8.44844 11.6614 8.44844C13.7422 8.44844 15.719 9.1247 17.3316 10.4252C17.6437 10.6853 18.1119 10.6853 18.476 10.4252C20.0887 9.1247 22.0134 8.44844 24.0943 8.44844C24.6145 8.44844 25.1347 8.50046 25.6029 8.55248C26.2271 8.65652 26.6953 9.1247 26.7993 9.74895C26.9034 10.2692 26.9034 10.7894 26.9034 11.2575C26.9034 12.2459 26.7473 13.2343 26.4352 14.2227C26.2791 14.6389 25.915 15.003 25.4988 15.1591C25.0306 15.3151 24.5624 15.2111 24.1983 14.951C22.3256 13.5985 20.1407 12.9222 17.8518 12.9222C15.5629 12.9222 13.378 13.6505 11.5053 14.951C11.2452 15.1591 10.9331 15.2111 10.673 15.2111C10.5169 15.2111 10.3608 15.2111 10.2048 15.1591C9.73659 15.003 9.42447 14.6909 9.26841 14.2227C8.95629 13.2863 8.80022 12.298 8.80022 11.2575C8.80022 10.7373 8.85224 10.2171 8.95629 9.74895ZM23.7301 17.5C23.7301 17.9682 23.47 18.4364 23.1059 18.6965C21.5973 19.7889 19.7766 20.3091 17.9038 20.3091C16.0311 20.3091 14.2624 19.7369 12.7018 18.6965C12.2856 18.4364 12.0775 17.9682 12.0775 17.5C12.0775 17.0318 12.3376 16.5636 12.7018 16.3035C14.2104 15.2111 16.0311 14.6909 17.9038 14.6909C19.7766 14.6909 21.5453 15.2631 23.1059 16.3035C23.47 16.5636 23.7301 17.0318 23.7301 17.5ZM7.03153 23.7425C7.03153 24.0546 6.87546 24.3667 6.56334 24.4708C6.4593 24.5228 6.35526 24.5228 6.25122 24.5228C6.04314 24.5228 5.88707 24.4708 5.73101 24.3147C3.75423 22.598 2.60978 20.101 2.60978 17.448C2.60978 14.7949 3.75423 12.298 5.73101 10.5813C5.99112 10.3732 6.30324 10.3212 6.56334 10.4772C6.87546 10.6333 7.03153 10.8934 7.03153 11.2055C7.03153 13.2863 7.60375 15.2631 8.69618 17.0318C8.85224 17.2919 8.85224 17.604 8.69618 17.8641C7.60375 19.6328 7.03153 21.6616 7.03153 23.7425ZM24.7705 29.6728C23.0538 31.6496 20.5569 32.794 17.9038 32.794C15.2508 32.794 12.7538 31.6496 11.0371 29.6728C10.829 29.4127 10.777 29.1006 10.9331 28.8405C11.0891 28.5284 11.3492 28.3723 11.6614 28.3723C13.7422 28.3723 15.771 27.8001 17.4877 26.7076C17.7478 26.5516 18.0599 26.5516 18.372 26.7076C20.0887 27.8001 22.1175 28.3723 24.1983 28.3723C24.5104 28.3723 24.8225 28.5284 24.9266 28.8405C24.9786 29.1006 24.9786 29.4647 24.7705 29.6728ZM26.8513 25.2511C26.7473 25.8753 26.2791 26.3435 25.6549 26.4475C25.1347 26.5516 24.6145 26.5516 24.1463 26.5516C22.0655 26.5516 20.0887 25.8753 18.476 24.5748C18.1639 24.3147 17.6957 24.3147 17.3836 24.5748C15.771 25.8753 13.7942 26.5516 11.7134 26.5516C11.1932 26.5516 10.673 26.4996 10.2048 26.4475C9.58053 26.3435 9.11235 25.8753 9.00831 25.2511C8.90427 24.7309 8.90427 24.2107 8.90427 23.7425C8.90427 22.7541 9.06033 21.7657 9.37245 20.7773C9.52851 20.3611 9.89266 19.997 10.3088 19.8409C10.777 19.6849 11.2452 19.7889 11.6093 20.049C13.4821 21.4015 15.6669 22.0778 17.9558 22.0778C20.2447 22.0778 22.4296 21.3495 24.3023 20.049C24.6665 19.7889 25.1347 19.6849 25.6029 19.8409C26.071 19.997 26.3832 20.3091 26.5392 20.7773C26.8513 21.7137 27.0074 22.7021 27.0074 23.7425C26.9554 24.2627 26.9554 24.7309 26.8513 25.2511ZM30.0766 24.3667C29.9206 24.4708 29.7645 24.5748 29.5564 24.5748C29.4524 24.5748 29.3483 24.5748 29.2443 24.5228C28.9322 24.3667 28.7761 24.1066 28.7761 23.7945C28.7761 21.7137 28.2039 19.7369 27.1115 17.9682C26.9554 17.7081 26.9554 17.396 27.1115 17.1359C28.2039 15.4192 28.7761 13.3904 28.7761 11.3096C28.7761 10.9974 28.9322 10.6853 29.2443 10.5813C29.5044 10.4252 29.8685 10.4772 30.0766 10.6853C32.0534 12.402 33.1979 14.899 33.1979 17.552C33.1979 20.101 32.0534 22.598 30.0766 24.3667Z" fill="#D7F9C0"/>
</svg>
