<svg width="64" height="65" viewBox="0 0 64 65" fill="none" xmlns="http://www.w3.org/2000/svg">
<path d="M47.9221 25.075C47.9721 24.5575 47.9996 24.0325 47.9996 23.5C47.9996 19.2565 46.3138 15.1869 43.3133 12.1863C40.3127 9.18571 36.243 7.5 31.9996 7.5C27.7561 7.5 23.6864 9.18571 20.6858 12.1863C17.6853 15.1869 15.9996 19.2565 15.9996 23.5C15.9996 24.0325 16.0271 24.5575 16.0771 25.075C14.0851 26.0237 12.311 27.3741 10.866 29.0414C9.42102 30.7087 8.33649 32.6568 7.68053 34.7633C7.02458 36.8699 6.81138 39.0893 7.05434 41.2822C7.29729 43.475 7.99115 45.594 9.09231 47.5058C10.1935 49.4177 11.6781 51.0812 13.453 52.3917C15.2279 53.7022 17.2547 54.6315 19.4059 55.1212C21.5572 55.6109 23.7865 55.6504 25.9538 55.2371C28.121 54.8239 30.1794 53.9669 31.9996 52.72C33.8197 53.9669 35.8781 54.8239 38.0453 55.2371C40.2126 55.6504 42.4419 55.6109 44.5932 55.1212C46.7444 54.6315 48.7712 53.7022 50.5461 52.3917C52.321 51.0812 53.8056 49.4177 54.9068 47.5058C56.008 45.594 56.7018 43.475 56.9448 41.2822C57.1877 39.0893 56.9745 36.8699 56.3186 34.7633C55.6626 32.6568 54.5781 30.7087 53.1331 29.0414C51.6881 27.3741 49.914 26.0237 47.9221 25.075ZM17.9996 23.5C17.9996 19.787 19.4746 16.226 22.1001 13.6005C24.7256 10.975 28.2865 9.5 31.9996 9.5C35.7126 9.5 39.2735 10.975 41.899 13.6005C44.5246 16.226 45.9996 19.787 45.9996 23.5C45.9996 23.7675 45.9996 24.0325 45.9746 24.295C43.6489 23.5321 41.1789 23.3144 38.7557 23.6586C36.3324 24.0028 34.0208 24.8997 31.9996 26.28C29.9783 24.8997 27.6667 24.0028 25.2434 23.6586C22.8202 23.3144 20.3502 23.5321 18.0246 24.295C17.9996 24.0325 17.9996 23.7675 17.9996 23.5ZM36.9996 39.5C36.9999 41.5425 36.5524 43.5603 35.6886 45.4112C34.8247 47.2621 33.5654 48.901 31.9996 50.2125C30.4337 48.901 29.1744 47.2621 28.3106 45.4112C27.4467 43.5603 26.9992 41.5425 26.9996 39.5C26.9996 39.2325 26.9996 38.9675 27.0246 38.705C30.2565 39.7649 33.7426 39.7649 36.9746 38.705C36.9996 38.9675 36.9996 39.2325 36.9996 39.5ZM31.9996 37.5C30.3923 37.5012 28.797 37.2237 27.2846 36.68C27.9241 33.5938 29.5852 30.8133 31.9996 28.7875C34.414 30.8133 36.075 33.5938 36.7146 36.68C35.2021 37.2237 33.6068 37.5012 31.9996 37.5ZM25.4246 35.855C23.6084 34.886 22.0275 33.5297 20.7936 31.8819C19.5598 30.2342 18.7032 28.3354 18.2846 26.32C20.2584 25.6099 22.3669 25.3536 24.4534 25.57C26.5399 25.7864 28.5509 26.47 30.3371 27.57C27.8882 29.7621 26.1731 32.6547 25.4246 35.855ZM33.6746 27.5825C35.4607 26.4825 37.4717 25.7989 39.5582 25.5825C41.6447 25.3661 43.7532 25.6224 45.7271 26.3325C45.3084 28.3479 44.4518 30.2467 43.218 31.8944C41.9841 33.5422 40.4032 34.8985 38.5871 35.8675C37.8351 32.6656 36.1155 29.7729 33.6621 27.5825H33.6746ZM22.9996 53.5C19.8778 53.4979 16.8462 52.4525 14.3867 50.5299C11.9273 48.6073 10.1809 45.9178 9.42526 42.8888C8.6696 39.8599 8.94799 36.6653 10.2162 33.8127C11.4844 30.9601 13.6696 28.6132 16.4246 27.145C16.9735 29.4726 18.0352 31.6482 19.5321 33.5132C21.029 35.3782 22.9234 36.8854 25.0771 37.925C25.0271 38.4425 24.9996 38.9675 24.9996 39.5C24.9992 41.7504 25.4745 43.9755 26.3944 46.0293C27.3142 48.0831 28.6578 49.9193 30.3371 51.4175C28.1327 52.7809 25.5915 53.5021 22.9996 53.5ZM40.9996 53.5C38.4076 53.5021 35.8665 52.7809 33.6621 51.4175C35.3413 49.9193 36.6849 48.0831 37.6047 46.0293C38.5246 43.9755 38.9999 41.7504 38.9996 39.5C38.9996 38.9675 38.9721 38.4425 38.9221 37.925C41.0757 36.8854 42.9701 35.3782 44.467 33.5132C45.9639 31.6482 47.0256 29.4726 47.5746 27.145C50.3295 28.6132 52.5147 30.9601 53.7829 33.8127C55.0511 36.6653 55.3295 39.8599 54.5738 42.8888C53.8182 45.9178 52.0718 48.6073 49.6124 50.5299C47.1529 52.4525 44.1213 53.4979 40.9996 53.5Z" fill="#8DFF33"/>
</svg>
