<svg width="133" height="35" viewBox="0 0 133 35" fill="none" xmlns="http://www.w3.org/2000/svg">
<path d="M17.1233 34.6141C7.72422 34.6141 0.0771484 26.9369 0.0771484 17.5C0.0771484 8.06308 7.72422 0.385254 17.1233 0.385254C26.5225 0.385254 34.1688 8.06308 34.1688 17.5C34.1688 26.9369 26.5218 34.6148 17.1233 34.6148V34.6141ZM17.1233 1.68757C8.43915 1.68757 1.37425 8.78088 1.37425 17.5C1.37425 26.2191 8.43915 33.3124 17.1233 33.3124C25.8075 33.3124 32.8724 26.2191 32.8724 17.5C32.8724 8.78088 25.8075 1.68757 17.1233 1.68757Z" fill="#D7F9C0"/>
<path d="M14.8901 17.4375V16.7051V11.4674L15.8201 10.4601V10.3504H12.0449V10.4601L12.9569 11.4674V22.9862L12.0449 23.9748V24.0852H15.8201V23.9748L14.8901 22.9862V17.4375Z" fill="#D7F9C0"/>
<path d="M6.91277 20.5676C6.8865 20.5656 6.86161 20.5572 6.83879 20.5399C6.78901 20.5024 6.77242 20.4351 6.76896 20.3733C6.75997 20.2094 6.81874 20.0512 6.85469 19.8908C6.89065 19.7311 6.90102 19.55 6.80837 19.4153C6.77726 19.3702 6.73646 19.3334 6.70604 19.2875C6.41841 18.8606 7.43548 18.1324 7.69131 17.8867C8.14903 17.4472 8.62127 17.0217 9.11079 16.6177C9.83194 16.0213 10.6105 15.4014 11.481 15.0404C12.2312 14.7294 13.0463 14.8849 13.558 15.4354C14.0641 15.9804 14.1464 16.787 13.7744 17.5402C13.5531 17.9866 13.4183 18.3157 13.3734 18.5191C13.354 18.6079 13.401 18.6544 13.4218 18.6649C13.4536 18.6808 13.5511 18.6433 13.67 18.51C13.7447 18.426 13.8228 18.3372 13.9037 18.2442C14.3137 17.7742 14.8233 17.189 15.4034 16.7912C15.9828 16.3941 16.6237 16.3303 17.1188 16.6211C17.461 16.8218 17.8455 17.2494 17.8462 18.156C19.7787 16.4295 21.92 16.5489 23.8165 16.6538C24.7119 16.703 25.6191 16.7579 26.5096 16.617C26.7675 16.576 27.0247 16.5302 27.2771 16.4691C27.3967 16.4399 27.5412 16.4177 27.6276 16.5059C27.7272 16.6066 27.6767 16.7815 27.5896 16.8926C27.5025 17.0043 27.3822 17.0967 27.3393 17.232C27.2978 17.3639 27.34 17.5076 27.3213 17.6444C27.2999 17.7999 27.1983 17.9373 27.0683 18.0234C26.6742 18.283 25.9579 18.2247 25.5057 18.2344C24.9145 18.2476 24.3227 18.2178 23.7322 18.1845C21.8495 18.0789 20.2239 17.9894 18.7249 19.4278C18.2534 19.879 17.6304 19.9998 17.0973 19.7429C16.5753 19.4909 16.2593 18.9259 16.3112 18.3358C16.3237 18.197 16.3209 18.0963 16.3133 18.0262C16.2981 18.0352 16.2822 18.0449 16.2649 18.0567C15.8452 18.3448 15.4248 18.8273 15.0535 19.2528C14.9685 19.3507 14.8862 19.4451 14.8074 19.5333C14.2245 20.1858 13.4073 20.3802 12.7248 20.0283C12.0659 19.6881 11.7195 18.9314 11.8834 18.1872C11.9802 17.7478 12.2291 17.2174 12.4075 16.8565C12.4911 16.6878 12.5036 16.5469 12.4413 16.4802C12.3819 16.4163 12.2415 16.3844 12.0638 16.4573C11.3143 16.7676 10.6402 17.3452 10.0228 17.8575C9.02436 18.6864 8.16493 19.6645 7.14924 20.4642C7.08148 20.5177 6.99229 20.5718 6.91346 20.5663L6.91277 20.5676Z" fill="#D7F9C0"/>
<path d="M22.0037 10.4601V10.3504H18.2285V10.4601L19.1405 11.4674V16.7051V17.4375V22.9862L18.2285 23.9748V24.0852H22.0037V23.9748L21.0917 22.9862V11.4674L22.0037 10.4601Z" fill="#D7F9C0"/>
<path d="M49.1875 28.3281H43.2344V28.1545L44.6725 26.5954V8.43376L43.2344 6.84544V6.67189H49.1875V6.84544L47.721 8.43376V16.6919H54.4215V8.43376L52.9834 6.84544V6.67189H58.9365V6.84544L57.4983 8.43376V26.5954L58.9365 28.1545V28.3281H52.9834V28.1545L54.4215 26.5954V17.8464H47.721V26.5954L49.1875 28.1545V28.3281Z" fill="#D7F9C0"/>
<path d="M66.2837 26.8842C65.3925 27.8949 64.4431 28.6169 62.9767 28.6169C61.0497 28.6169 60.043 26.7689 60.043 24.921C60.043 23.5062 60.5035 22.4378 60.8194 21.9179L66.2263 19.8387V19.7811C66.2263 16.3164 65.6801 14.9016 63.7815 14.9016H63.5803L60.8194 19.0015H60.6756V14.3525C62.1995 14.2081 63.6667 14.0637 65.0758 14.0637C68.7859 14.0637 69.1593 16.9509 69.1593 20.9071V26.653L70.5401 28.1545V28.3281H66.2837V26.8842ZM66.2263 26.2198V20.5315L63.4364 22.3795C63.2352 22.8127 63.034 23.4479 63.034 24.4871C63.034 25.729 63.6093 26.8835 64.6734 26.8835C65.3634 26.8835 65.8523 26.6238 66.2263 26.2191V26.2198Z" fill="#D7F9C0"/>
<path d="M71.4607 28.3281V28.1545L72.8415 26.8842V16.2005L71.4033 14.5261V14.3525H75.8035V26.8842L77.1552 28.1545V28.3281H71.4607ZM72.5538 9.32859C72.5538 8.11583 73.3593 7.27863 74.308 7.27863C75.2566 7.27863 76.0621 8.11583 76.0621 9.32859C76.0621 10.6281 75.2566 11.3786 74.308 11.3786C73.3593 11.3786 72.5538 10.6281 72.5538 9.32859Z" fill="#D7F9C0"/>
<path d="M84.2005 28.3281H78.1326V28.1545L79.5133 26.7974V16.2296L78.0752 14.526V14.3525H82.3599V16.8648H82.3889C83.108 15.1612 84.5745 14.1505 86.2139 14.0637V14.0929L86.2429 14.0637V18.5968H86.0991L83.6833 16.4025C83.0506 16.778 82.4754 17.5 82.4754 18.8571V26.7398L84.2012 28.1545V28.3281H84.2005Z" fill="#D7F9C0"/>
<path d="M102.507 17.3556C102.507 24.4586 98.5961 28.3281 93.8225 28.3281H87.3516V28.1545L88.7897 26.5954V8.43376L87.3516 6.84544V6.67189H93.2182C99.1713 6.67189 102.507 10.8301 102.507 17.3556ZM91.8382 7.65349V27.375H94.0237C97.5901 27.375 99.2868 23.5923 99.2868 17.6728C99.2868 11.7534 97.6765 7.65349 93.0751 7.65349H91.8382Z" fill="#D7F9C0"/>
<path d="M106.589 28.3281H101.527V28.1545L103.397 26.3642L107.884 8.51985L107.395 6.67189H110.501L115.85 26.6238L117.317 28.1538V28.3274H111.105V28.1538L112.571 26.6238L111.018 20.6468H105.899L104.49 26.4218L106.589 28.1545V28.3281ZM108.372 10.4546L106.129 19.6367H110.76L108.373 10.4546H108.372Z" fill="#D7F9C0"/>
<path d="M116.498 17.6444C116.498 10.4837 120.438 6.3831 124.406 6.3831C128.893 6.3831 132.2 10.8301 132.2 17.3841C132.2 24.5447 128.26 28.6162 124.292 28.6162C119.748 28.6162 116.498 24.1115 116.498 17.6437V17.6444ZM128.98 18.0484C128.98 12.2734 127.283 7.39385 124.177 7.39385C121.243 7.39385 119.719 11.2342 119.719 16.9224C119.719 22.6107 121.388 27.6346 124.494 27.6346C127.427 27.6346 128.98 23.7943 128.98 18.0484H128.98Z" fill="#D7F9C0"/>
</svg>
