<svg width="306" height="80" viewBox="0 0 306 80" fill="none" xmlns="http://www.w3.org/2000/svg">
<mask id="mask0_7804_582" style="mask-type:luminance" maskUnits="userSpaceOnUse" x="91" y="15" width="124" height="50">
<path d="M215 15.0146H91V64.9855H215V15.0146Z" fill="white"/>
</mask>
<g mask="url(#mask0_7804_582)">
<path d="M118.751 24.22C118.951 24.9083 119.588 25.3815 120.311 25.3815H121.199C122.1 25.3815 122.729 26.1856 122.595 26.9995C122.572 27.1352 122.528 27.2676 122.461 27.3999C121.962 28.386 121.701 29.4746 121.701 30.5765V32.3665C121.701 33.1243 121.825 33.8721 122.063 34.5868C122.378 35.5166 123.52 35.8674 124.313 35.2784L134.783 27.486C135.436 26.9995 135.553 26.0863 135.061 25.441C131.132 20.2792 125.161 16.7188 118.335 15.9346C117.347 15.8221 116.564 16.7453 116.842 17.6916L118.751 24.2234V24.22Z" fill="#8DFF33"/>
<path d="M107.843 31.2214C108.395 31.6781 109.232 31.2877 109.232 30.5796C109.232 29.5968 109.025 28.6273 108.63 27.7306C108.579 27.6214 108.529 27.5122 108.476 27.403C108.449 27.3468 108.425 27.2938 108.405 27.2376C108.09 26.3508 108.754 25.3846 109.738 25.3846H115.311C116.389 25.3846 117.166 24.3655 116.868 23.3397L114.969 16.8411C114.785 16.2091 114.176 15.7955 113.513 15.8451C108 16.2752 103 18.5087 99.1182 21.9467C98.4785 22.5125 98.4852 23.4986 99.1416 24.0412C101.248 25.7783 105.605 29.3751 107.843 31.2214Z" fill="#8DFF33"/>
<path d="M135.302 54.1918C137.03 51.8457 138.339 49.1788 139.123 46.3001C139.317 45.5853 139.086 44.8177 138.534 44.318L128.858 35.5231C128.265 34.9837 127.364 34.9407 126.721 35.4205L125.117 36.615C124.273 37.2437 124.022 38.3885 124.528 39.3051L127.565 44.8045C128.332 46.1942 128.47 47.6931 128.125 49.0464C127.914 49.8803 128.198 50.7571 128.902 51.2601L133.393 54.483C133.999 54.9197 134.856 54.7907 135.295 54.1918H135.302Z" fill="#8DFF33"/>
<path d="M131.223 35.576L137.505 41.2872C138.44 42.1376 139.957 41.4956 139.97 40.2416C139.97 40.1555 139.97 40.0662 139.97 39.9802C139.97 36.2378 139.11 32.6907 137.572 29.5274C137.171 28.7001 136.106 28.4388 135.362 28.9913L131.4 31.9396C130.201 32.833 130.114 34.5801 131.219 35.5827L131.223 35.576Z" fill="#8DFF33"/>
<path d="M107.873 33.2599L97.9828 25.0936C97.3733 24.5907 96.4657 24.6799 95.9834 25.3021C93.5553 28.4422 91.8908 32.1812 91.2578 36.2577C91.1641 36.8632 91.4822 37.4589 92.0415 37.7203L102.163 42.452C103.281 42.9748 104.617 42.5446 105.207 41.4726L108.355 35.7714C108.82 34.9276 108.616 33.8753 107.869 33.2566L107.873 33.2599Z" fill="#8DFF33"/>
<path d="M96.5963 41.5553L92.9961 39.8711C92.0516 39.4309 90.9699 40.1325 91 41.1649C91 41.2707 91.0067 41.36 91.0101 41.4262C91.0971 42.8953 91.3182 44.3314 91.6631 45.7211C91.8808 46.598 92.9693 46.9223 93.6324 46.2969L96.8743 43.2395C97.4068 42.7398 97.2628 41.8663 96.5997 41.5553H96.5963Z" fill="#8DFF33"/>
<path d="M128.088 52.5771C127.378 52.0675 126.41 52.0278 125.687 52.5175C124.745 53.1561 123.597 53.5399 122.314 53.5399H119.859C118.684 53.5399 117.639 54.2746 117.25 55.3698L114.886 62.0405C114.514 63.0861 115.314 64.178 116.433 64.1582C116.587 64.1582 116.711 64.1516 116.791 64.1483C122.776 63.8339 128.192 61.3952 132.278 57.5834C132.904 56.9978 132.85 55.9984 132.154 55.4955L128.084 52.5771H128.088Z" fill="#8DFF33"/>
<path d="M115.348 56.0747C115.787 54.8372 114.856 53.5401 113.529 53.5401H108.626C104.487 53.5401 101.737 49.5066 102.929 45.8106C103.137 45.1687 102.816 44.4771 102.203 44.1859L101.148 43.6896C100.15 43.2197 98.9574 43.405 98.157 44.1627L93.4113 48.6429C93.0429 48.9904 92.9458 49.5298 93.1568 49.9897C96.4456 57.1302 103.14 62.4145 111.192 63.8175C111.962 63.9498 112.715 63.5032 112.973 62.7719L115.344 56.078L115.348 56.0747Z" fill="#8DFF33"/>
<path d="M120.837 44.2353L121.423 44.6423C122.27 45.2346 121.718 46.5482 120.696 46.3762L119.99 46.257C119.136 46.1115 118.392 46.846 118.54 47.6898L118.66 48.388C118.838 49.3972 117.505 49.9432 116.905 49.106L116.493 48.5269C115.994 47.8288 114.943 47.8288 114.444 48.5269L114.032 49.106C113.432 49.9432 112.103 49.3972 112.277 48.388L112.397 47.6898C112.545 46.846 111.801 46.1115 110.947 46.257L110.241 46.3762C109.219 46.5515 108.666 45.2346 109.514 44.6423L110.1 44.2353C110.807 43.7423 110.807 42.7033 110.1 42.2103L109.514 41.8033C108.666 41.211 109.219 39.8974 110.241 40.0694L110.947 40.1886C111.801 40.3341 112.545 39.5995 112.397 38.7558L112.277 38.0577C112.099 37.0484 113.432 36.5024 114.032 37.3396L114.444 37.9187C114.943 38.6168 115.994 38.6168 116.493 37.9187L116.905 37.3396C117.505 36.5024 118.834 37.0484 118.66 38.0577L118.54 38.7558C118.392 39.5995 119.136 40.3341 119.99 40.1886L120.696 40.0694C121.718 39.894 122.27 41.211 121.423 41.8033L120.837 42.2103C120.13 42.7033 120.13 43.7423 120.837 44.2353Z" fill="#8DFF33"/>
<path d="M155.43 15.3025V25.9604H161.254V27.3138H153.839V15.3025H155.433H155.43Z" fill="#8DFF33"/>
<path d="M165.755 21.8508V20.7688C165.755 17.1985 167.229 15.0146 170.189 15.0146C173.15 15.0146 174.623 17.1985 174.623 20.7688V21.8508C174.623 25.4211 173.15 27.6049 170.189 27.6049C167.229 27.6049 165.755 25.4211 165.755 21.8508ZM172.962 21.8508V20.7688C172.962 17.7577 172.088 16.3713 170.189 16.3713C168.29 16.3713 167.416 17.7577 167.416 20.7688V21.8508C167.416 24.8619 168.29 26.2483 170.189 26.2483C172.088 26.2483 172.962 24.8619 172.962 21.8508Z" fill="#8DFF33"/>
<path d="M185.531 25.0472H185.565C185.531 24.6402 185.531 24.2001 185.531 23.76V15.3025H187.126V27.3138H185.26L181.442 18.6676C181.151 18.0092 180.893 17.2448 180.893 17.2448H180.843C180.876 17.5658 180.876 17.9231 180.876 18.2772V27.3138H179.286V15.3025H181.375L184.956 23.4754C185.28 24.2365 185.468 24.7957 185.538 25.0472H185.531Z" fill="#8DFF33"/>
<path d="M191.831 21.8508V20.6662C191.831 17.1654 193.405 15.0146 196.248 15.0146C199.279 15.0146 199.999 17.3143 200.187 18.6511L198.63 18.8695C198.509 17.8537 197.943 16.3647 196.198 16.3647C194.453 16.3647 193.492 17.4136 193.492 20.9342V21.5927C193.492 24.4516 194.262 26.2284 196.198 26.2284C198.392 26.2284 198.871 24.028 198.871 23.0122V22.3008H195.823V21.0302H200.328V27.3071H199.233L198.992 25.5468C198.496 26.748 197.605 27.595 195.96 27.595C193.221 27.595 191.834 25.1762 191.834 21.8409L191.831 21.8508Z" fill="#8DFF33"/>
<path d="M153.836 40.7976V39.9174C153.836 36.2445 155.393 34.064 158.307 34.064C160.842 34.064 162.279 35.4339 162.587 38.2928L160.993 38.5475C160.855 36.5853 159.964 35.4173 158.287 35.4173C156.384 35.4173 155.477 36.7872 155.477 39.8347V40.6983C155.477 43.7424 156.451 45.3009 158.287 45.3009C159.981 45.3009 160.855 44.133 160.993 42.1542L162.567 42.4751C162.309 44.8444 160.973 46.6543 158.166 46.6543C155.359 46.6543 153.832 44.4704 153.832 40.8009L153.836 40.7976Z" fill="#8DFF33"/>
<path d="M166.8 40.9001V39.8181C166.8 36.2478 168.273 34.064 171.234 34.064C174.195 34.064 175.668 36.2478 175.668 39.8181V40.9001C175.668 44.4704 174.195 46.6543 171.234 46.6543C168.273 46.6543 166.8 44.4704 166.8 40.9001ZM174.007 40.9001V39.8181C174.007 36.8071 173.133 35.4206 171.234 35.4206C169.335 35.4206 168.461 36.8071 168.461 39.8181V40.9001C168.461 43.9112 169.335 45.2977 171.234 45.2977C173.133 45.2977 174.007 43.9112 174.007 40.9001Z" fill="#8DFF33"/>
<path d="M184.212 44.9766H184.279C184.329 44.7384 184.433 44.2983 184.5 44.0468L187.189 34.3518H188.884L185.22 46.3631H183.251L179.603 34.3518H181.264L183.988 44.0468C184.054 44.3017 184.158 44.7417 184.208 44.9766H184.212Z" fill="#8DFF33"/>
<path d="M198.05 35.619V45.0923H201.098V46.3596H193.426V45.0923H196.456V35.619H193.426V34.3484H201.098V35.619H198.05Z" fill="#8DFF33"/>
<path d="M206.269 34.3518H209.832C213.172 34.3518 215.003 36.8732 215.003 40.3409C215.003 43.8086 213 46.3631 209.799 46.3631H206.272V34.3518H206.269ZM209.779 45.0461C212.073 45.0461 213.359 42.8291 213.359 40.3409C213.359 37.8526 212.177 35.672 209.815 35.672H207.863V45.0461H209.782H209.779Z" fill="#8DFF33"/>
<path d="M155.43 52.6831V63.341H161.254V64.6944H153.839V52.6831H155.433H155.43Z" fill="#8DFF33"/>
<path d="M172.296 61.2298H168.066L166.954 64.6975H165.38L169.285 52.6863H171.1L175.005 64.6975H173.431L172.302 61.2298H172.296ZM168.495 59.8732H171.867C171.097 57.4875 170.53 55.4922 170.206 54.0694H170.172C169.848 55.4922 169.265 57.4875 168.495 59.8732Z" fill="#8DFF33"/>
<path d="M187.28 55.8827C187.28 57.0176 186.63 58.0665 185.243 58.4537C186.7 58.7085 187.625 59.7573 187.625 61.3985C187.625 62.9372 186.7 64.6975 183.686 64.6975H179.439V52.6863H183.327C186.462 52.6863 187.283 54.4632 187.283 55.8827H187.28ZM181.027 57.9275H183.304C185.324 57.9275 185.648 56.8621 185.648 55.9985C185.648 54.9992 185.203 53.9867 183.304 53.9867H181.027V57.9275ZM181.027 63.3939H183.579C185.41 63.3939 185.993 62.378 185.993 61.2464C185.993 60.1147 185.344 59.2147 183.75 59.2147H181.027V63.3939Z" fill="#8DFF33"/>
<path d="M191.851 61.2463L193.391 60.9419C193.667 62.3812 194.486 63.6651 196.336 63.6651C197.484 63.6651 198.817 63.2747 198.817 61.7525C198.817 60.2305 197.806 59.7903 196.848 59.5356L195.22 59.112C193.509 58.6554 192.223 57.6396 192.223 55.78C192.223 53.9204 193.73 52.395 196.095 52.395C198.321 52.395 200.12 53.3083 200.358 55.7635L198.834 56.2035C198.68 54.3076 197.448 53.7152 196.144 53.7152C194.363 53.7152 193.85 54.7476 193.85 55.6443C193.85 56.7098 194.691 57.3881 195.716 57.676L197.273 58.083C198.901 58.5065 200.442 59.2179 200.442 61.5341C200.442 63.225 199.243 64.9853 196.349 64.9853C193.455 64.9853 192.136 63.225 191.844 61.2463H191.851Z" fill="#8DFF33"/>
</g>
<rect x="223.56" y="5" width="41.2144" height="17.12" rx="6" transform="rotate(30 223.56 5)" fill="#C9A1DF"/>
<path d="M245.465 32.4085L251.333 25.6533L252.923 26.5713L246.783 33.5575L243.759 31.8115L246.967 23.5903L241.452 30.4795L238.428 28.7335L241.408 19.9233L242.998 20.8413L240.082 29.3005L245.669 22.3833L248.662 24.1113L245.465 32.4085Z" fill="#253119"/>
<path d="M234.073 21.7298L232.921 23.7251L236.807 25.9691L236.015 27.3409L230.487 24.1489L235.047 16.2507L240.482 19.3887L239.69 20.7605L235.897 18.5705L234.865 20.358L238.585 22.506L237.793 23.8778L234.073 21.7298Z" fill="#253119"/>
<path d="M227.264 21.9281L231.668 14.3001L233.3 15.2421L228.74 23.1403L225.57 21.3103L227.366 12.1763L222.962 19.8043L221.33 18.8623L225.89 10.9641L229.07 12.8001L227.264 21.9281Z" fill="#253119"/>
</svg>
