<svg width="154" height="25" viewBox="0 0 154 25" fill="none" xmlns="http://www.w3.org/2000/svg">
<path d="M8.34741 24.4455L0 0.714905H4.32769L10.722 19.7346L17.1406 0.714905H21.4358L13.0884 24.4455H8.34741Z" fill="#D7F9C0"/>
<path d="M23.7049 4.27392C22.7729 3.32214 22.7729 1.89846 23.7049 0.986665C24.6287 0.034881 26.1443 0.034881 27.0681 0.986665C27.992 1.89846 27.992 3.33013 27.0357 4.27392C26.1118 5.18571 24.6693 5.18571 23.7049 4.27392ZM23.5347 24.4454V7.48919H27.2464V24.4454H23.5347Z" fill="#D7F9C0"/>
<path d="M34.078 24.4454V11.0244H30.2852V7.49722H34.078V2.74629H37.7897V7.48922H41.4204V11.0164H37.7897V24.4454H34.078Z" fill="#D7F9C0"/>
<path d="M58.1483 7.4974H61.8601V24.4536H58.1483V22.0141C56.7382 23.9497 54.7445 24.8935 52.135 24.8935C49.7685 24.8935 47.7749 24.0456 46.0892 22.318C44.4035 20.5904 43.585 18.4549 43.585 15.9755C43.585 13.464 44.4116 11.3605 46.0892 9.63291C47.7749 7.9053 49.7685 7.0575 52.135 7.0575C54.7445 7.0575 56.7382 8.00928 58.1483 9.90485V7.4974ZM52.7185 21.3982C54.2664 21.3982 55.5712 20.8864 56.6004 19.8706C57.6297 18.8228 58.1483 17.5351 58.1483 15.9675C58.1483 14.3998 57.6297 13.1201 56.6004 12.1044C55.5712 11.0566 54.2664 10.5447 52.7185 10.5447C51.1706 10.5447 49.8658 11.0566 48.8365 12.1044C47.8073 13.1201 47.2886 14.4078 47.2886 15.9675C47.2886 17.5271 47.8073 18.8148 48.8365 19.8706C49.8658 20.8864 51.1787 21.3982 52.7185 21.3982Z" fill="#D7F9C0"/>
<path d="M75.5805 0.714905C78.8789 0.714905 81.6263 1.86664 83.7901 4.13813C85.9864 6.40961 87.0886 9.22498 87.0886 12.5842C87.0886 15.9035 85.9864 18.7188 83.7901 21.0303C81.6263 23.3018 78.8789 24.4535 75.5805 24.4535H66.1309V0.714905H75.5805ZM75.5805 20.7184C77.8497 20.7184 79.7056 19.9425 81.1157 18.4149C82.5583 16.8872 83.2796 14.9197 83.2796 12.5842C83.2796 10.2088 82.5583 8.28119 81.1157 6.75354C79.7056 5.22588 77.8497 4.45006 75.5805 4.45006H70.0858V20.7264H75.5805V20.7184Z" fill="#D7F9C0"/>
<path d="M102.478 16.0074L98.6693 5.28987L94.8522 16.0074L93.5474 19.6626L91.8617 24.4455H87.5664L96.2947 0.714905H101.036L109.732 24.4455H105.469L103.783 19.6626" fill="#D7F9C0"/>
<path d="M122.683 24.8852C119.214 24.8852 116.256 23.7014 113.816 21.326C111.409 18.9185 110.21 15.9992 110.21 12.576C110.21 9.15273 111.409 6.23339 113.816 3.86592C116.256 1.45847 119.214 0.274734 122.683 0.274734C126.151 0.274734 129.109 1.45847 131.508 3.86592C133.948 6.24139 135.147 9.15273 135.147 12.576C135.147 15.9992 133.948 18.9185 131.508 21.326C129.109 23.7014 126.151 24.8852 122.683 24.8852ZM122.683 21.094C125.09 21.094 127.116 20.2782 128.728 18.6866C130.374 17.0629 131.2 15.0234 131.2 12.584C131.2 10.1445 130.374 8.10496 128.728 6.51332C127.116 4.88969 125.09 4.07388 122.683 4.07388C120.276 4.07388 118.249 4.88969 116.604 6.51332C114.992 8.10496 114.165 10.1445 114.165 12.584C114.165 15.0234 114.992 17.0629 116.604 18.6866C118.249 20.2782 120.276 21.094 122.683 21.094Z" fill="#D7F9C0"/>
<path d="M140.156 0.602834L140.31 0.70681C143.098 2.65037 146.825 2.65037 149.605 0.690814C151.907 -0.92482 154.824 1.67459 153.422 4.09804L148.641 12.3602C146.996 15.2075 142.838 15.2075 141.185 12.3602L136.355 4.01006C134.953 1.60261 137.854 -1.0048 140.156 0.602834Z" fill="#D7F9C0"/>
</svg>
