<svg width="64" height="65" viewBox="0 0 64 65" fill="none" xmlns="http://www.w3.org/2000/svg">
<path d="M22 36.8475C22.2652 36.8475 22.5196 36.7421 22.7071 36.5546C22.8946 36.3671 23 36.1127 23 35.8475V31.5H41V36.3225C41 36.5877 41.1054 36.8421 41.2929 37.0296C41.4804 37.2171 41.7348 37.3225 42 37.3225C42.2652 37.3225 42.5196 37.2171 42.7071 37.0296C42.8946 36.8421 43 36.5877 43 36.3225V8.5C43 8.23478 42.8946 7.98043 42.7071 7.79289C42.5196 7.60536 42.2652 7.5 42 7.5C41.7348 7.5 41.4804 7.60536 41.2929 7.79289C41.1054 7.98043 41 8.23478 41 8.5V13.5H23V8.5C23 8.23478 22.8946 7.98043 22.7071 7.79289C22.5196 7.60536 22.2652 7.5 22 7.5C21.7348 7.5 21.4804 7.60536 21.2929 7.79289C21.1054 7.98043 21 8.23478 21 8.5V35.8475C21 36.1127 21.1054 36.3671 21.2929 36.5546C21.4804 36.7421 21.7348 36.8475 22 36.8475ZM23 29.5V23.5H41V29.5H23ZM41 15.5V21.5H23V15.5H41ZM7 42.5C7 42.2348 7.10536 41.9804 7.29289 41.7929C7.48043 41.6054 7.73478 41.5 8 41.5C11.3025 41.5 13.03 42.6525 14.555 43.6675C16.03 44.65 17.305 45.5 20 45.5C22.695 45.5 23.97 44.65 25.445 43.6675C26.9675 42.6525 28.695 41.5 31.9975 41.5C35.3 41.5 37.03 42.6525 38.5525 43.6675C40.0275 44.65 41.3025 45.5 44 45.5C46.6975 45.5 47.97 44.65 49.445 43.6675C50.97 42.6525 52.695 41.5 56 41.5C56.2652 41.5 56.5196 41.6054 56.7071 41.7929C56.8946 41.9804 57 42.2348 57 42.5C57 42.7652 56.8946 43.0196 56.7071 43.2071C56.5196 43.3946 56.2652 43.5 56 43.5C53.3025 43.5 52.03 44.35 50.555 45.3325C49.03 46.3475 47.305 47.5 44 47.5C40.695 47.5 38.9675 46.3475 37.445 45.3325C35.97 44.35 34.695 43.5 31.9975 43.5C29.3 43.5 28.0275 44.35 26.5525 45.3325C25.03 46.3475 23.3025 47.5 20 47.5C16.6975 47.5 14.97 46.3475 13.445 45.3325C11.97 44.35 10.6975 43.5 8 43.5C7.73478 43.5 7.48043 43.3946 7.29289 43.2071C7.10536 43.0196 7 42.7652 7 42.5ZM57 52.5C57 52.7652 56.8946 53.0196 56.7071 53.2071C56.5196 53.3946 56.2652 53.5 56 53.5C53.3025 53.5 52.03 54.35 50.555 55.3325C49.03 56.3475 47.305 57.5 44 57.5C40.695 57.5 38.9675 56.3475 37.445 55.3325C35.97 54.35 34.695 53.5 31.9975 53.5C29.3 53.5 28.0275 54.35 26.5525 55.3325C25.03 56.3475 23.3025 57.5 20 57.5C16.6975 57.5 14.97 56.3475 13.445 55.3325C11.97 54.35 10.6975 53.5 8 53.5C7.73478 53.5 7.48043 53.3946 7.29289 53.2071C7.10536 53.0196 7 52.7652 7 52.5C7 52.2348 7.10536 51.9804 7.29289 51.7929C7.48043 51.6054 7.73478 51.5 8 51.5C11.3025 51.5 13.03 52.6525 14.555 53.6675C16.03 54.65 17.305 55.5 20 55.5C22.695 55.5 23.97 54.65 25.445 53.6675C26.9675 52.6525 28.695 51.5 31.9975 51.5C35.3 51.5 37.03 52.6525 38.5525 53.6675C40.0275 54.65 41.3025 55.5 44 55.5C46.6975 55.5 47.97 54.65 49.445 53.6675C50.97 52.6525 52.695 51.5 56 51.5C56.2652 51.5 56.5196 51.6054 56.7071 51.7929C56.8946 51.9804 57 52.2348 57 52.5Z" fill="#8DFF33"/>
</svg>
