<svg width="32" height="33" viewBox="0 0 32 33" fill="none" xmlns="http://www.w3.org/2000/svg">
<path d="M29.6341 7.18789C29.5666 7.08081 29.473 6.99256 29.3622 6.93136C29.2514 6.87016 29.1269 6.83801 29.0003 6.83789H5.00032C4.85208 6.83802 4.7072 6.88208 4.58399 6.9645C4.46077 7.04692 4.36474 7.164 4.30803 7.30097C4.25132 7.43793 4.23647 7.58863 4.26535 7.73403C4.29424 7.87943 4.36556 8.013 4.47032 8.11789L9.93907 13.5879L4.47032 19.0579C4.36556 19.1628 4.29424 19.2964 4.26535 19.4418C4.23647 19.5872 4.25132 19.7379 4.30803 19.8748C4.36474 20.0118 4.46077 20.1289 4.58399 20.2113C4.7072 20.2937 4.85208 20.3378 5.00032 20.3379H22.0978L18.3228 28.2654C18.2805 28.3544 18.2561 28.4508 18.251 28.5492C18.2459 28.6476 18.2602 28.7461 18.2932 28.8389C18.3262 28.9318 18.3771 29.0172 18.4431 29.0904C18.5091 29.1636 18.5888 29.223 18.6778 29.2654C18.7668 29.3077 18.8632 29.3322 18.9616 29.3372C19.06 29.3423 19.1585 29.328 19.2513 29.295C19.3442 29.262 19.4297 29.2111 19.5028 29.1451C19.576 29.0791 19.6355 28.9994 19.6778 28.9104L29.6778 7.91039C29.7321 7.79605 29.7565 7.66984 29.7489 7.54351C29.7412 7.41718 29.7017 7.29485 29.6341 7.18789ZM22.8128 18.8379H6.81282L11.5316 14.1179C11.672 13.9773 11.7509 13.7866 11.7509 13.5879C11.7509 13.3891 11.672 13.1985 11.5316 13.0579L6.81157 8.33789H27.8116L22.8128 18.8379Z" fill="#8DFF33"/>
</svg>
