<svg width="64" height="65" viewBox="0 0 64 65" fill="none" xmlns="http://www.w3.org/2000/svg">
<path d="M37 56.5C37 56.7652 36.8946 57.0196 36.7071 57.2071C36.5196 57.3946 36.2652 57.5 36 57.5H28C27.7348 57.5 27.4804 57.3946 27.2929 57.2071C27.1054 57.0196 27 56.7652 27 56.5C27 56.2348 27.1054 55.9804 27.2929 55.7929C27.4804 55.6054 27.7348 55.5 28 55.5H36C36.2652 55.5 36.5196 55.6054 36.7071 55.7929C36.8946 55.9804 37 56.2348 37 56.5ZM32 27.5C32.3956 27.5 32.7822 27.3827 33.1111 27.1629C33.44 26.9432 33.6964 26.6308 33.8478 26.2654C33.9991 25.8999 34.0387 25.4978 33.9616 25.1098C33.8844 24.7219 33.6939 24.3655 33.4142 24.0858C33.1345 23.8061 32.7781 23.6156 32.3902 23.5384C32.0022 23.4613 31.6001 23.5009 31.2346 23.6522C30.8692 23.8036 30.5568 24.06 30.3371 24.3889C30.1173 24.7178 30 25.1044 30 25.5C30 26.0304 30.2107 26.5391 30.5858 26.9142C30.9609 27.2893 31.4696 27.5 32 27.5ZM54.93 39.25L51.8375 53.15C51.7292 53.6478 51.4948 54.1095 51.1569 54.4908C50.8189 54.8721 50.3887 55.1602 49.9075 55.3275C49.5862 55.4406 49.2481 55.4989 48.9075 55.5C48.2327 55.4995 47.5779 55.2704 47.05 54.85L39.9625 49.5H24.0375L16.9525 54.85C16.4246 55.2704 15.7698 55.4995 15.095 55.5C14.7544 55.4989 14.4163 55.4406 14.095 55.3275C13.6138 55.1602 13.1836 54.8721 12.8456 54.4908C12.5077 54.1095 12.2733 53.6478 12.165 53.15L9.06999 39.25C8.97085 38.8023 8.97564 38.3379 9.08399 37.8924C9.19233 37.4469 9.40135 37.0321 9.69499 36.68L17.0325 27.8725C17.8575 14.54 27.49 6.2025 30.1625 4.1375C30.6884 3.73003 31.3347 3.50891 32 3.50891C32.6652 3.50891 33.3116 3.73003 33.8375 4.1375C36.51 6.2025 46.1425 14.54 46.9675 27.8725L54.305 36.68C54.5986 37.0321 54.8077 37.4469 54.916 37.8924C55.0243 38.3379 55.0291 38.8023 54.93 39.25ZM24.2775 47.5H39.7225C53.5175 23.6225 36.25 8.5125 32.615 5.71C32.4393 5.57296 32.2228 5.49853 32 5.49853C31.7772 5.49853 31.5607 5.57296 31.385 5.71C27.75 8.5125 10.4825 23.6225 24.2775 47.5ZM22.3975 48.2325C18.78 41.89 17.2325 36.13 17 31.015L11.23 37.95C11.1321 38.0675 11.0625 38.206 11.0266 38.3546C10.9906 38.5033 10.9892 38.6582 11.0225 38.8075L14.1125 52.715C14.1491 52.8811 14.2274 53.0352 14.3401 53.1626C14.4528 53.29 14.5962 53.3866 14.7566 53.4432C14.917 53.4997 15.0893 53.5144 15.257 53.4859C15.4247 53.4573 15.5823 53.3865 15.715 53.28L15.7375 53.2625L22.3975 48.2325ZM52.77 37.95L47 31.015C46.7775 36.13 45.23 41.89 41.6125 48.2325L48.2725 53.2625L48.295 53.28C48.4277 53.3865 48.5853 53.4573 48.753 53.4859C48.9207 53.5144 49.0929 53.4997 49.2534 53.4432C49.4138 53.3866 49.5572 53.29 49.6699 53.1626C49.7826 53.0352 49.8609 52.8811 49.8975 52.715L52.9875 38.8075C53.0194 38.6575 53.0164 38.5021 52.9787 38.3534C52.941 38.2047 52.8696 38.0667 52.77 37.95Z" fill="#8DFF33"/>
</svg>
